<svg xmlns="http://www.w3.org/2000/svg" xmlns:xlink="http://www.w3.org/1999/xlink" width="1920" height="540" viewBox="0 0 1920 540">
    <defs>
        <path id="o86ri4f9sa" d="M0 0H1920V540H0z"/>
    </defs>
    <g fill="none" fill-rule="evenodd">
        <g>
            <g transform="translate(0 -3846) translate(0 3846)">
                <mask id="2s0b3dfkqb" fill="#fff">
                    <use xlink:href="#o86ri4f9sa"/>
                </mask>
                <use fill="#3D64B6" xlink:href="#o86ri4f9sa"/>
                <g stroke="#FFF" stroke-width=".2" mask="url(#2s0b3dfkqb)" opacity=".25">
                    <path d="M46.806 699.599L227.516 535.023 371.116 677.01 537.305 434.988 924.542 678.623 1431.175 215.553 1624.794 441.441 1929.742 30.003"/>
                    <path d="M45.665 698.202L226.36 536.277 370.087 673.674 537.499 435.917 716.818 545.149 922.653 675.377 1372.485 264.307 1428.497 215.498 1621.685 441.264 1930.884 31.4"/>
                    <path d="M44.523 696.805L225.204 537.531 369.058 670.338 537.694 436.847 716.445 542.133 920.764 672.13 1370.08 261.616 1425.82 215.442 1618.576 441.087 1932.025 32.797"/>
                    <path d="M43.382 695.408L224.048 538.784 368.028 667.003 537.888 437.776 716.071 539.117 918.875 668.884 1367.675 258.925 1423.141 215.386 1615.467 440.91 1933.166 34.194"/>
                    <path d="M42.241 694.01L222.892 540.038 366.999 663.667 538.082 438.706 715.698 536.101 916.986 665.637 1365.27 256.234 1420.463 215.331 1612.358 440.733 1934.307 35.591"/>
                    <path d="M41.1 692.613L221.736 541.292 365.97 660.332 538.276 439.636 715.324 533.085 915.097 662.39 1362.865 253.543 1417.785 215.275 1609.249 440.556 1935.448 36.988"/>
                    <path d="M39.959 691.216L220.579 542.546 364.941 656.996 538.47 440.565 714.951 530.068 913.208 659.144 1360.46 250.852 1415.107 215.219 1606.14 440.379 1936.59 38.385"/>
                    <path d="M38.817 689.819L219.423 543.799 363.911 653.66 538.664 441.495 714.578 527.052 911.319 655.897 1358.055 248.16 1412.429 215.164 1603.031 440.202 1937.731 39.782"/>
                    <path d="M37.676 688.422L218.267 545.053 362.882 650.325 538.858 442.425 714.204 524.036 909.43 652.651 1355.65 245.469 1409.75 215.108 1599.923 440.024 1938.872 41.179"/>
                    <path d="M36.535 687.025L217.111 546.307 361.852 646.989 539.053 443.354 713.831 521.019 907.541 649.403 1353.245 242.778 1407.073 215.053 1596.814 439.848 1940.013 42.576"/>
                    <path d="M35.394 685.628L215.955 547.561 360.823 643.653 539.247 444.284 713.457 518.003 905.652 646.157 1350.84 240.087 1404.395 214.997 1593.704 439.67 1941.155 43.973"/>
                    <path d="M34.252 684.231L214.799 548.815 359.793 640.318 539.441 445.214 713.084 514.987 903.763 642.91 1348.434 237.396 1401.716 214.941 1590.595 439.493 1942.296 45.37"/>
                    <path d="M33.111 682.834L213.642 550.068 358.764 636.982 539.635 446.143 712.71 511.971 901.874 639.664 1346.029 234.705 1399.038 214.886 1587.487 439.316 1943.437 46.767"/>
                    <path d="M31.97 681.437L212.486 551.322 357.735 633.646 539.829 447.073 712.337 508.954 899.985 636.417 1343.624 232.014 1396.36 214.83 1584.378 439.139 1944.579 48.164"/>
                    <path d="M30.829 680.04L211.331 552.576 356.706 630.311 540.024 448.003 711.963 505.938 898.096 633.171 1341.219 229.323 1393.682 214.774 1581.269 438.962 1945.72 49.561"/>
                    <path d="M29.687 678.643L210.174 553.829 355.676 626.975 540.218 448.932 711.59 502.922 896.207 629.924 1338.814 226.631 1391.003 214.719 1578.16 438.785 1946.861 50.958"/>
                    <path d="M28.546 677.246L209.018 555.083 354.647 623.64 540.412 449.862 711.216 499.906 894.318 626.677 1336.409 223.94 1388.325 214.663 1575.051 438.608 1948.002 52.355"/>
                    <path d="M27.405 675.849L207.862 556.337 353.617 620.304 540.606 450.792 710.843 496.89 892.429 623.43 1334.004 221.249 1385.647 214.607 1571.942 438.431 1949.143 53.752"/>
                    <path d="M26.264 674.452L206.706 557.591 352.588 616.968 540.8 451.722 710.469 493.873 890.54 620.184 1331.599 218.558 1382.969 214.552 1568.833 438.254 1950.285 55.15"/>
                    <path d="M25.122 673.055L205.55 558.844 351.558 613.632 540.994 452.652 710.096 490.857 888.651 616.937 1329.194 215.867 1380.291 214.496 1565.724 438.076 1951.426 56.547"/>
                    <path d="M23.981 671.658L204.394 560.098 350.529 610.297 541.189 453.581 709.723 487.841 886.762 613.69 1326.788 213.176 1377.613 214.44 1562.615 437.899 1952.567 57.943"/>
                    <path d="M22.84 670.261L203.237 561.352 349.5 606.961 541.383 454.511 709.349 484.825 884.874 610.444 1324.383 210.484 1374.935 214.385 1559.507 437.722 1953.708 59.34"/>
                    <path d="M21.699 668.864L202.081 562.606 348.471 603.625 541.577 455.44 708.976 481.808 882.985 607.197 1321.978 207.793 1372.256 214.329 1556.398 437.545 1954.849 60.738"/>
                    <path d="M20.557 667.467L200.925 563.86 347.441 600.29 541.771 456.37 708.602 478.792 881.096 603.951 1319.573 205.102 1369.578 214.273 1553.289 437.368 1955.991 62.135"/>
                    <path d="M19.416 666.07L199.769 565.113 346.412 596.954 541.965 457.3 708.229 475.776 879.207 600.704 1317.168 202.411 1366.9 214.218 1550.18 437.191 1957.132 63.531"/>
                    <path d="M18.275 664.673L198.613 566.367 345.383 593.619 542.159 458.229 707.856 472.759 877.317 597.458 1314.763 199.72 1364.222 214.162 1547.071 437.014 1958.273 64.929"/>
                    <path d="M17.134 663.276L197.457 567.621 344.354 590.283 542.353 459.159 707.482 469.744 875.429 594.211 1312.357 197.029 1361.544 214.107 1543.962 436.837 1959.415 66.326"/>
                    <path d="M15.992 661.879L196.3 568.875 343.324 586.947 542.548 460.089 707.109 466.727 873.539 590.964 1309.953 194.337 1358.866 214.051 1540.853 436.66 1960.556 67.723"/>
                    <path d="M14.851 660.482L195.144 570.128 342.295 583.611 542.742 461.018 706.735 463.711 871.651 587.717 1307.547 191.646 1356.188 213.995 1537.744 436.483 1961.697 69.12"/>
                    <path d="M13.71 659.085L193.988 571.382 341.265 580.276 542.936 461.948 706.362 460.694 869.762 584.471 1305.142 188.955 1353.509 213.94 1534.636 436.306 1962.838 70.517"/>
                    <path d="M12.569 657.687L192.832 572.636 340.236 576.94 543.13 462.878 705.988 457.678 867.873 581.224 1302.737 186.264 1350.831 213.884 1531.526 436.129 1963.979 71.914"/>
                    <path d="M11.427 656.29L191.676 573.89 339.207 573.605 543.324 463.808 705.615 454.662 865.984 577.977 1300.332 183.573 1348.153 213.828 1528.417 435.952 1965.121 73.311"/>
                    <path d="M10.286 654.893L190.52 575.143 338.177 570.269 543.518 464.737 705.242 451.646 864.095 574.731 1297.927 180.882 1345.475 213.773 1525.309 435.775 1966.262 74.708"/>
                    <path d="M9.145 653.496L189.364 576.397 337.148 566.933 543.712 465.667 704.868 448.63 862.206 571.484 1295.522 178.19 1342.797 213.717 1522.2 435.597 1967.403 76.105"/>
                    <path d="M8.004 652.099L188.208 577.651 336.119 563.598 543.907 466.596 704.495 445.613 860.317 568.238 1293.117 175.499 1340.119 213.661 1519.09 435.42 1968.545 77.502"/>
                    <path d="M6.862 650.702L187.051 578.904 335.089 560.262 544.1 467.526 704.122 442.597 858.428 564.991 1290.712 172.808 1337.441 213.606 1515.982 435.243 1969.686 78.899"/>
                    <path d="M5.721 649.305L185.895 580.158 334.06 556.926 544.295 468.456 703.748 439.581 856.539 561.744 1288.307 170.117 1334.762 213.55 1512.873 435.066 1970.827 80.296"/>
                    <path d="M4.58 647.908L184.739 581.412 333.03 553.591 544.489 469.385 703.374 436.565 854.65 558.498 1285.902 167.426 1332.085 213.494 1509.764 434.889 1971.969 81.693"/>
                    <path d="M3.439 646.511L183.583 582.666 332.001 550.255 544.683 470.315 703.001 433.548 852.761 555.251 1283.497 164.735 1329.406 213.438 1506.655 434.712 1973.109 83.09"/>
                    <path d="M2.297 645.114L182.427 583.919 330.972 546.919 544.877 471.245 702.627 430.532 850.872 552.004 1281.091 162.044 1326.728 213.383 1503.546 434.535 1974.251 84.487"/>
                    <path d="M1.156 643.717L181.271 585.173 329.942 543.584 545.071 472.175 702.254 427.516 848.983 548.758 1278.686 159.352 1324.05 213.327 1500.437 434.358 1975.392 85.884"/>
                    <path d="M0.015 642.32L701.881 424.5 847.094 545.511 1276.281 156.661 1497.329 434.18 1976.534 87.282"/>
                    <path d="M1.235 640.53L594.96 454.605 699.491 423.35 844.836 542.308 899.523 494.408 1274.303 159.36 1344.208 243.673 1473.792 400.339 1496.717 428.51 1670.54 307.079 1975.707 90.332"/>
                    <path d="M2.455 638.739L592.994 452.138 697.101 422.199 842.579 539.105 897.365 492.761 1272.325 162.058 1342.59 243.373 1473.05 395.115 1496.105 422.839 1669.719 305.96 1974.88 93.381"/>
                    <path d="M3.675 636.948L591.028 449.671 694.711 421.049 840.32 535.901 895.207 491.114 1270.347 164.756 1340.973 243.074 1472.307 389.89 1495.494 417.168 1668.898 304.842 1974.054 96.431"/>
                    <path d="M4.895 635.158L589.062 447.204 692.322 419.899 838.063 532.698 893.049 489.467 1268.369 167.454 1339.356 242.774 1471.564 384.665 1494.882 411.497 1668.078 303.724 1973.228 99.481"/>
                    <path d="M6.115 633.367L587.096 444.737 689.932 418.749 835.805 529.495 890.891 487.821 1266.391 170.152 1337.738 242.474 1470.821 379.44 1494.271 405.827 1667.257 302.605 1972.401 102.531"/>
                    <path d="M7.335 631.577L585.131 442.27 687.542 417.599 833.547 526.292 888.734 486.174 1264.412 172.85 1336.121 242.175 1470.079 374.216 1493.659 400.156 1666.435 301.487 1971.575 105.581"/>
                    <path d="M8.555 629.786L583.165 439.803 685.152 416.449 831.289 523.089 886.576 484.527 1262.434 175.549 1334.503 241.875 1469.336 368.991 1493.047 394.485 1665.614 300.369 1970.748 108.631"/>
                    <path d="M9.775 627.996L581.199 437.336 682.763 415.299 829.031 519.885 884.418 482.88 1260.456 178.247 1332.885 241.575 1468.593 363.767 1492.436 388.814 1664.794 299.25 1969.922 111.681"/>
                    <path d="M10.995 626.205L579.233 434.869 680.373 414.148 826.773 516.682 882.261 481.233 1258.478 180.945 1331.268 241.276 1467.851 358.542 1491.824 383.144 1663.973 298.132 1969.096 114.73"/>
                    <path d="M12.214 624.414L577.268 432.402 677.983 412.998 824.515 513.479 880.103 479.586 1256.5 183.643 1329.651 240.976 1467.108 353.317 1491.212 377.473 1663.152 297.014 1968.269 117.78"/>
                    <path d="M13.434 622.624L575.302 429.935 675.594 411.848 822.257 510.276 877.945 477.94 1254.522 186.341 1328.033 240.677 1466.365 348.092 1490.601 371.802 1662.33 295.895 1967.443 120.83"/>
                    <path d="M14.654 620.833L573.336 427.468 673.204 410.698 819.999 507.073 875.787 476.292 1252.543 189.04 1326.415 240.377 1465.622 342.867 1489.99 366.132 1661.509 294.777 1966.616 123.88"/>
                    <path d="M15.874 619.043L571.371 425.002 670.814 409.548 817.741 503.869 873.629 474.646 1250.566 191.738 1324.798 240.077 1464.88 337.643 1489.378 360.461 1660.688 293.658 1965.79 126.93"/>
                    <path d="M17.094 617.252L569.405 422.535 668.424 408.398 815.483 500.666 871.471 472.999 1248.587 194.436 1323.181 239.778 1464.137 332.418 1488.766 354.79 1659.867 292.54 1964.963 129.98"/>
                    <path d="M18.314 615.461L567.439 420.067 666.035 407.248 813.226 497.463 869.314 471.352 1246.609 197.134 1321.563 239.478 1463.394 327.193 1488.154 349.119 1659.047 291.422 1964.137 133.029"/>
                    <path d="M19.534 613.671L565.474 417.601 663.644 406.097 810.967 494.26 867.156 469.705 1244.631 199.832 1319.946 239.179 1462.652 321.969 1487.543 343.449 1658.226 290.303 1963.31 136.079"/>
                    <path d="M20.754 611.88L563.507 415.134 661.255 404.947 808.709 491.056 864.998 468.058 1242.653 202.531 1318.328 238.879 1461.909 316.744 1486.932 337.778 1657.405 289.185 1962.484 139.13"/>
                    <path d="M21.974 610.09L561.542 412.667 658.865 403.797 806.452 487.853 862.84 466.411 1240.675 205.229 1316.711 238.58 1461.166 311.519 1486.32 332.107 1656.584 288.067 1961.658 142.179"/>
                    <path d="M23.194 608.299L559.576 410.2 656.476 402.647 804.193 484.65 860.683 464.764 1238.697 207.927 1315.093 238.28 1460.423 306.294 1485.708 326.436 1655.763 286.949 1960.831 145.229"/>
                    <path d="M24.414 606.509L557.61 407.733 654.086 401.496 801.936 481.447 858.525 463.118 1236.719 210.625 1313.475 237.98 1459.68 301.07 1485.097 320.765 1654.942 285.83 1960.005 148.279"/>
                    <path d="M25.634 604.718L555.645 405.266 651.696 400.346 799.677 478.243 856.367 461.471 1234.741 213.324 1311.858 237.681 1458.938 295.845 1484.485 315.095 1654.121 284.711 1959.179 151.329"/>
                    <path d="M26.854 602.927L553.679 402.799 649.306 399.197 797.42 475.04 854.209 459.824 1232.763 216.021 1310.24 237.381 1458.195 290.621 1483.873 309.424 1653.3 283.593 1958.352 154.379"/>
                    <path d="M28.074 601.137L551.713 400.332 646.917 398.046 795.162 471.837 852.051 458.177 1230.784 218.72 1308.623 237.081 1457.453 285.396 1483.262 303.754 1652.479 282.475 1957.525 157.429"/>
                    <path d="M29.294 599.346L549.747 397.865 644.527 396.896 792.904 468.634 849.894 456.53 1228.806 221.418 1307.006 236.782 1456.71 280.171 1482.65 298.082 1651.658 281.357 1956.699 160.479"/>
                    <path d="M30.514 597.556L547.782 395.398 642.137 395.746 790.646 465.431 847.736 454.883 1226.828 224.116 1305.388 236.482 1455.967 274.947 1482.039 292.412 1650.837 280.238 1955.873 163.528"/>
                    <path d="M31.734 595.765L545.816 392.931 639.747 394.596 788.388 462.227 845.578 453.237 1224.85 226.815 1303.77 236.183 1455.225 269.722 1481.427 286.741 1650.016 279.12 1955.046 166.578"/>
                    <path d="M32.954 593.975L543.85 390.464 637.357 393.446 786.13 459.024 843.42 451.59 1222.872 229.513 1302.153 235.883 1454.481 264.497 1480.815 281.071 1649.195 278.002 1954.22 169.628"/>
                    <path d="M34.174 592.184L541.885 387.997 634.968 392.295 783.873 455.821 841.262 449.943 1220.894 232.211 1300.535 235.583 1453.739 259.272 1480.204 275.4 1648.374 276.883 1953.394 172.678"/>
                    <path d="M35.394 590.393L539.919 385.53 632.578 391.145 781.614 452.618 839.105 448.296 1218.916 234.909 1298.918 235.284 1452.996 254.048 1479.592 269.729 1647.553 275.765 1952.567 175.728"/>
                    <path d="M36.613 588.603L537.953 383.063 630.188 389.995 779.356 449.415 836.947 446.649 1216.938 237.608 1297.3 234.984 1452.253 248.823 1478.981 264.058 1646.732 274.646 1951.741 178.778"/>
                    <path d="M37.833 586.812L535.987 380.596 627.799 388.845 777.099 446.211 834.789 445.002 1214.959 240.305 1295.683 234.685 1451.511 243.598 1478.369 258.388 1645.911 273.528 1950.914 181.828"/>
                    <path d="M39.053 585.022L534.022 378.129 625.409 387.695 774.84 443.008 832.631 443.355 1212.982 243.004 1294.066 234.385 1450.768 238.374 1477.758 252.717 1645.091 272.41 1950.088 184.877"/>
                    <path d="M40.273 583.231L532.056 375.663 623.019 386.545 772.583 439.805 830.473 441.708 1211.003 245.702 1292.448 234.085 1450.025 233.149 1477.146 247.046 1644.27 271.291 1949.261 187.928"/>
                    <path d="M41.493 581.441L530.09 373.195 620.629 385.395 770.324 436.602 828.316 440.061 1209.025 248.4 1290.831 233.786 1449.282 227.924 1476.534 241.375 1643.448 270.173 1948.435 190.978"/>
                    <path d="M42.713 579.65L528.124 370.728 618.24 384.244 768.067 433.398 826.158 438.415 1207.047 251.098 1289.213 233.486 1448.54 222.699 1475.923 235.704 1642.627 269.055 1947.608 194.027"/>
                    <path d="M43.933 577.86L526.159 368.261 615.85 383.094 765.809 430.195 824 436.768 1205.069 253.796 1287.596 233.187 1447.797 217.475 1475.311 230.034 1641.806 267.936 1946.782 197.077"/>
                    <path d="M45.153 576.069L524.193 365.794 613.46 381.944 763.551 426.992 821.842 435.121 1203.091 256.495 1285.978 232.887 1447.054 212.25 1474.699 224.363 1640.985 266.818 1945.956 200.127"/>
                    <path d="M46.373 574.278L522.227 363.327 611.07 380.794 761.293 423.789 819.685 433.474 1201.113 259.193 1284.361 232.587 1446.311 207.025 1474.088 218.692 1640.164 265.699 1945.129 203.177"/>
                    <path d="M47.593 572.488L520.262 360.861 608.681 379.644 759.035 420.586 817.527 431.827 1199.135 261.891 1282.743 232.287 1445.569 201.801 1473.477 213.022 1639.344 264.581 1944.303 206.227"/>
                    <path d="M48.813 570.697L518.296 358.393 606.291 378.494 756.777 417.382 815.369 430.181 1197.157 264.589 1281.125 231.988 1444.826 196.576 1472.865 207.351 1638.523 263.463 1943.477 209.277"/>
                    <path d="M50.033 568.906L516.33 355.926 813.211 428.533 1279.508 231.688 1444.084 191.351 1637.702 262.344 1942.65 212.326"/>
                    <path d="M49.895 569.831c2.816-2.444 461.72-212.782 466.218-212.35 3.479.334 293.86 72.996 297.078 72.883 5.238-.185 460.862-197.157 466.297-197.79 1.842-.215 163.694-39.162 164.917-38.714 1.538.563 191.863 70.453 194.143 70 3.117-.621 302.828-51.567 304.16-53.206"/>
                    <path d="M49.758 570.756c5.631-4.888 457.142-212.585 466.14-211.72 6.955.668 290.836 73.384 297.274 73.157 10.475-.369 455.426-197.467 466.296-198.734 3.683-.429 162.813-37.987 165.26-37.091 3.075 1.126 190.107 69.915 194.666 69.007 6.235-1.242 300.708-53.117 303.374-56.394"/>
                    <path d="M49.62 571.681c8.447-7.333 452.566-212.387 466.06-211.091 10.435 1.002 287.816 73.773 297.472 73.433 15.712-.553 449.99-197.779 466.297-199.678 5.524-.644 161.932-36.812 165.6-35.469 4.613 1.689 188.353 69.376 195.19 68.014 9.354-1.863 298.588-54.666 302.588-59.581"/>
                    <path d="M49.482 572.606c11.263-9.778 447.988-212.19 465.982-210.462 13.912 1.337 284.794 74.163 297.669 73.709 20.949-.738 444.554-198.09 466.297-200.623 7.365-.858 161.05-35.636 165.941-33.846 6.151 2.252 186.598 68.837 195.715 67.02 12.47-2.483 296.467-56.214 301.8-62.768"/>
                    <path d="M49.344 573.53C63.424 561.31 492.756 361.539 515.248 363.7c17.39 1.67 281.772 74.55 297.865 73.984 26.187-.922 439.119-198.401 466.297-201.567 9.207-1.073 160.169-34.462 166.283-32.223 7.688 2.814 184.842 68.297 196.239 66.027 15.588-3.105 294.347-57.764 301.013-65.956"/>
                    <path d="M49.207 574.455C66.102 559.79 488.04 362.661 515.03 365.253c20.868 2.005 278.75 74.94 298.062 74.26 31.424-1.107 433.684-198.712 466.297-202.512 11.049-1.287 159.287-33.286 166.625-30.6 9.226 3.378 183.087 67.758 196.763 65.034 18.706-3.726 292.227-59.313 300.226-69.144"/>
                    <path d="M49.069 575.38c19.71-17.11 434.257-211.597 465.746-208.572 24.346 2.338 275.728 75.328 298.259 74.535 36.661-1.292 428.247-199.024 466.297-203.456 12.89-1.503 158.406-32.112 166.966-28.978 10.763 3.941 181.332 67.219 197.287 64.041 21.824-4.346 290.107-60.862 299.439-72.331"/>
                    <path d="M48.931 576.305c22.527-19.555 429.68-211.4 465.667-207.943 27.824 2.673 272.707 75.718 298.456 74.81 41.899-1.475 422.812-199.334 466.297-204.4 14.731-1.716 157.524-30.936 167.308-27.355 12.301 4.505 179.577 66.68 197.812 63.049 24.94-4.968 287.985-62.412 298.651-75.52"/>
                    <path d="M48.793 577.23c25.343-22 425.104-211.202 465.589-207.314 31.302 3.007 269.684 76.107 298.652 75.086 47.137-1.66 417.377-199.646 466.297-205.345 16.573-1.93 156.643-29.761 167.65-25.731 13.839 5.067 177.821 66.14 198.335 62.055 28.06-5.589 285.866-63.961 297.865-78.707"/>
                    <path d="M48.656 578.155C76.814 553.71 469.182 367.15 514.166 371.47c34.78 3.341 266.662 76.495 298.848 75.362 52.374-1.845 411.942-199.958 466.297-206.29 18.415-2.146 155.763-28.586 167.992-24.109 15.376 5.63 176.066 65.601 198.86 61.061 31.176-6.209 283.745-65.51 297.077-81.894"/>
                    <path d="M48.518 579.08c30.974-26.889 415.949-210.807 465.431-206.054 38.258 3.675 263.64 76.884 299.046 75.637 57.611-2.03 406.505-200.27 466.297-207.235 20.256-2.36 154.88-27.411 168.333-22.485 16.914 6.193 174.311 65.061 199.384 60.067 34.294-6.83 281.625-67.058 296.29-85.081"/>
                    <path d="M48.38 580.004c33.79-29.332 411.372-210.609 465.353-205.424 41.735 4.01 260.618 77.273 299.242 75.912 62.849-2.213 401.07-200.58 466.297-208.179 22.098-2.574 154-26.235 168.675-20.862 18.451 6.756 172.555 64.522 199.907 59.075 37.413-7.451 279.506-68.608 295.505-88.27"/>
                    <path d="M48.242 580.929c36.606-31.777 406.796-210.411 465.274-204.794 45.214 4.342 257.597 77.661 299.44 76.188 68.085-2.4 395.634-200.892 466.296-209.124 23.94-2.789 153.119-25.06 169.017-19.24 19.989 7.319 170.8 63.983 200.432 58.082 40.53-8.072 277.384-70.157 294.716-91.457"/>
                    <path d="M48.105 581.854C87.527 547.633 450.323 371.64 513.3 377.689c48.692 4.677 254.575 78.051 299.635 76.463 73.325-2.583 390.2-201.202 466.297-210.068 25.781-3.003 152.238-23.885 169.359-17.617 21.526 7.882 169.045 63.445 200.956 57.089 43.647-8.693 275.264-71.706 293.93-94.645"/>
                    <path d="M47.967 582.779c42.237-36.666 397.64-210.017 465.116-203.536 52.17 5.012 251.553 78.44 299.833 76.74 78.56-2.768 384.763-201.514 466.297-211.013 27.622-3.218 151.356-22.71 169.7-15.994 23.064 8.444 167.29 62.905 201.48 56.095 46.765-9.314 273.144-73.255 293.142-97.832"/>
                    <path d="M47.83 583.703c45.053-39.11 393.063-209.818 465.037-202.905 55.647 5.345 248.531 78.828 300.03 77.014 83.798-2.952 379.327-201.825 466.296-211.956 29.464-3.433 150.475-21.536 170.042-14.372 24.602 9.008 165.534 62.366 202.004 55.102 49.882-9.935 271.024-74.805 292.355-101.02"/>
                    <path d="M47.691 584.628c47.87-41.554 388.487-209.62 464.96-202.276 59.125 5.68 245.509 79.218 300.226 77.29 89.035-3.137 373.892-202.136 466.296-212.901 31.306-3.647 149.594-20.36 170.383-12.749 26.14 9.571 163.78 61.827 202.53 54.109 53-10.556 268.902-76.354 291.567-104.207"/>
                    <path d="M47.554 585.553c50.685-43.998 383.91-209.424 464.88-201.646 62.604 6.013 242.487 79.606 300.423 77.565 94.273-3.321 368.457-202.447 466.297-213.846 33.147-3.861 148.712-19.185 170.725-11.125 27.677 10.133 162.024 61.287 203.052 53.115 56.118-11.176 266.784-77.902 290.782-107.395"/>
                    <path d="M47.416 586.478c53.5-46.443 379.333-209.226 464.802-201.017 66.081 6.347 239.465 79.996 300.619 77.841 99.511-3.506 363.021-202.759 466.297-214.79 34.988-4.076 147.83-18.01 171.066-9.503 29.215 10.697 160.27 60.748 203.578 52.122 59.235-11.798 264.662-79.451 289.994-110.582"/>
                    <path d="M47.278 587.403c56.317-48.888 374.756-209.029 464.723-200.387 69.56 6.681 236.444 80.383 300.817 78.116 104.748-3.69 357.585-203.07 466.297-215.735 36.83-4.29 146.949-16.835 171.407-7.88 30.753 11.26 158.514 60.209 204.101 51.13 62.353-12.42 262.543-81.002 289.208-113.77"/>
                    <path d="M47.14 588.327c59.133-51.331 370.179-208.83 464.645-199.757 73.037 7.016 233.421 80.773 301.013 78.392 109.986-3.874 352.15-203.382 466.297-216.68 38.67-4.504 146.068-15.66 171.75-6.257 32.29 11.824 156.758 59.67 204.625 50.137 65.47-13.04 260.422-82.55 288.42-116.958"/>
                    <path d="M47.003 589.252c61.948-53.776 365.601-208.633 464.565-199.127 76.516 7.349 230.4 81.161 301.21 78.667 115.223-4.06 346.714-203.693 466.297-217.624 40.513-4.72 145.187-14.485 172.091-4.634 33.828 12.386 155.004 59.13 205.15 49.143 68.588-13.66 258.302-84.1 287.633-120.146"/>
                    <path d="M46.865 590.177c64.764-56.22 361.024-208.436 464.487-198.498 79.993 7.684 227.377 81.55 301.406 78.943 120.46-4.244 341.28-204.004 466.297-218.568 42.354-4.935 144.306-13.31 172.433-3.012 35.365 12.949 153.248 58.591 205.674 48.15 71.706-14.282 256.18-85.649 286.845-123.334"/>
                    <path d="M46.727 591.102c67.58-58.665 356.447-208.238 464.409-197.868 83.47 8.017 224.355 81.939 301.603 79.217 125.698-4.427 335.843-204.315 466.297-219.512 44.195-5.149 143.424-12.134 172.774-1.388 36.903 13.51 151.493 58.051 206.198 47.156 74.824-14.903 254.061-87.198 286.059-126.52"/>
                    <path d="M46.59 592.027c70.395-61.11 351.87-208.04 464.329-197.24 86.95 8.352 221.334 82.329 301.8 79.495 130.935-4.613 330.408-204.627 466.297-220.457 46.037-5.364 142.543-10.96 173.116.234 38.44 14.074 149.738 57.512 206.722 46.163 77.941-15.524 251.94-88.747 285.272-129.709"/>
                    <path d="M46.452 592.951c73.211-63.553 347.293-207.842 464.25-196.609 90.428 8.686 218.313 82.718 301.998 79.77 136.172-4.797 324.971-204.938 466.297-221.402 47.878-5.578 141.661-9.784 173.457 1.857 39.978 14.638 147.983 56.974 207.246 45.17 81.06-16.144 249.82-90.296 284.485-132.896"/>
                    <path d="M46.314 593.876c76.028-65.998 342.716-207.645 464.172-195.98 93.906 9.02 215.29 83.107 302.194 80.045 141.41-4.981 319.536-205.248 466.297-222.345 49.72-5.793 140.78-8.61 173.799 3.48 41.516 15.2 146.228 56.434 207.77 44.176 84.177-16.765 247.7-91.845 283.698-136.083"/>
                    <path d="M46.176 594.801c78.844-68.442 338.14-207.448 464.093-195.35 97.384 9.354 212.269 83.495 302.391 80.32 146.647-5.166 314.101-205.56 466.297-223.29 51.561-6.007 139.9-7.434 174.14 5.103 43.054 15.763 144.473 55.895 208.295 43.183 87.295-17.386 245.58-93.394 282.911-139.27"/>
                    <path d="M46.039 595.726c81.659-70.886 333.562-207.25 464.014-194.72C610.914 410.694 719.3 484.889 812.64 481.6c151.885-5.35 308.666-205.871 466.297-224.235 53.403-6.221 139.018-6.26 174.483 6.726 44.591 16.326 142.717 55.356 208.819 42.19 90.411-18.007 243.46-94.943 282.123-142.458"/>
                    <path d="M45.901 596.65c84.475-73.33 328.985-207.052 463.936-194.09 104.34 10.022 206.224 84.273 302.784 80.871 157.122-5.535 303.23-206.182 466.297-225.18 55.244-6.435 138.136-5.083 174.824 8.35 46.128 16.889 140.962 54.816 209.342 41.196 93.53-18.628 241.34-96.492 281.337-145.646"/>
                    <path d="M45.763 597.575c87.29-75.774 324.408-206.854 463.857-193.46 107.818 10.356 203.203 84.661 302.981 81.146 162.36-5.72 297.794-206.493 466.297-226.124 57.086-6.65 137.255-3.909 175.166 9.972 47.666 17.452 139.207 54.277 209.867 40.204 96.647-19.25 239.219-98.042 280.549-148.834"/>
                    <path d="M45.625 598.5c90.107-78.219 319.831-206.657 463.779-192.83 111.295 10.69 200.18 85.05 303.178 81.42 167.596-5.903 292.358-206.804 466.296-227.067 58.928-6.865 136.374-2.734 175.508 11.594 49.204 18.016 137.451 53.738 210.39 39.21 99.766-19.87 237.1-99.59 279.763-152.02"/>
                    <path d="M45.488 599.425c92.922-80.664 315.253-206.46 463.7-192.201 114.773 11.024 197.158 85.439 303.374 81.697 172.834-6.089 286.923-207.117 466.297-228.013 60.768-7.08 135.493-1.559 175.848 13.217 50.742 18.579 135.697 53.2 210.916 38.218 102.883-20.49 234.978-101.14 278.975-155.21"/>
                    <path d="M45.35 600.35c95.738-83.108 310.677-206.262 463.62-191.572 118.252 11.358 194.138 85.828 303.572 81.973 178.072-6.273 281.487-207.427 466.297-228.958 62.61-7.293 134.611-.383 176.19 14.84 52.28 19.142 133.942 52.66 211.44 37.225 106-21.112 232.858-102.69 278.188-158.397"/>
                    <path d="M45.212 601.275c98.555-85.553 306.1-206.065 463.542-190.943 121.73 11.693 191.116 86.217 303.768 82.249 183.31-6.458 276.052-207.739 466.297-229.902 64.452-7.509 133.73.791 176.532 16.463 53.817 19.704 132.187 52.12 211.964 36.23 109.118-21.732 230.738-104.237 277.401-161.583"/>
                    <path d="M45.075 602.2c101.37-87.997 301.522-205.868 463.463-190.313 125.207 12.026 188.093 86.606 303.965 82.524 188.546-6.642 270.616-208.05 466.297-230.846 66.293-7.724 132.848 1.966 176.873 18.085 55.355 20.268 130.432 51.581 212.488 35.238 112.236-22.354 228.618-105.787 276.614-164.772"/>
                    <path d="M44.937 603.124c104.186-90.44 296.945-205.67 463.385-189.683 128.685 12.36 185.071 86.995 304.161 82.8 193.784-6.827 265.18-208.362 466.297-231.791 68.135-7.938 131.967 3.142 177.215 19.709 56.892 20.83 128.676 51.041 213.012 34.244 115.353-22.975 226.497-107.337 275.827-167.96"/>
                    <path d="M44.8 604.05c107-92.887 292.367-205.473 463.305-189.054 132.164 12.694 182.05 87.383 304.358 83.075 199.022-7.012 259.746-208.673 466.297-232.736 69.976-8.152 131.087 4.317 177.557 21.332 58.43 21.393 126.92 50.502 213.536 33.251 118.471-23.596 224.377-108.885 275.04-171.147"/>
                    <path d="M44.661 604.974C154.48 509.644 332.453 399.699 507.89 416.55c135.641 13.029 179.027 87.772 304.555 83.35 204.258-7.195 254.31-208.983 466.296-233.68 71.818-8.366 130.205 5.493 177.899 22.955 59.968 21.956 125.166 49.964 214.06 32.258 121.589-24.216 222.257-110.434 274.253-174.335"/>
                    <path d="M44.523 605.899c112.634-97.775 283.214-205.077 463.15-187.794 139.118 13.362 176.005 88.16 304.75 83.626 209.497-7.38 248.875-209.295 466.298-234.625 73.66-8.58 129.324 6.667 178.24 24.578 61.505 22.519 123.41 49.424 214.584 31.265 124.706-24.838 220.136-111.985 273.466-177.523"/>
                    <path d="M44.386 606.823c115.449-100.218 278.637-204.879 463.07-187.164 142.597 13.697 172.984 88.55 304.949 83.901 214.733-7.564 243.438-209.606 466.297-235.568 170.43-19.855 225.91 89.888 393.69 56.472 127.824-25.459 218.016-113.534 272.678-180.71"/>
                    <path d="M43.803 604.64C158.154 503.474 319.865 397.3 502.112 414.916c38.762 3.855 67.711 17.37 95.554 26.987 46.793 16.161 81.242 28.687 125.073 41.971 29.09 8.817 58.563 19.933 99.275 18.76 212.107-6.11 241.996-207.789 461.793-236.086 164.328-20.948 221.434 79.493 379.517 53.176 3.449-.572 6.944-1.204 10.489-1.897 126.905-24.852 216.756-109.353 271.304-173.7"/>
                    <path d="M43.22 602.455c113.254-102.11 273.533-210.265 453.547-192.28 40.584 4.055 69.047 23.543 99.136 33.451 49.199 16.2 85.204 20.08 132.03 33.299 31.671 8.94 60.757 25.77 103.691 24.785 209.467-4.804 240.554-205.971 457.288-236.604 161.85-22.462 219.37 73.708 375.897 47.94 3.429-.56 6.904-1.178 10.426-1.854 125.985-24.245 215.496-105.173 269.93-166.691"/>
                    <path d="M42.638 600.27c112.155-103.055 270.976-212.91 448.785-194.837 42.398 4.309 70.376 29.726 102.716 39.916 51.597 16.259 89.174 11.457 138.988 24.626 34.256 9.055 62.949 31.602 108.107 30.81 206.82-3.626 239.112-204.154 452.783-237.121 159.372-23.978 217.305 67.92 372.277 42.704 3.41-.55 6.863-1.153 10.362-1.813 125.067-23.636 214.237-100.992 268.555-159.68"/>
                    <path d="M42.055 598.086c111.057-104.002 268.418-215.53 444.023-197.395 44.215 4.565 71.704 35.916 106.298 46.381 53.988 16.332 93.147 2.822 145.945 15.953 36.845 9.163 65.18 38.895 112.523 36.836 203.988-8.87 237.581-202.864 448.278-237.64 156.831-25.885 215.24 62.135 368.657 37.469 3.39-.539 6.822-1.128 10.299-1.77 124.147-23.03 212.977-96.813 267.18-152.672"/>
                    <path d="M41.472 595.902c109.96-104.948 265.858-218.125 439.262-199.954 46.03 4.824 73.027 42.114 109.878 52.847 56.375 16.418 97.125-5.824 152.903 7.28 39.436 9.264 67.374 45.056 116.939 42.86 201.313-8.917 236.11-201.168 443.773-238.156 154.332-27.49 213.175 56.347 365.037 32.232 3.37-.527 6.781-1.102 10.236-1.728 123.227-22.422 211.717-92.632 265.805-145.66"/>
                    <path d="M40.89 593.718c108.861-105.894 263.295-220.701 434.5-202.512 47.845 5.083 74.348 48.318 113.459 59.312 58.756 16.516 101.104-14.478 159.86-1.394 42.028 9.36 69.565 51.203 121.354 48.887 198.644-8.884 234.637-199.468 439.27-238.675 151.83-29.09 211.11 50.561 361.416 26.997 3.35-.516 6.74-1.077 10.172-1.686 122.309-21.815 210.458-88.452 264.431-138.651"/>
                    <path d="M40.307 591.534c107.763-106.84 260.732-223.259 429.738-205.07 49.66 5.344 75.668 54.527 117.04 65.776 61.136 16.623 105.086-23.139 166.818-10.066 44.622 9.45 71.753 57.33 125.77 54.912 195.978-8.776 233.16-197.762 434.765-239.193 149.328-30.688 209.044 44.775 357.796 21.761 3.33-.504 6.7-1.051 10.109-1.643 121.389-21.208 209.198-84.272 263.056-131.642"/>
                    <path d="M39.724 589.35C146.39 481.564 297.891 363.55 464.701 381.72c51.475 5.608 76.986 60.742 120.621 72.242 63.512 16.738 109.07-31.807 173.776-18.74 47.216 9.536 73.937 63.441 130.185 60.938 193.315-8.604 231.682-196.051 430.26-239.71 146.824-32.281 206.98 38.989 354.176 16.525 3.311-.493 6.659-1.026 10.046-1.601 120.469-20.6 207.938-80.091 261.68-124.632"/>
                    <path d="M39.142 587.165c105.567-108.732 255.6-228.326 420.214-210.186 53.291 5.873 78.304 66.962 124.203 78.707 65.886 16.86 113.053-40.48 180.732-27.413 49.813 9.618 76.12 69.532 134.602 66.963 190.656-8.375 230.2-194.335 425.756-240.228 144.318-33.869 204.87 32.91 350.555 11.29 3.29-.489 6.618-1.001 9.982-1.56 119.55-19.992 206.678-75.91 260.308-117.621"/>
                    <path d="M38.56 584.981C143.027 475.303 291.59 354.142 454.01 372.237c55.107 6.14 79.62 73.185 127.785 85.172 68.26 16.988 117.037-49.158 187.69-36.086 52.408 9.697 78.3 75.603 139.017 72.988 188-8.097 228.717-192.613 421.25-240.746 141.813-35.452 202.804 27.1 346.936 6.054 3.27-.478 6.578-.975 9.919-1.516 118.63-19.386 205.418-71.731 258.932-110.612"/>
                    <path d="M37.976 582.797c103.372-110.624 250.463-233.34 410.691-215.302 56.921 6.408 80.934 79.412 131.365 91.637 70.632 17.12 121.023-57.839 194.648-44.759 55.005 9.772 80.478 81.653 143.433 79.013 185.347-7.773 227.231-190.884 416.746-241.263 139.304-37.031 200.735 21.29 343.315.818 3.25-.467 6.537-.95 9.856-1.475 117.71-18.778 204.158-67.55 257.557-103.602"/>
                    <path d="M37.394 580.613c102.273-111.57 247.891-235.83 405.93-217.86 58.734 6.678 82.247 85.643 134.945 98.102 73.003 17.258 125.009-66.524 201.604-53.432 57.603 9.846 82.655 87.681 147.85 85.038 182.696-7.408 225.744-189.15 412.241-241.78 136.795-38.606 198.669 15.483 339.695-4.42 3.231-.455 6.496-.923 9.792-1.43 116.792-18.172 202.9-63.371 256.183-96.593"/>
                    <path d="M36.811 578.428c101.175-112.515 245.32-238.31 401.167-220.417 60.55 6.951 83.562 91.877 138.527 104.566 75.373 17.401 128.995-75.21 208.563-62.104 60.2 9.916 84.828 93.687 152.264 91.063 180.048-7.007 224.256-187.407 407.737-242.299 134.285-40.173 196.602 9.678 336.075-9.654 3.212-.445 6.456-.898 9.729-1.389 115.872-17.564 201.64-59.19 254.808-89.582"/>
                    <path d="M36.229 576.244c100.077-113.462 242.747-240.782 396.405-222.975 62.364 7.226 84.874 98.113 142.108 111.03 77.742 17.547 132.982-83.9 215.52-70.777 62.797 9.985 87 99.67 156.68 97.089 177.4-6.572 222.766-185.658 403.233-242.817 131.773-41.735 194.535 3.875 332.454-14.89 3.192-.433 6.415-.872 9.666-1.346 114.953-16.956 200.379-55.01 253.433-82.573"/>
                    <path d="M35.646 574.06C134.625 459.652 275.82 330.814 427.29 348.526c64.178 7.505 86.186 104.353 145.689 117.497 80.11 17.695 136.968-92.593 222.477-79.45 65.395 10.05 89.172 105.628 161.096 103.113 174.755-6.108 221.276-183.901 398.728-243.334 129.262-43.293 192.469-1.928 328.834-20.126 3.173-.423 6.374-.848 9.602-1.304 114.034-16.35 199.12-50.83 252.059-75.563"/>
                    <path d="M35.063 571.875c97.881-115.353 237.6-245.701 386.882-228.09 65.992 7.784 87.499 110.595 149.27 123.96 82.48 17.848 140.955-101.287 229.435-88.123 67.992 10.116 91.341 111.56 165.512 109.14 172.11-5.618 219.785-182.137 394.223-243.853 126.75-44.843 190.403-7.727 325.214-25.36 3.152-.413 6.333-.823 9.539-1.263 113.115-15.742 197.86-46.65 250.684-68.553"/>
                    <path d="M34.48 569.691c96.784-116.3 235.025-248.15 382.12-230.65 67.806 8.068 88.811 116.84 152.852 130.427 84.848 18.001 144.94-109.984 236.392-96.796 70.59 10.18 93.518 112.597 169.928 115.164 169.449 5.693 218.294-180.363 389.718-244.37 124.239-46.387 188.338-13.524 321.593-30.597 3.134-.401 6.293-.796 9.477-1.22 112.195-15.134 196.6-42.468 249.31-61.542"/>
                    <path d="M33.898 567.507C129.583 450.262 266.347 316.914 411.257 334.3c69.617 8.353 90.121 123.087 156.432 136.892 87.216 18.158 148.927-118.682 243.349-105.47 73.188 10.242 95.7 118.324 174.343 121.19 166.778 6.08 216.804-178.581 385.215-244.887 121.727-47.926 186.272-19.32 317.973-35.833 3.113-.39 6.251-.771 9.412-1.177 111.276-14.528 195.34-38.29 247.935-54.534"/>
                    <path d="M33.315 565.323c94.587-118.192 229.873-253.03 372.597-235.766 71.431 8.64 91.433 129.334 160.013 143.357C655.51 491.23 718.84 345.532 816.232 358.772c75.786 10.302 97.881 124.04 178.76 127.215 164.106 6.442 215.313-176.791 380.709-245.406 119.218-49.457 184.208-25.115 314.353-41.069 3.094-.379 6.211-.746 9.349-1.134 110.357-13.92 194.08-34.11 246.56-47.524"/>
                    <path d="M32.733 563.139c93.489-119.137 227.295-255.461 367.835-238.324 73.243 8.931 92.744 135.585 163.593 149.822 91.952 18.477 156.902-136.083 257.265-122.816 78.384 10.362 100.064 129.746 183.175 133.24 161.436 6.79 213.826-174.99 376.205-245.922 116.709-50.982 182.144-30.907 310.732-46.305 3.075-.368 6.171-.72 9.286-1.093 109.438-13.312 192.821-29.928 245.186-40.513"/>
                    <path d="M32.15 560.955C124.54 440.87 256.868 303.067 395.223 320.073c75.056 9.225 94.055 141.836 167.175 156.287C656.718 495 723.286 331.575 826.621 344.87c80.98 10.42 102.246 135.44 187.59 139.265 158.767 7.117 212.34-173.18 371.7-246.44 114.202-52.499 180.08-36.696 307.112-51.54 3.055-.358 6.13-.696 9.223-1.05 108.518-12.706 191.561-25.749 243.811-33.504"/>
                    <path d="M31.567 558.77c91.293-121.029 222.14-260.308 358.312-243.44 76.867 9.523 95.365 148.09 170.756 162.752 96.687 18.804 164.874-153.487 271.18-140.161 83.579 10.477 104.43 141.124 192.006 145.29 156.099 7.428 210.857-171.361 367.196-246.958 111.696-54.009 178.015-42.483 303.491-56.776 3.036-.346 6.09-.67 9.16-1.008 107.598-12.098 190.301-21.568 242.436-26.494"/>
                    <path d="M30.985 556.586c90.195-121.975 219.56-262.725 353.55-245.997 78.678 9.822 96.675 154.343 174.337 169.216 99.053 18.97 168.86-162.191 278.137-148.834 86.177 10.533 106.614 146.795 196.422 151.316 153.431 7.724 209.377-169.533 362.691-247.476 109.193-55.512 175.952-48.27 299.871-62.013 3.016-.334 6.05-.643 9.096-.965 106.68-11.49 189.042-17.388 241.062-19.484"/>
                    <path d="M30.402 554.402c89.097-122.92 216.98-265.139 348.788-248.555 80.489 10.126 97.986 160.6 177.918 175.68 101.421 19.137 172.848-170.896 285.095-157.506 88.775 10.589 108.8 152.453 200.838 157.341 150.765 8.007 207.902-167.694 358.186-247.994 106.694-57.008 173.889-54.052 296.251-67.248 2.997-.323 6.008-.619 9.033-.923 105.76-10.884 187.782-13.207 239.687-12.474"/>
                    <path d="M29.82 552.217c87.999-123.866 214.4-267.547 344.026-251.113 82.3 10.434 99.296 166.857 181.499 182.147 103.788 19.304 176.834-179.603 292.052-166.18 91.373 10.643 110.987 158.098 205.253 163.366 148.102 8.276 206.432-165.845 353.683-248.511 104.197-58.497 171.826-59.833 292.63-72.484 2.977-.312 5.967-.594 8.97-.88 104.84-10.278 186.522-9.028 238.312-5.465"/>
                    <path d="M29.237 550.033c86.9-124.812 211.82-269.953 339.264-253.671 84.11 10.746 100.607 173.116 185.08 188.612 106.156 19.473 180.82-188.31 299.01-174.854 93.97 10.698 113.174 163.73 209.67 169.392 145.438 8.534 204.966-163.985 349.177-249.029 101.706-59.979 169.763-65.61 289.01-77.72 2.957-.3 5.927-.568 8.906-.838 103.922-9.67 185.263-4.847 236.938 1.545"/>
                    <path d="M28.654 547.849c85.803-125.758 209.239-272.356 334.503-256.23 85.918 11.062 101.917 179.376 188.661 195.077C660.341 506.34 736.625 289.68 857.785 303.17c96.569 10.752 115.364 169.346 214.085 175.417 142.778 8.78 203.51-162.115 344.673-249.547 99.219-61.452 167.7-71.387 285.39-82.955 2.937-.29 5.886-.543 8.843-.796 103.002-9.062 184.003-.667 235.563 8.555"/>
                    <path d="M28.071 545.665C112.776 418.96 234.73 270.909 357.813 286.877c87.726 11.381 103.227 185.636 192.241 201.542 110.891 19.815 188.793-205.724 312.925-192.2 99.166 10.806 117.554 174.948 218.5 181.443 140.119 9.017 202.06-160.235 340.17-250.065 96.736-62.92 165.638-77.16 281.769-88.19 2.918-.278 5.845-.518 8.78-.754 102.082-8.455 182.742 3.513 234.188 15.565"/>
                    <path d="M27.489 543.48c83.607-127.65 204.075-277.151 324.979-261.345 89.535 11.706 104.538 191.897 195.823 208.007 113.258 19.987 192.78-214.433 319.882-200.872 101.764 10.857 119.745 180.53 222.917 187.467 137.46 9.243 200.618-158.346 335.663-250.582 94.261-64.38 163.576-82.931 278.15-93.427 2.898-.266 5.805-.492 8.716-.712 101.164-7.847 181.483 7.694 232.814 22.575"/>
                    <path d="M26.906 541.296C109.415 412.7 228.399 261.751 347.123 277.393c91.343 12.035 105.848 198.16 199.405 214.471 115.625 20.16 196.791-223.391 326.84-209.545 104.382 10.71 121.938 186.097 227.331 193.493 134.804 9.46 199.187-156.446 331.16-251.1 91.791-65.834 161.514-88.699 274.529-98.662 2.879-.255 5.764-.467 8.653-.67 100.244-7.24 180.223 11.875 231.44 29.585"/>
                    <path d="M26.323 539.112c81.412-129.542 198.91-281.936 315.456-266.46 93.149 12.367 107.157 204.421 202.986 220.935C662.757 513.921 745.54 261.507 878.56 275.37c106.978 10.776 124.135 191.645 231.748 199.518 132.15 9.67 197.765-154.538 326.655-251.617 89.329-67.283 159.452-94.465 270.909-103.9 2.86-.241 5.723-.44 8.59-.626 99.324-6.632 178.963 16.055 230.064 36.595"/>
                    <path d="M25.74 536.928c80.314-130.488 196.327-284.325 310.695-269.019C431.389 280.617 444.902 478.595 543 495.31 663.361 515.82 747.76 254.54 883.755 268.42c109.574 10.844 126.333 197.172 236.164 205.544 129.498 9.87 196.355-152.622 322.15-252.136 86.874-68.725 157.39-100.228 267.289-109.135 2.84-.23 5.682-.415 8.526-.584 98.406-6.025 177.704 20.235 228.69 43.605"/>
                    <path d="M25.158 534.743C104.373 403.31 218.9 248.033 331.09 263.167c96.76 13.052 109.778 216.95 210.148 233.866 122.726 20.684 208.741-249.458 347.711-235.564 112.17 10.911 128.534 202.68 240.58 211.568 126.848 10.064 194.956-150.695 317.645-252.653 84.428-70.161 155.33-105.988 263.669-114.37 2.82-.218 5.642-.39 8.463-.542 97.486-5.418 176.444 24.415 227.315 50.614"/>
                    <path d="M24.575 532.56c78.118-132.38 191.158-289.096 301.171-274.136 98.563 13.404 111.056 223.404 213.729 240.332 125.055 21.086 212.724-258.147 354.668-244.237 114.765 10.978 130.736 208.164 244.996 217.594 124.2 10.25 193.572-148.763 313.14-253.171 81.991-71.595 153.268-111.746 260.049-119.606 2.8-.207 5.6-.365 8.4-.5 96.566-4.81 175.183 28.595 225.94 57.624"/>
                    <path d="M23.993 530.375c77.019-133.326 188.573-291.477 296.409-276.693 100.366 13.76 112.37 229.645 217.31 246.797C665.14 521.71 754.42 233.642 899.336 247.569c117.36 11.045 132.942 213.625 249.412 223.618 121.555 10.43 192.2-146.823 308.636-253.688 79.562-73.022 151.206-117.5 256.428-124.842 2.781-.194 5.56-.34 8.336-.457 95.648-4.204 173.924 32.775 224.566 64.634"/>
                    <path d="M23.41 528.19C99.331 393.92 209.398 234.334 315.057 248.94c102.168 14.124 113.685 235.885 220.89 253.261C665.75 523.58 756.64 226.676 904.532 240.618c119.956 11.114 135.15 219.062 253.827 229.645 118.913 10.603 190.844-144.879 304.131-254.206 77.144-74.448 149.144-123.251 252.808-130.079 2.761-.182 5.52-.313 8.273-.414 94.727-3.597 172.665 36.955 223.19 71.644"/>
                    <path d="M22.827 526.007C97.651 390.789 206.23 229.77 309.713 244.197c103.97 14.496 114.999 242.127 224.471 259.727C666.36 525.447 758.86 219.71 909.726 233.668c122.551 11.181 137.363 224.471 258.242 235.67 116.274 10.771 189.504-142.928 299.628-254.724 74.734-75.87 147.093-128.816 249.187-135.314 2.742-.165 5.479-.288 8.21-.372 93.808-2.99 171.404 41.136 221.816 78.653"/>
                    <path d="M22.245 523.822C95.97 387.658 203.06 225.21 304.368 239.455c105.77 14.874 116.313 248.368 228.053 266.192 134.547 21.668 228.658-292.903 382.499-278.93 125.147 11.25 139.58 229.853 262.658 241.696 113.637 10.934 188.179-140.974 295.123-255.242 72.336-77.29 145.029-134.603 245.567-140.55 2.723-.153 5.438-.262 8.146-.33 92.89-2.381 170.145 45.316 220.442 85.664"/>
                    <path d="M21.662 521.638c72.627-137.11 178.205-300.814 277.362-286.925 107.541 15.449 117.628 254.61 231.634 272.657 136.92 21.813 232.642-301.592 389.456-287.602 127.742 11.316 141.801 235.202 267.074 247.72 111.004 11.092 186.87-139.018 290.618-255.76 69.949-78.71 142.964-140.389 241.946-145.785 2.704-.142 5.398-.237 8.084-.288 91.97-1.774 168.885 49.497 219.067 92.674"/>
                    <path d="M21.08 519.454C92.607 381.398 196.71 216.18 293.68 229.97c109.35 15.754 118.941 260.85 235.214 279.122C668.188 531.05 765.52 198.812 925.308 212.818c130.338 11.384 144.027 240.519 271.49 253.745 108.374 11.245 185.746-136.919 286.113-256.277 67.685-80.035 140.899-146.176 238.327-151.022 2.683-.13 5.356-.211 8.02-.245 91.05-1.167 167.625 53.677 217.692 99.683"/>
                    <path d="M20.497 517.27c70.43-139.002 173.054-305.734 267.838-292.04 111.161 16.058 120.256 267.09 238.796 285.586 141.666 22.103 240.609-318.97 403.37-304.949 132.935 11.452 146.26 245.802 275.907 259.771 176.613 19.029 277.376-402.347 516.315-413.052 93.598-4.194 172.858 56.223 224.274 106.49"/>
                    <path d="M20.745 512.171c71.28-136.867 173.738-300.452 268.34-287.744 111.072 14.866 122.252 259.381 239.929 277.31C637.06 517.949 720.42 330.304 824.79 245.609c33.142-26.747 68.363-43.183 107.147-39.62 109.074 10.06 138.116 168.646 218.24 230.486 16.712 12.982 35.612 21.73 57.905 23.995C1376.42 477.29 1475.404 98.85 1693.019 55.662c9.768-1.933 19.768-3.182 30.017-3.679 93.261-4.6 172.235 54.212 223.422 103.214"/>
                    <path d="M20.993 507.072C93.12 372.34 195.415 211.902 289.836 223.625c110.983 13.674 124.21 251.933 241.06 269.035 108.437 15.87 192.005-167.136 295.944-248.754 32.993-25.908 68.078-41.553 106.532-37.797 108.261 10.654 138.377 165.8 218.748 226.029 16.748 12.551 35.527 21.054 57.637 23.16 167.693 15.438 266.117-356.48 483.775-400.18 9.71-1.938 19.644-3.206 29.818-3.738 92.923-5.005 171.61 52.2 222.57 99.939"/>
                    <path d="M21.241 501.974c72.976-132.599 175.106-289.889 269.346-279.15 110.893 12.48 126.189 244.342 242.193 260.758 108.846 15.404 192.722-162.696 296.11-241.378 32.882-25.025 67.792-39.923 105.916-35.973 107.45 11.247 138.535 163.078 219.256 221.571 16.764 12.148 35.44 20.43 57.37 22.327 167.014 14.449 264.91-351.345 482.613-395.553 9.651-1.945 19.519-3.232 29.619-3.8 92.585-5.41 170.987 50.19 221.716 96.664"/>
                    <path d="M21.49 496.875c73.823-130.464 175.789-284.607 269.848-274.853 110.803 11.288 128.17 236.744 243.325 252.482C643.92 489.436 728.11 316.248 830.94 240.503c32.774-24.142 67.507-38.295 105.301-34.152 106.638 11.842 138.684 160.36 219.764 217.116 16.777 11.743 35.355 19.769 57.101 21.492 166.364 13.188 263.706-346.207 481.452-390.927 9.593-1.95 19.395-3.256 29.42-3.858 92.247-5.817 170.362 48.177 220.863 93.388"/>
                    <path d="M21.738 491.776C96.41 363.447 198.21 212.452 292.088 221.22c110.714 10.095 130.154 229.14 244.457 244.206 109.671 14.457 194.18-153.815 296.445-226.625 32.668-23.26 67.221-36.665 104.686-32.329 105.825 12.435 138.826 157.643 220.271 212.659 16.79 11.34 35.27 19.108 56.834 20.66 165.715 11.92 262.5-341.072 480.29-386.302 9.535-1.956 19.27-3.281 29.22-3.919 91.909-6.222 169.739 46.166 220.011 90.113"/>
                    <path d="M21.986 486.678c75.52-126.195 177.156-274.043 270.852-266.26 110.626 8.902 132.14 221.528 245.59 235.93 110.086 13.977 194.92-149.373 296.612-219.25 32.564-22.375 66.936-35.034 104.07-30.505 105.014 13.03 138.962 154.928 220.78 208.202 16.8 10.939 35.186 18.446 56.565 19.825 165.069 10.65 261.296-335.934 479.129-381.674 9.477-1.961 19.147-3.285 29.02-3.979 91.586-6.431 169.116 44.155 219.16 86.837"/>
                    <path d="M22.234 481.58c76.368-124.061 177.84-268.762 271.355-261.964 110.537 7.71 134.128 213.91 246.722 227.655 110.503 13.491 195.668-144.93 296.779-211.874 32.462-21.493 66.65-33.406 103.455-28.682 104.201 13.622 139.09 152.215 221.287 203.745 16.808 10.537 35.102 17.783 56.298 18.991 164.424 9.373 260.09-330.798 477.967-377.048 9.419-1.967 19.023-3.308 28.82-4.038 91.252-6.81 168.492 42.142 218.307 83.56"/>
                    <path d="M22.482 476.48C99.698 354.555 201.006 213.001 294.34 218.815c110.448 6.517 136.118 206.282 247.855 219.378 110.92 13.001 196.424-140.485 296.946-204.498 32.364-20.61 66.365-31.776 102.84-26.86 103.389 14.217 139.209 149.506 221.794 199.29 16.815 10.135 35.02 17.119 56.03 18.156 163.782 8.091 258.885-325.66 476.806-372.422 9.36-1.972 18.899-3.329 28.621-4.098 90.916-7.189 167.868 40.132 217.455 80.286"/>
                    <path d="M22.73 471.382c78.065-119.791 179.208-258.198 272.36-253.369 110.358 5.324 138.108 198.649 248.986 211.103C655.417 441.62 741.265 293.078 841.19 231.993c32.268-19.725 66.08-30.147 102.226-25.036 102.576 14.81 139.32 146.8 222.3 194.831 16.822 9.737 34.937 16.455 55.763 17.324 163.141 6.804 257.584-320.967 475.644-367.796 9.298-1.997 18.775-3.352 28.422-4.158 90.582-7.57 167.244 38.12 216.602 77.01"/>
                    <path d="M22.978 466.283C101.891 348.627 202.87 213.367 295.84 217.211c110.27 4.131 140.1 191.009 250.12 202.827C657.722 432.043 743.92 288.45 843.24 230.29c32.175-18.84 65.794-28.517 101.61-23.213 101.764 15.404 139.426 144.097 222.81 190.375 16.824 9.337 34.852 15.789 55.493 16.489 162.503 5.51 256.37-315.866 474.482-363.17 9.24-2.003 18.652-3.373 28.224-4.217 90.246-7.953 166.62 36.108 215.75 73.734"/>
                    <path d="M23.226 461.185c79.761-115.523 180.57-247.443 273.365-244.775 110.173 3.166 142.094 183.36 251.251 194.55 112.185 11.5 198.744-127.132 297.449-182.37 32.083-17.956 65.508-26.888 100.994-21.391 100.951 15.997 139.523 141.4 223.317 185.918 16.827 8.94 34.77 15.123 55.226 15.656 161.866 4.212 255.156-310.764 473.32-358.543 9.182-2.011 18.528-3.397 28.024-4.278 89.913-8.337 165.996 34.097 214.897 70.459"/>
                    <path d="M23.475 456.086c80.609-113.387 181.255-242.15 273.867-240.478 110.086 1.986 144.089 175.706 252.384 186.274C662.334 412.871 749.26 279.21 847.34 226.888c31.996-17.07 65.222-25.258 100.379-19.568 100.14 16.591 139.613 138.708 223.824 181.461 16.828 8.544 34.688 14.456 54.959 14.822 161.23 2.907 253.943-305.658 472.158-353.916 9.123-2.018 18.404-3.42 27.825-4.338 89.578-8.723 165.372 32.085 214.044 67.183"/>
                    <path d="M23.723 450.987c81.457-111.253 181.94-236.858 274.37-236.181 109.999.805 146.085 168.046 253.515 177.998 113.034 10.473 200.336-118.209 297.783-167.618 31.912-16.181 64.936-23.629 99.764-17.745 99.327 17.185 139.697 136.02 224.332 177.005 16.827 8.148 34.604 13.788 54.69 13.987 160.597 1.596 252.73-300.549 470.997-349.29 9.065-2.024 18.28-3.443 27.625-4.397 89.244-9.111 164.749 30.074 213.192 63.907"/>
                    <path d="M23.971 445.889C106.276 336.77 206.598 214.32 298.843 214.004c109.913-.377 148.083 160.377 254.648 169.723 113.46 9.95 201.147-113.739 297.95-160.243 31.83-15.292 64.664-22.071 99.149-15.922 98.55 17.573 139.773 133.34 224.84 172.548 16.825 7.755 34.524 13.482 54.422 13.154 159.942-2.638 251.517-295.438 469.835-344.664 9.007-2.03 18.155-3.467 27.426-4.457 88.91-9.5 164.124 28.062 212.34 60.631"/>
                    <path d="M24.22 440.79c83.153-106.984 183.312-226.279 275.374-227.587 109.826-1.562 150.08 152.702 255.78 161.446 113.887 9.421 201.966-109.261 298.117-152.867 31.752-14.4 64.38-20.444 98.534-14.099 97.742 18.16 139.842 130.668 225.347 168.092 16.822 7.362 34.446 12.824 54.154 12.319 159.284-4.083 250.307-290.323 468.674-340.037 8.948-2.038 18.031-3.49 27.226-4.518 88.576-9.891 163.501 26.051 211.487 57.357"/>
                    <path d="M24.467 435.691c84.002-104.849 184-220.99 275.877-223.29 109.74-2.747 152.08 145.02 256.913 153.17 114.315 8.887 202.796-104.776 298.284-145.491 31.677-13.506 64.095-18.817 97.918-12.276 96.933 18.746 139.906 128.002 225.856 163.635 16.817 6.972 34.357 11.778 53.886 11.486 158.702-2.378 249.095-285.206 467.512-335.412 8.89-2.043 17.907-3.514 27.027-4.577 88.241-10.284 162.877 24.04 210.634 54.081"/>
                    <path d="M24.716 430.593c84.85-102.715 184.685-215.705 276.379-218.994 109.655-3.933 154.08 137.333 258.044 144.894 114.745 8.346 203.635-100.282 298.452-138.115 31.605-12.61 63.81-17.19 97.303-10.452 96.124 19.333 139.963 125.343 226.363 159.177 16.811 6.584 34.276 11.107 53.619 10.652 158.073-3.716 247.884-280.086 466.35-330.784 8.831-2.05 17.783-3.539 26.828-4.638 87.906-10.68 162.252 22.028 209.782 50.805"/>
                    <path d="M24.964 425.494c85.698-100.58 185.372-210.42 276.881-214.697 109.57-5.122 156.082 129.638 259.178 136.619 115.174 7.798 204.482-95.78 298.618-130.74 31.535-11.711 63.526-15.56 96.687-8.63 95.315 19.923 140.015 122.694 226.871 154.722 16.805 6.196 34.194 10.433 53.35 9.817 157.446-5.061 246.675-274.962 465.19-326.158 8.773-2.055 17.66-3.562 26.628-4.697 87.572-11.076 161.63 20.017 208.93 47.53"/>
                    <path d="M25.212 420.395c86.546-98.446 186.059-205.135 277.384-210.4 109.483-6.311 158.084 121.937 260.31 128.343 115.604 7.244 205.338-91.265 298.785-123.364 31.47-10.809 63.242-13.933 96.072-6.806 94.506 20.512 140.061 120.053 227.379 150.264 16.796 5.811 34.112 9.76 53.083 8.984C1395.04 361 1483.69 97.58 1702.252 45.884c8.714-2.061 17.534-3.587 26.43-4.757 87.236-11.475 161.004 18.005 208.076 44.254"/>
                    <path d="M25.46 415.297c87.394-96.312 186.745-199.853 277.886-206.103 109.398-7.503 160.087 114.228 261.442 120.066 116.037 6.683 206.204-86.74 298.953-115.987 31.406-9.904 62.957-12.305 95.458-4.985 93.695 21.104 140.101 117.424 227.885 145.808 16.788 5.428 34.03 9.085 52.815 8.15 156.189-7.776 244.257-264.706 462.865-316.905 8.657-2.068 17.412-3.612 26.23-4.817 86.903-11.876 160.382 15.994 207.225 40.978"/>
                    <path d="M25.708 410.198c88.243-94.177 187.432-194.571 278.389-201.806 109.311-8.695 162.089 106.515 262.574 111.79 116.468 6.115 207.076-82.201 299.12-108.611 31.345-8.994 62.672-10.675 94.842-3.161 92.885 21.695 140.14 114.803 228.394 141.35 16.777 5.048 33.948 8.41 52.547 7.317 155.56-9.146 243.048-259.574 461.703-312.28 8.599-2.072 17.287-3.636 26.03-4.876 86.568-12.279 159.758 13.982 206.373 37.702"/>
                    <path d="M25.956 405.1c89.09-92.043 188.118-189.291 278.891-197.51 109.226-9.89 164.093 98.794 263.707 103.515 116.9 5.539 207.956-77.65 299.287-101.236 31.286-8.08 62.387-9.046 94.227-1.338 92.075 22.289 140.173 112.193 228.901 136.894 16.767 4.668 33.867 7.733 52.28 6.482 154.932-10.524 241.841-254.437 460.54-307.653 8.541-2.078 17.164-3.661 25.833-4.936 86.231-12.683 159.133 11.97 205.519 34.427"/>
                    <path d="M26.204 400c89.939-89.907 188.804-184.01 279.394-193.212 109.14-11.085 166.096 91.067 264.839 95.239 117.333 4.956 208.841-73.083 299.454-93.86 31.23-7.16 62.102-7.416 93.612.485 91.265 22.883 140.204 109.594 229.409 132.437 16.755 4.291 33.784 7.055 52.011 5.648 154.304-11.91 240.636-249.297 459.38-303.026 8.482-2.083 17.039-3.687 25.633-4.997 85.895-13.09 158.508 9.96 204.666 31.152"/>
                    <path d="M26.453 394.902c90.786-87.774 189.49-178.733 279.896-188.915 109.052-12.282 168.1 83.334 265.971 86.962 117.765 4.366 209.731-68.502 299.621-86.484 31.174-6.236 61.817-5.785 92.997 2.308 90.454 23.48 140.231 107.008 229.916 127.98 16.745 3.916 33.703 6.377 51.744 4.815 153.675-13.305 239.43-244.156 458.218-298.4 8.424-2.09 16.915-3.713 25.433-5.056 85.56-13.5 157.885 7.947 203.814 27.876"/>
                    <path d="M26.7 389.804c91.636-85.64 190.177-173.457 280.399-184.619 108.966-13.48 170.103 75.595 267.104 78.686 118.198 3.768 210.625-63.904 299.789-79.108 31.12-5.306 61.532-4.154 92.38 4.13 89.644 24.077 140.258 104.433 230.425 123.525 16.732 3.543 33.62 5.696 51.475 3.98 153.045-14.709 238.226-239.009 457.057-293.774 8.366-2.093 16.79-3.737 25.233-5.115 85.224-13.912 157.262 5.936 202.962 24.6"/>
                    <path d="M26.949 384.705c92.483-83.505 190.861-168.181 280.9-180.322 108.88-14.68 172.108 67.849 268.237 70.41 118.631 3.162 211.522-59.29 299.956-71.732 31.067-4.371 61.246-2.523 91.766 5.954 88.83 24.675 140.283 101.87 230.931 119.067 16.72 3.173 33.538 5.016 51.208 3.147 152.413-16.123 237.022-233.86 455.895-289.148 8.308-2.098 16.666-3.764 25.034-5.176 84.887-14.324 156.638 3.925 202.11 21.325"/>
                    <path d="M27.197 379.606C120.528 298.236 218.744 216.7 308.6 203.581c108.792-15.882 174.111 60.098 269.369 62.135 119.063 2.546 212.419-54.659 300.123-64.356 31.014-3.43 60.96-.892 91.15 7.776 88.02 25.274 140.309 99.318 231.44 114.61 16.708 2.804 33.455 4.334 50.94 2.313 151.78-17.545 235.819-228.706 454.732-284.52 8.25-2.104 16.543-3.79 24.836-5.237 84.549-14.74 156.014 1.914 201.256 18.05"/>
                    <path d="M27.445 374.508c94.18-79.236 192.231-157.634 281.906-171.729 108.703-17.085 176.114 52.34 270.5 53.859 119.497 1.922 213.317-50.01 300.291-56.98 30.961-2.482 60.675.74 90.535 9.6 87.208 25.874 140.334 96.779 231.947 110.153 16.696 2.438 33.373 3.65 50.672 1.478 151.146-18.977 234.618-223.549 453.572-279.894 8.192-2.108 16.417-3.816 24.635-5.296 84.212-15.159 155.39-.098 200.405 14.774"/>
                    <path d="M27.693 369.41c95.028-77.102 192.916-152.363 282.409-167.432 108.614-18.29 178.118 46.732 271.632 45.582 119.927-1.474 214.211-45.343 300.458-49.604 30.908-1.527 60.39 2.373 89.92 11.422 86.395 26.477 140.36 94.254 232.455 105.697 16.684 2.074 33.29 2.967 50.404.645 150.51-20.42 233.417-218.389 452.41-275.268 8.134-2.113 16.292-3.843 24.436-5.356 83.873-15.58 154.766-2.11 199.552 11.498"/>
                    <path d="M27.941 364.31c95.876-74.966 193.6-147.09 282.91-163.134 108.527-19.495 180.132 38.844 272.766 37.306 120.346-1.997 215.126-44.78 300.625-42.228 30.845.92 60.104 4.005 89.304 13.245 85.582 27.08 140.39 91.74 232.963 101.241 16.674 1.71 33.207 2.281 50.136-.19 149.87-21.871 232.218-213.224 451.248-270.642 8.077-2.117 16.17-3.87 24.238-5.415 83.534-16.003 154.142-4.12 198.699 8.222"/>
                    <path d="M28.19 359.212c96.724-72.833 194.25-141.999 283.412-158.838 108.396-20.918 182.142 30.939 273.898 29.03 120.765-2.51 216.126-39.834 300.792-34.852 30.746 1.809 59.818 5.639 88.69 15.069 84.767 27.684 140.42 89.238 233.47 96.783 16.662 1.351 33.123 1.595 49.868-1.023 149.228-23.334 231.02-208.056 450.087-266.016 8.018-2.121 16.044-3.897 24.037-5.475 83.195-16.428 153.518-6.132 197.847 4.947"/>
                    <path d="M28.438 354.113c97.572-70.698 194.933-136.717 283.915-154.54 108.307-22.111 184.15 23.016 275.03 20.754 121.186-3.016 216.865-31.242 300.96-27.477 30.736 1.376 59.53 7.273 88.074 16.891 83.953 28.291 140.455 86.75 233.977 92.328 16.653.993 33.04.907 49.6-1.858 148.584-24.807 229.823-202.884 448.925-261.389 7.961-2.126 15.92-3.924 23.839-5.535 82.854-16.857 152.894-8.144 196.994 1.671"/>
                    <path d="M28.686 349.015c98.42-68.564 195.617-131.435 284.417-150.244 108.217-23.304 186.124 13.464 276.163 12.478 121.65-1.332 217.733-26.508 301.127-20.1 30.674 2.356 59.225 8.961 87.458 18.714 83.082 29.06 140.495 84.273 234.486 87.87 16.643.637 32.955.219 49.332-2.692 147.934-26.29 228.627-197.708 447.763-256.762 7.903-2.13 15.795-3.952 23.64-5.595 82.512-17.288 152.27-10.156 196.141-1.604"/>
                    <path d="M28.934 343.916c99.269-66.429 196.301-126.153 284.92-145.947 108.128-24.496 188.123 5.672 277.295 4.202 122.078-2.011 218.59-21.76 301.293-12.725 30.608 3.344 58.94 10.592 86.844 20.538 82.27 29.653 140.54 81.808 234.993 83.413 16.635.283 32.871-.47 49.064-3.525 147.282-27.786 227.548-192.106 446.602-252.137 7.85-2.118 15.67-3.979 23.44-5.654 82.17-17.722 151.646-12.168 195.289-4.88"/>
                    <path d="M29.182 338.817c100.117-64.294 196.985-120.871 285.423-141.65 108.038-25.69 190.12-2.125 278.427-4.074 122.505-2.702 219.434-16.997 301.46-5.348 30.537 4.336 58.655 12.22 86.229 22.36 81.457 30.247 140.604 77.22 235.5 78.957 16.626.304 32.786-1.161 48.797-4.36 146.624-29.292 226.342-186.969 445.44-247.51 7.791-2.124 15.545-4.007 23.24-5.715 81.828-18.157 151.023-14.178 194.437-8.155"/>
                    <path d="M29.43 333.719c100.966-62.16 197.669-115.59 285.925-137.354 107.95-26.882 192.12-9.928 279.56-12.35 122.93-3.403 220.265-12.222 301.628 2.028 30.46 5.334 58.369 13.85 85.613 24.183 80.645 30.84 140.645 76.913 236.008 74.5 16.622-.42 32.7-1.852 48.529-5.194C1412.655 248.724 1491.829 97.7 1710.97 36.65c7.733-2.13 15.42-4.036 23.041-5.775 81.484-18.596 150.399-16.19 193.584-11.43"/>
                    <path d="M29.679 328.62C131.49 268.595 228.03 218.312 316.106 195.564c107.86-28.075 194.115-17.738 280.691-20.626 123.355-4.116 221.082-7.437 301.796 9.403 30.379 6.338 58.084 15.48 84.998 26.006 79.832 31.435 140.707 74.482 236.516 70.043 16.617-.77 32.614-2.544 48.26-6.027 145.295-32.337 223.932-176.695 443.117-238.257 7.675-2.135 15.295-4.064 22.842-5.835 81.139-19.038 149.774-18.201 192.732-14.706"/>
                    <path d="M29.927 323.521c102.661-57.89 199.036-105.025 286.93-128.76 107.77-29.267 196.11-25.55 281.823-28.9 123.777-4.84 221.882-2.643 301.963 16.778 30.292 7.346 57.798 17.11 84.382 27.829 79.021 32.029 140.779 72.062 237.024 65.587 16.614-1.118 32.527-3.239 47.993-6.861 144.62-33.878 222.726-171.56 441.955-233.631 7.617-2.141 15.167-4.105 22.642-5.895 80.76-19.617 149.151-20.213 191.88-17.982"/>
                    <path d="M30.175 318.423c103.51-55.757 199.72-99.744 287.432-124.463 107.682-30.46 198.103-33.37 282.956-37.178 124.197-5.573 222.664 2.162 302.13 24.155 30.198 8.358 57.513 18.74 83.767 29.652 78.208 32.622 140.856 69.65 237.532 61.13 16.612-1.464 32.44-3.933 47.725-7.695 143.94-35.43 221.52-166.422 440.792-229.005 7.56-2.146 15.044-4.13 22.444-5.954C1815.375 9.042 1883.48 6.84 1925.98 7.807"/>
                    <path d="M30.423 313.324c104.358-53.621 200.403-94.462 287.935-120.165 107.592-31.654 200.088-41.314 284.088-45.454 124.606-6.497 223.429 6.97 302.297 31.53 30.098 9.373 57.227 20.37 83.152 31.475 77.396 33.216 140.942 67.248 238.04 56.673 16.61-1.809 32.345-4.648 47.456-8.529 143.206-37.183 220.315-161.285 439.632-224.378 7.5-2.152 14.918-4.155 22.243-6.014 80.085-20.429 147.904-24.236 190.175-24.533"/>
                    <path d="M30.671 308.225c429.411-210.152 703.48-190.5 876.122-130.692 119.73 41.478 190.986 102.376 321.083 85.515 175.286-22.718 243.333-158.853 485.66-229.115 89.3-25.893 165.5-32.18 211.366-33.883"/>
                </g>
            </g>
        </g>
    </g>
</svg>
