<svg xmlns="http://www.w3.org/2000/svg" xmlns:xlink="http://www.w3.org/1999/xlink" width="1920" height="785" viewBox="0 0 1920 785">
    <defs>
        <path id="myhx9l4mga" d="M0 0H1920V785H0z"/>
    </defs>
    <g fill="none" fill-rule="evenodd">
        <g>
            <g transform="translate(0 -4426) translate(0 4426)">
                <mask id="ta61clc5ab" fill="#fff">
                    <use xlink:href="#myhx9l4mga"/>
                </mask>
                <use fill="#1F2123" xlink:href="#myhx9l4mga"/>
                <g stroke="#F1F2F2" stroke-width=".5" mask="url(#ta61clc5ab)" opacity=".199">
                    <g>
                        <path d="M29.626 674.417L811.762 396.679 1734.364 1456.554 2810.201 93.401 2928.32 374.332 3803.036 10.399" transform="translate(-756)"/>
                        <path d="M30.483 673.405L813.398 404.777 1737.168 1434.518 2803.193 108.819 2939.999 371.763 3805.372 29.787" transform="translate(-756)"/>
                        <path d="M31.339 672.393L815.033 412.875 1739.971 1412.483 2796.186 124.236 2951.679 369.194 3807.707 49.175" transform="translate(-756)"/>
                        <path d="M32.196 671.38L816.668 420.972 1742.774 1390.447 2789.177 139.652 2963.358 366.623 3810.044 68.563" transform="translate(-756)"/>
                        <path d="M33.052 670.368L818.303 429.07 1745.577 1368.412 2782.17 155.069 2975.038 364.054 3812.379 87.951" transform="translate(-756)"/>
                        <path d="M33.908 669.356L819.938 437.168 1748.38 1346.377 2775.162 170.486 2986.718 361.485 3814.715 107.339" transform="translate(-756)"/>
                        <path d="M34.765 668.344L821.573 445.266 1751.183 1324.342 2768.155 185.903 2998.397 358.915 3817.051 126.727" transform="translate(-756)"/>
                        <path d="M35.621 667.332L823.208 453.363 1753.986 1302.306 2761.147 201.32 3010.076 356.346 3819.386 146.114" transform="translate(-756)"/>
                        <path d="M36.478 666.319L824.844 461.461 1756.789 1280.271 2754.139 216.736 3021.756 353.776 3821.723 165.502" transform="translate(-756)"/>
                        <path d="M37.334 665.307L826.478 469.559 1759.592 1258.236 2747.131 232.154 3033.435 351.206 3824.058 184.89" transform="translate(-756)"/>
                        <path d="M38.191 664.295L828.114 477.657 1762.395 1236.201 2740.124 247.571 3045.115 348.637 3826.395 204.279" transform="translate(-756)"/>
                        <path d="M39.047 663.283L829.748 485.755 1765.198 1214.165 2733.116 262.988 3056.794 346.068 3828.73 223.667" transform="translate(-756)"/>
                        <path d="M39.904 662.27L831.384 493.853 1768.001 1192.13 2726.109 278.404 3068.473 343.498 3831.067 243.054" transform="translate(-756)"/>
                        <path d="M40.76 661.258L833.019 501.95 1770.804 1170.094 2719.101 293.821 3080.153 340.928 3833.402 262.442" transform="translate(-756)"/>
                        <path d="M41.617 660.246L834.654 510.048 1773.607 1148.06 2712.093 309.238 3091.833 338.359 3835.738 281.831" transform="translate(-756)"/>
                        <path d="M42.473 659.234L836.289 518.146 1776.41 1126.024 2705.085 324.656 3103.512 335.79 3838.074 301.219" transform="translate(-756)"/>
                        <path d="M43.33 658.221L837.925 526.243 1779.214 1103.988 2698.078 340.072 3115.192 333.22 3840.41 320.606" transform="translate(-756)"/>
                        <path d="M44.186 657.209L839.559 534.341 1782.016 1081.953 2691.07 355.489 3126.871 330.65 3842.746 339.994" transform="translate(-756)"/>
                        <path d="M45.043 656.197L841.195 542.439 1784.82 1059.918 2684.063 370.906 3138.551 328.081 3845.082 359.382" transform="translate(-756)"/>
                        <path d="M45.899 655.185L842.829 550.537 1787.623 1037.883 2677.055 386.323 3150.23 325.512 3847.417 378.77" transform="translate(-756)"/>
                        <path d="M46.756 654.173L844.465 558.635 1790.426 1015.848 2670.047 401.74 3161.91 322.943 3849.754 398.159" transform="translate(-756)"/>
                        <path d="M47.612 653.16L846.1 566.732 1793.229 993.812 2663.039 417.156 3173.589 320.372 3852.089 417.546" transform="translate(-756)"/>
                        <path d="M48.469 652.148L847.735 574.83 1796.032 971.777 2656.032 432.574 3185.268 317.803 3854.425 436.934" transform="translate(-756)"/>
                        <path d="M49.325 651.136L849.37 582.928 1798.835 949.742 2649.024 447.991 3196.947 315.234 3856.761 456.322" transform="translate(-756)"/>
                        <path d="M50.182 650.124L851.006 591.026 1801.638 927.707 2642.016 463.408 3208.628 312.665 3859.097 475.71" transform="translate(-756)"/>
                        <path d="M51.038 649.112L852.64 599.124 1804.441 905.671 2635.008 478.825 3220.307 310.095 3861.433 495.098" transform="translate(-756)"/>
                        <path d="M51.895 648.099L854.276 607.221 1807.244 883.635 2628.001 494.241 3231.987 307.525 3863.769 514.485" transform="translate(-756)"/>
                        <path d="M52.751 647.087L855.911 615.319 1810.047 861.6 2620.993 509.658 3243.665 304.956 3866.104 533.874" transform="translate(-756)"/>
                        <path d="M53.608 646.075L857.546 623.417 1812.851 839.565 2613.986 525.075 3255.345 302.387 3868.441 553.262" transform="translate(-756)"/>
                        <path d="M54.464 645.063L859.181 631.515 1815.653 817.53 2606.977 540.492 3267.025 299.817 3870.776 572.65" transform="translate(-756)"/>
                        <path d="M55.321 644.05L860.816 639.612 1818.457 795.494 2599.97 555.909 3278.705 297.247 3873.113 592.038" transform="translate(-756)"/>
                        <path d="M56.177 643.038L862.451 647.71 1821.259 773.459 2592.962 571.326 3290.384 294.678 3875.448 611.426" transform="translate(-756)"/>
                        <path d="M57.034 642.026L864.087 655.808 1824.063 751.424 2585.955 586.743 3302.063 292.109 3877.784 630.814" transform="translate(-756)"/>
                        <path d="M57.89 641.014L865.721 663.906 1826.866 729.389 2578.947 602.16 3313.742 289.539 3880.12 650.202" transform="translate(-756)"/>
                        <path d="M58.747 640.001L867.357 672.004 1829.669 707.354 2571.94 617.577 3325.423 286.969 3882.456 669.59" transform="translate(-756)"/>
                        <path d="M59.603 638.989L868.992 680.101 1832.472 685.318 2564.931 632.994 3337.102 284.4 3884.792 688.977" transform="translate(-756)"/>
                        <path d="M60.46 637.977L870.627 688.199 1835.275 663.283 2557.924 648.411 3348.782 281.831 3887.128 708.365" transform="translate(-756)"/>
                        <path d="M61.316 636.965L872.262 696.297 1838.078 641.247 2550.916 663.828 3360.46 279.261 3889.463 727.754" transform="translate(-756)"/>
                        <path d="M62.173 635.953L873.898 704.395 1840.881 619.212 2543.909 679.245 3372.14 276.692 3891.8 747.142" transform="translate(-756)"/>
                        <path d="M63.029 634.94L875.532 712.492 1843.684 597.176 2536.901 694.661 3383.82 274.122 3894.135 766.529" transform="translate(-756)"/>
                        <path d="M63.886 633.928L877.168 720.59 1846.488 575.141 2529.894 710.078 3395.5 271.552 3896.472 785.917" transform="translate(-756)"/>
                        <path d="M64.742 632.916L878.802 728.688 1849.29 553.106 2522.885 725.495 3407.179 268.983 3898.807 805.305" transform="translate(-756)"/>
                        <path d="M63.185 644.44c.234-.467 758.184 65.656 758.184 65.656l47.538 6.899 460.217-68.474 509.053-94.42 270.913 64.38 406.754 106.927 158.363-76.623 513.827-274.226 209.022-99.502 502.219 517.09" transform="translate(-756)"/>
                        <path d="M61.628 655.963c.467-.934 750.323 41.19 750.323 41.19l47.06 8.147 455.663-52.86 512.389-97.344 272.819 59.915 408.92 110.31 159.627-72.144 512.554-282.535 205.952-89.513 512.807 497.858" transform="translate(-756)"/>
                        <path d="M60.07 667.487c.702-1.402 742.462 16.722 742.462 16.722l46.583 9.398 451.109-37.248 515.725-100.268 274.724 55.45 411.088 113.692 160.89-67.664 511.28-290.843 202.88-79.523 523.398 478.625" transform="translate(-756)"/>
                        <path d="M58.513 679.011c.934-1.869 734.601-7.745 734.601-7.745l46.106 10.648 446.553-21.635 519.062-103.193 276.63 50.986 413.254 117.074 162.153-63.185L3166.88 362.81l199.811-69.534 533.986 459.394" transform="translate(-756)"/>
                        <path d="M56.956 690.535c1.168-2.336 726.74-32.212 726.74-32.212l45.629 11.898 441.998-6.022 522.398-106.118 278.535 46.52 415.421 120.457 163.417-58.705 508.734-307.46 196.74-59.543 544.575 440.16" transform="translate(-756)"/>
                        <path d="M55.399 702.059c1.402-2.803 718.879-56.68 718.879-56.68l45.15 13.148 437.444 9.592 525.735-109.043 280.44 42.056 417.589 123.839 164.68-54.226 507.46-315.768 193.67-49.553 555.165 420.928" transform="translate(-756)"/>
                        <path d="M53.841 713.582c1.635-3.27 711.018-81.146 711.018-81.146l44.674 14.397 432.888 25.205 529.072-111.968 282.346 37.591 419.755 127.222 165.943-49.747 506.188-324.076 190.598-39.564 565.754 401.697" transform="translate(-756)"/>
                        <path d="M52.284 725.106c1.87-3.737 703.157-105.613 703.157-105.613l44.197 15.647 428.333 40.818 532.408-114.893 284.252 33.127 421.922 130.604 167.206-45.268 504.914-332.384 187.528-29.574 576.343 382.464" transform="translate(-756)"/>
                        <path d="M50.727 736.63c2.102-4.205 695.296-130.08 695.296-130.08l43.719 16.897 423.779 56.43 535.745-117.817 286.156 28.662 424.089 133.987 168.47-40.79 503.64-340.691 184.458-19.585 586.933 363.232" transform="translate(-756)"/>
                        <path d="M49.17 748.154c2.336-4.672 687.435-154.547 687.435-154.547l43.242 18.146 419.224 72.044 539.08-120.741 288.063 24.196 426.256 137.37 169.733-36.31 502.368-349 181.386-9.595 597.523 344" transform="translate(-756)"/>
                        <path d="M47.612 759.677c2.57-5.139 679.574-179.014 679.574-179.014l42.764 19.396 414.67 87.657 542.417-123.666 289.968 19.731 428.423 140.752 170.996-31.83 501.094-357.308 178.316.395 608.112 324.767" transform="translate(-756)"/>
                        <path d="M46.055 771.201c2.803-5.606 671.713-203.48 671.713-203.48l42.287 20.645 410.114 103.27 545.755-126.59 291.872 15.265 430.59 144.135 172.26-27.35 499.821-365.617 175.245 10.384 618.701 305.535" transform="translate(-756)"/>
                        <path d="M44.498 782.725c3.037-6.073 663.852-227.948 663.852-227.948l41.81 21.896 405.559 118.883 549.09-129.516 293.779 10.802 432.757 147.517 173.523-22.871 498.548-373.925 172.174 20.373 629.29 286.304" transform="translate(-756)"/>
                        <path d="M42.94 794.249c3.27-6.54 655.992-252.416 655.992-252.416l41.332 23.146 401.005 134.496 552.428-132.44 295.683 6.337 434.923 150.9 174.787-18.393 497.275-382.233 169.103 30.363 639.88 267.072" transform="translate(-756)"/>
                        <path d="M41.383 805.773c3.504-7.009 648.13-276.883 648.13-276.883l40.855 24.395 396.45 150.11 555.764-135.365 297.59 1.872 437.09 154.281 176.05-13.912 496-390.541 166.033 40.353 650.47 247.839" transform="translate(-756)"/>
                        <path d="M39.826 817.296c3.737-7.475 640.27-301.349 640.27-301.349l40.377 25.645 391.895 165.723 559.1-138.29 299.494-2.594 439.258 157.665 177.313-9.433 494.728-398.85 162.962 50.343 661.06 228.607" transform="translate(-756)"/>
                        <path d="M38.269 828.82c3.97-7.942 632.408-325.816 632.408-325.816l39.9 26.895 387.34 181.336 562.438-141.215 301.399-7.058 441.424 161.047 178.577-4.954 493.455-407.158 159.89 60.333 671.65 209.374" transform="translate(-756)"/>
                        <path d="M36.712 840.344c4.204-8.41 624.547-350.283 624.547-350.283l39.423 28.144 382.784 196.949 565.775-144.14 303.304-11.522 443.591 164.43 179.84-.475 492.182-415.466 156.82 70.322 682.238 190.142" transform="translate(-756)"/>
                        <path d="M35.154 851.867c4.438-8.876 616.686-374.75 616.686-374.75l38.945 29.394 378.231 212.562 569.11-147.064 305.21-15.988 445.76 167.813 181.102 4.004 490.908-423.774 153.75 80.312 692.828 170.91" transform="translate(-756)"/>
                        <path d="M33.597 863.391c4.672-9.344 608.824-399.217 608.824-399.217l38.469 30.644 373.676 228.175 572.447-149.989 307.115-20.453 447.926 171.196 182.366 8.483 489.635-432.082 150.679 90.302 703.417 151.677" transform="translate(-756)"/>
                        <path d="M32.04 874.915c4.905-9.811 600.963-423.684 600.963-423.684l37.992 31.894 369.12 243.788L1615.9 573.999l309.02-24.917 450.093 174.577 183.63 12.963 488.362-440.39 147.608 100.291 714.006 132.445" transform="translate(-756)"/>
                        <path d="M30.483 886.439c5.138-10.278 593.102-448.151 593.102-448.151l37.513 33.143 364.568 259.402 579.12-155.84 310.925-29.381 452.26 177.96 184.892 17.442 487.089-448.698 144.537 110.28 724.597 113.214" transform="translate(-756)"/>
                        <path d="M28.925 897.962c5.373-10.745 585.241-472.618 585.241-472.618l37.037 34.393 360.012 275.015 582.456-158.763 312.832-33.848 454.425 181.343 186.157 21.922L3032.9 288.4l141.467 120.27 735.185 93.981" transform="translate(-756)"/>
                        <path d="M27.368 909.486c5.606-11.212 577.38-497.085 577.38-497.085l36.56 35.643 355.456 290.627 585.793-161.687 314.737-38.313 456.593 184.726 187.42 26.401 484.542-465.316 138.396 130.261 745.775 74.748" transform="translate(-756)"/>
                        <path d="M25.81 921.01c5.84-11.679 569.52-521.552 569.52-521.552l36.082 36.893 350.902 306.24 589.13-164.612 316.642-42.778 458.76 188.109 188.683 30.88 483.269-473.624 135.325 140.25 756.364 55.517" transform="translate(-756)"/>
                        <path d="M24.253 932.534c6.073-12.146 561.658-546.02 561.658-546.02l35.605 38.144L967.863 746.51l592.466-167.537 318.548-47.242 460.926 191.49 189.947 35.36 481.995-481.932L3144 426.89l766.954 36.284" transform="translate(-756)"/>
                        <path d="M22.696 944.058c6.307-12.614 553.797-570.487 553.797-570.487l35.128 39.393L953.413 750.43l595.802-170.462 320.453-51.707 463.094 194.873 191.21 39.839 480.722-490.24 129.185 160.23 777.542 17.052" transform="translate(-756)"/>
                        <path d="M21.139 955.581c6.54-13.08 545.936-594.953 545.936-594.953l34.65 40.642 337.238 353.08 599.139-173.387 322.358-56.172 465.26 198.256 192.473 44.318 479.45-498.548 126.113 170.22 788.133-2.18" transform="translate(-756)"/>
                        <path d="M19.582 967.105c6.774-13.548 538.075-619.42 538.075-619.42l34.173 41.892L924.513 758.27l602.475-176.312 324.264-60.637 467.427 201.639 193.737 48.797 478.176-506.856 123.043 180.209 798.72-21.413" transform="translate(-756)"/>
                        <path d="M18.024 978.629c7.008-14.015 530.214-643.887 530.214-643.887l33.695 43.14L910.061 762.19l605.813-179.237 326.17-65.102 469.593 205.02 195 53.278 476.902-515.164 119.973 190.198 809.31-40.644" transform="translate(-756)"/>
                        <path d="M16.467 990.153C23.708 975.67 538.82 321.798 538.82 321.798l33.218 44.392 323.573 399.919 609.15-182.161 328.073-69.567 471.762 208.404 196.263 57.756 475.63-523.473 116.901 200.189 819.9-59.877" transform="translate(-756)"/>
                        <path d="M14.91 1001.676c7.475-14.95 514.492-692.82 514.492-692.82l32.74 45.64 319.019 415.532 612.485-185.085 329.98-74.032 473.928 211.786 197.526 62.236 474.357-531.78 113.83 210.177 830.49-79.11" transform="translate(-756)"/>
                        <path d="M13.353 1013.2c7.708-15.417 506.63-717.289 506.63-717.289l32.264 46.892L866.71 773.948l615.822-188.01 331.885-78.497 476.095 215.17 198.789 66.713 473.083-540.089 110.76 220.168 841.08-98.34" transform="translate(-756)"/>
                        <path d="M11.795 1024.724c7.942-15.884 498.77-741.756 498.77-741.756l31.786 48.141 309.91 446.76 619.157-190.936 333.791-82.962 478.262 218.552 200.053 71.193 471.81-548.397 107.69 230.157 851.667-117.573" transform="translate(-756)"/>
                        <path d="M10.238 1036.248c8.176-16.351 490.909-766.222 490.909-766.222l31.309 49.39L837.81 781.788l622.494-193.86L1796 500.502l480.429 221.934 201.316 75.673 470.537-556.706 104.619 240.147 862.258-136.806" transform="translate(-756)"/>
                        <path d="M8.68 1047.772c8.41-16.818 483.049-790.69 483.049-790.69l30.83 50.64 300.8 477.986 625.832-196.785 337.6-91.892 482.597 225.316 202.579 80.154 469.264-565.014 101.548 250.136 872.847-156.037" transform="translate(-756)"/>
                        <path d="M7.123 1059.295c8.643-17.286 475.188-815.157 475.188-815.157l30.353 51.891L808.91 789.626l629.167-199.709 339.507-96.356 484.764 228.7 203.841 84.631 467.99-573.322 98.479 260.126 883.436-175.27" transform="translate(-756)"/>
                        <path d="M5.566 1070.819c8.876-17.753 467.326-839.624 467.326-839.624l29.877 53.14 291.69 509.212 632.503-202.634 341.413-100.822 486.93 232.082 205.105 89.11 466.717-581.63 95.407 270.117 894.026-194.503" transform="translate(-756)"/>
                        <path d="M4.009 1082.343c9.11-18.22 459.465-864.091 459.465-864.091l29.399 54.39 287.135 524.824 635.841-205.558 343.317-105.287 489.097 235.465 206.369 93.59 465.444-589.938 92.336 280.105 904.615-213.734" transform="translate(-756)"/>
                        <path d="M2.452 1093.867c9.344-18.687 451.604-888.558 451.604-888.558l28.922 55.64 282.58 540.437 639.177-208.483 345.223-109.752 491.264 238.847 207.632 98.07 464.17-598.247 89.266 290.096 915.205-232.967" transform="translate(-756)"/>
                        <path d="M.894 1105.39c9.577-19.154 443.743-913.025 443.743-913.025l306.47 612.94 989.642-325.624 702.326 344.778 462.897-606.554 86.195 300.085 925.794-252.199" transform="translate(-756)"/>
                        <path d="M1.556 1105.196c9.446-18.687 441.4-892.227 450.804-893.885 4.026-.708 307.234 596.539 311.066 595.862 7.711-1.361 744.3-242.782 744.3-242.782l239.608-76.977 699.141 337.523L2619.14 605.72l291.35-376.542 88.881 289.893 917.93-254.877" transform="translate(-756)"/>
                        <path d="M2.218 1105.001c9.314-18.22 439.058-871.429 457.866-874.746 8.051-1.415 307.997 580.139 315.662 578.786 15.422-2.722 739.92-239.226 739.92-239.226l238.254-74.669 695.956 330.269 173.521-213.308 291.61-371.654 91.566 279.701 910.065-257.556" transform="translate(-756)"/>
                        <path d="M2.88 1104.806c9.183-17.753 436.715-850.63 464.928-855.607 12.076-2.122 308.76 563.74 320.258 561.71 23.133-4.083 735.54-235.67 735.54-235.67l236.9-72.36 692.77 323.013 174.379-207.399 291.868-366.766 94.253 269.51 902.2-260.235" transform="translate(-756)"/>
                        <path d="M3.542 1104.612c9.05-17.286 434.372-829.833 471.99-836.461 16.1-2.836 309.524 547.332 324.854 544.626 30.844-5.444 731.16-232.113 731.16-232.113l235.546-70.053 689.585 315.759 175.236-201.49 292.127-361.878 96.939 259.316 894.336-262.912" transform="translate(-756)"/>
                        <path d="M4.204 1104.417c8.919-16.818 432.03-809.035 479.05-817.319 20.128-3.546 310.289 530.929 329.452 527.546 38.554-6.804 726.782-228.556 726.782-228.556l234.19-67.745 686.399 308.504 176.094-195.581 292.386-356.99L3028.18 523.4l886.472-265.59" transform="translate(-756)"/>
                        <path d="M4.865 1104.222c8.788-16.35 429.687-788.237 486.113-798.178 24.151-4.255 311.051 514.527 334.047 510.468 46.265-8.166 722.402-225 722.402-225l232.835-65.436 683.214 301.25 176.952-189.674 292.645-352.102 102.31 238.932 878.607-268.269" transform="translate(-756)"/>
                        <path d="M5.527 1104.028c8.656-15.884 427.345-767.44 493.175-779.038 28.177-4.963 311.815 498.125 338.643 493.39 53.976-9.527 718.023-221.444 718.023-221.444l231.48-63.128 680.028 293.995 177.81-183.764 292.904-347.215 104.996 228.74 870.743-270.947" transform="translate(-756)"/>
                        <path d="M6.19 1103.833c8.524-15.417 425.001-746.642 500.236-759.896 32.201-5.674 312.578 481.723 343.24 476.311 61.686-10.888 713.643-217.887 713.643-217.887l230.125-60.82 676.843 286.739 178.667-177.855 293.163-342.327 107.682 218.548 862.878-273.625" transform="translate(-756)"/>
                        <path d="M6.851 1103.638c8.393-14.95 422.659-725.844 507.298-740.755 36.227-6.382 313.342 465.321 347.836 459.233 69.397-12.249 709.265-214.33 709.265-214.33l228.77-58.513 673.657 279.484 179.525-171.946 293.421-337.439 110.369 208.357 855.013-276.304" transform="translate(-756)"/>
                        <path d="M7.513 1103.444c8.262-14.483 420.317-705.046 514.36-721.614 40.252-7.092 314.105 448.918 352.432 442.154 77.108-13.61 704.885-210.775 704.885-210.775l227.415-56.203 670.472 272.229 180.383-166.038 293.68-332.55 113.055 198.164 847.149-278.982" transform="translate(-756)"/>
                        <path d="M8.175 1103.25c8.13-14.017 417.974-684.249 521.422-702.474 44.277-7.8 314.869 432.516 357.027 425.075 84.82-14.97 700.507-207.218 700.507-207.218l226.06-53.895 667.287 264.975 181.24-160.129 293.94-327.663 115.739 187.972 839.285-281.66" transform="translate(-756)"/>
                        <path d="M8.836 1103.054c8-13.548 415.632-663.45 528.485-683.332 48.301-8.51 315.631 416.114 361.622 407.997 92.532-16.332 696.129-203.66 696.129-203.66l224.705-51.589 664.1 257.72 182.099-154.22 294.197-322.775 118.427 177.78 831.42-284.339" transform="translate(-756)"/>
                        <path d="M9.498 1102.86c7.867-13.081 413.29-642.652 535.545-664.191 52.328-9.22 316.396 399.712 366.22 390.918 100.241-17.692 691.748-200.105 691.748-200.105l223.351-49.28 660.915 250.466 182.955-148.312 294.458-317.887 121.112 167.588 823.556-287.017" transform="translate(-756)"/>
                        <path d="M10.16 1102.665c7.736-12.614 410.947-621.854 542.607-645.05 56.353-9.928 317.16 383.31 370.816 373.84 107.952-19.054 687.37-196.549 687.37-196.549l221.994-46.97 657.73 243.21 183.813-142.404 294.717-312.999 123.798 157.396 815.691-289.695" transform="translate(-756)"/>
                        <path d="M10.822 1102.47c7.604-12.146 408.604-601.056 549.669-625.909 60.378-10.637 317.923 366.908 375.412 356.762 115.663-20.415 682.99-192.993 682.99-192.993l220.64-44.663 654.545 235.956 184.67-136.495 294.976-308.11 126.484 147.203 807.826-292.374" transform="translate(-756)"/>
                        <path d="M11.484 1102.276c7.472-11.68 406.26-580.26 556.73-606.768C632.618 484.16 886.9 846.014 948.223 835.19c123.374-21.776 678.61-189.436 678.61-189.436L1846.12 603.4l651.359 228.7 185.528-130.585 295.235-303.223 129.17 137.01 799.96-295.05" transform="translate(-756)"/>
                        <path d="M12.146 1102.081c7.34-11.212 403.919-559.46 563.792-587.627 68.429-12.055 319.45 334.104 384.605 322.604 131.085-23.136 674.23-185.879 674.23-185.879l217.932-40.047 648.173 221.446 186.386-124.677 295.494-298.335 131.855 126.82 792.098-297.73" transform="translate(-756)"/>
                        <path d="M12.807 1101.886c7.21-10.745 401.577-538.663 570.855-568.486 72.453-12.764 320.213 317.702 389.2 305.526 138.796-24.498 669.853-182.323 669.853-182.323l216.575-37.739 644.988 214.191 187.244-118.768 295.753-293.447 134.541 116.627L3906.05 237.06" transform="translate(-756)"/>
                        <path d="M13.47 1101.692c7.077-10.278 399.233-517.865 577.915-549.345 76.48-13.474 320.977 301.3 393.797 288.447 146.506-25.858 665.473-178.766 665.473-178.766l215.22-35.431 641.803 206.936 188.101-112.86 296.012-288.56 137.227 106.437 776.37-303.087" transform="translate(-756)"/>
                        <path d="M14.131 1101.497c6.946-9.81 396.891-497.067 584.977-530.204 80.505-14.183 321.741 284.898 398.393 271.37 154.218-27.22 661.095-175.21 661.095-175.21l213.865-33.124 638.617 199.681 188.96-106.95 296.27-283.672 139.913 96.244 768.504-305.765" transform="translate(-756)"/>
                        <path d="M14.793 1101.302c6.815-9.343 394.548-476.269 592.039-511.063 84.53-14.892 322.504 268.496 402.989 254.291 161.929-28.58 656.715-171.654 656.715-171.654l212.511-30.814 635.432 192.426 189.816-101.042 296.53-278.784 142.599 86.052 760.639-308.444" transform="translate(-756)"/>
                        <path d="M15.455 1101.108c6.683-8.876 392.206-455.471 599.1-491.922 88.556-15.601 323.269 252.094 407.586 237.212C1191.78 816.456 1674.477 678.3 1674.477 678.3l211.155-28.507 632.247 185.172 190.674-95.133 296.789-273.896 145.285 75.859 752.775-311.122" transform="translate(-756)"/>
                        <path d="M16.117 1100.913c6.552-8.409 389.863-434.673 606.162-472.78 92.58-16.31 324.032 235.691 412.182 220.132 177.35-31.302 647.957-164.54 647.957-164.54l209.8-26.198 629.06 177.916 191.533-89.224 297.047-269.008 147.972 65.667 744.91-313.8" transform="translate(-756)"/>
                        <path d="M16.779 1100.718c6.42-7.942 387.52-413.876 613.224-453.639 96.606-17.02 324.794 219.29 416.778 203.054 185.06-32.663 643.577-160.984 643.577-160.984l208.446-23.89 625.874 170.661 192.39-83.315 297.306-264.12 150.658 55.475 737.045-316.478" transform="translate(-756)"/>
                        <path d="M17.44 1100.524c6.288-7.475 385.178-393.078 620.286-434.499 100.631-17.728 325.56 202.888 421.374 185.976 192.772-34.024 639.198-157.427 639.198-157.427l207.091-21.582 622.69 163.406 193.247-77.407 297.566-259.231 153.342 45.282 729.182-319.156" transform="translate(-756)"/>
                        <path d="M18.102 1100.33c6.157-7.009 382.835-372.28 627.348-415.358 104.656-18.438 326.322 186.485 425.97 168.897C1271.902 818.484 1706.24 700 1706.24 700l205.735-19.275 619.504 156.152 194.105-71.498 297.824-254.344 156.03 35.09 721.316-321.835" transform="translate(-756)"/>
                        <path d="M18.764 1100.134c6.025-6.54 380.493-351.482 634.409-396.216 108.682-19.147 327.086 170.083 430.567 151.82 208.193-36.748 630.44-150.316 630.44-150.316l204.38-16.966 616.319 148.897 194.963-65.589 298.083-249.456 158.715 24.898 713.452-324.513" transform="translate(-756)"/>
                        <path d="M19.426 1099.94c5.894-6.073 378.15-330.684 641.47-377.075 112.708-19.857 327.85 153.68 435.164 134.74 215.904-38.108 626.06-146.759 626.06-146.759l203.026-14.657 613.134 141.642 195.82-59.681 298.342-244.568 161.4 14.707 705.589-327.192" transform="translate(-756)"/>
                        <path d="M20.088 1099.745c5.762-5.606 375.808-309.886 648.533-357.934 116.732-20.566 328.613 137.28 439.759 117.661 223.615-39.468 621.68-143.2 621.68-143.2l201.672-12.35 609.948 134.386 196.678-53.772 298.6-239.68 164.088 4.514 697.723-329.869" transform="translate(-756)"/>
                        <path d="M20.75 1099.55c5.63-5.139 373.464-289.088 655.595-338.793C797.1 739.482 1005.72 881.634 1120.697 861.34c231.326-40.829 617.303-139.645 617.303-139.645l200.317-10.04 606.761 127.131 197.535-47.863 298.861-234.793 166.774-5.678 689.858-332.548" transform="translate(-756)"/>
                        <path d="M21.411 1099.356c5.5-4.672 371.122-268.291 662.656-319.652 124.783-21.984 330.14 104.474 448.951 83.504 239.037-42.19 612.924-136.089 612.924-136.089l198.96-7.733 603.577 119.877 198.393-41.954 299.12-229.904 169.458-15.87 681.994-335.226" transform="translate(-756)"/>
                        <path d="M22.073 1099.161c5.368-4.205 368.78-247.492 669.718-300.51 128.808-22.694 330.903 88.071 453.547 66.425 246.748-43.55 608.544-132.533 608.544-132.533l197.606-5.424 600.392 112.622 199.25-36.046 299.38-225.016 172.143-26.062 674.13-337.905" transform="translate(-756)"/>
                        <path d="M22.735 1098.967c5.236-3.738 366.437-226.695 676.78-281.37 132.832-23.402 331.667 71.67 458.143 49.347 254.459-44.912 604.165-128.976 604.165-128.976l196.251-3.117 597.206 105.368 200.108-30.137 299.638-220.13 174.83-36.253 666.265-340.583" transform="translate(-756)"/>
                        <path d="M23.397 1098.772c5.105-3.271 364.095-205.897 683.84-262.229 136.859-24.111 332.432 55.268 462.74 32.269 262.17-46.273 599.787-125.42 599.787-125.42l194.895-.808 594.02 98.112 200.967-24.228 299.897-215.241 177.516-46.446 658.4-343.261" transform="translate(-756)"/>
                        <path d="M24.059 1098.577c4.973-2.803 361.752-185.099 690.903-243.088 140.883-24.82 333.194 38.866 467.336 15.19 269.88-47.634 595.407-121.863 595.407-121.863l193.54 1.5 590.836 90.857 201.823-18.319 300.156-210.353 180.202-56.638 650.536-345.939" transform="translate(-756)"/>
                        <path d="M24.72 1098.383c4.841-2.336 359.41-164.301 697.966-223.947 144.907-25.53 333.957 22.464 471.932-1.89 277.59-48.994 591.027-118.305 591.027-118.305l192.186 3.808 587.65 83.602 202.68-12.41 300.414-205.465 182.89-66.83 642.67-348.618" transform="translate(-756)"/>
                        <path d="M25.382 1098.188c4.71-1.869 357.067-143.503 705.027-204.806 148.933-26.239 334.721 6.062 476.528-18.967 285.302-50.356 586.648-114.75 586.648-114.75l190.831 6.116 584.464 76.348 203.54-6.502 300.672-200.577 185.575-77.023 634.807-351.296" transform="translate(-756)"/>
                        <path d="M26.044 1097.993c4.578-1.4 354.724-122.705 712.088-185.665 152.96-26.948 335.485-10.34 481.125-36.045 293.012-51.717 582.27-111.194 582.27-111.194l189.475 8.424 581.28 69.093 204.395-.593 300.932-195.689 188.26-87.215 626.943-353.974" transform="translate(-756)"/>
                        <path d="M26.706 1097.799c4.447-.935 352.382-101.908 719.15-166.524 156.984-27.657 336.248-26.742 485.721-53.124 300.723-53.078 577.889-107.637 577.889-107.637l188.121 10.732 578.094 61.838 205.254 5.316 301.191-190.802 190.946-97.406 619.078-356.653" transform="translate(-756)"/>
                        <path d="M27.368 1097.604c4.315-.467 350.039-81.109 726.212-147.383 161.009-28.366 337.012-43.144 490.317-70.202 308.434-54.439 573.51-104.081 573.51-104.081l186.766 13.04 574.908 54.583 206.112 11.225 301.45-185.914 193.632-107.598 611.213-359.331" transform="translate(-756)"/>
                        <path d="M28.03 1097.41c9.577 0 1797.318-316.048 1797.318-316.048l964.103 79.81 1101.376-660.826" transform="translate(-756)"/>
                        <path d="M28.108 1102.276c4.34 0 395.572-90.96 799.79-162.2 52.174-9.194 108.123-14.108 160.404-23.328 140.001-24.69 290.545-54.443 411.54-75.807 237.481-41.932 416.134-65.956 419.893-61.548 1.934 2.266 153.337 16.368 153.364 16.288.078-.233 701.503 36.179 701.503 36.179l102.715 11.092 198.619-110.14 527.735-312.031L3890.75 198.05" transform="translate(-756)"/>
                        <path d="M28.185 1107.142c4.231 0 398.692-113.745 792.806-183.204 50.87-8.965 108.851-9.287 159.823-18.276 136.503-24.073 296.45-58.669 414.422-79.5 231.544-40.883 411.37-57.554 418.887-48.739 3.866 4.533 152.994 20.014 153.047 19.856.155-.468 695.697 13.805 695.697 13.805l102.315 13.647 198.51-101.04 534.255-311.334 392.723-216.604" transform="translate(-756)"/>
                        <path d="M28.263 1112.009c4.123 0 401.812-136.532 785.82-204.21 49.565-8.735 109.58-4.464 159.246-13.223 133.002-23.456 302.354-62.895 417.301-83.191 225.607-39.835 406.604-49.153 417.881-35.931 5.8 6.799 152.651 23.66 152.73 23.422.234-.701 689.892-8.568 689.892-8.568l101.915 16.203 198.4-91.941 540.774-310.637 398.371-210.477" transform="translate(-756)"/>
                        <path d="M28.341 1116.875c4.014 0 404.932-159.318 778.834-225.215 48.26-8.505 110.31.358 158.667-8.171 129.502-22.838 308.26-67.12 420.182-86.882 219.671-38.787 401.84-40.752 416.874-23.123 7.733 9.066 152.31 27.307 152.415 26.989.311-.934 684.086-30.941 684.086-30.941l101.515 18.758 198.29-82.842 547.294-309.939 404.017-204.35" transform="translate(-756)"/>
                        <path d="M28.419 1121.742c3.906 0 408.051-182.104 771.848-246.22 46.956-8.276 111.038 5.179 158.089-3.12 126.002-22.22 314.166-71.345 423.062-90.572 213.734-37.74 397.074-32.352 415.868-10.316 9.666 11.333 151.966 30.954 152.099 30.557.389-1.168 678.28-53.315 678.28-53.315l101.115 21.314 198.18-73.744 553.814-309.24 409.663-198.224" transform="translate(-756)"/>
                        <path d="M28.497 1126.608c3.797 0 411.17-204.89 764.862-267.226 45.652-8.045 111.767 10.002 157.51 1.935 122.503-21.604 320.07-75.572 425.943-94.265 207.797-36.691 392.309-23.951 414.862 2.492 11.599 13.6 151.624 34.6 151.782 34.124.468-1.401 672.475-75.688 672.475-75.688l100.715 23.869 198.07-64.644 560.333-308.544 415.31-192.096" transform="translate(-756)"/>
                        <path d="M28.575 1131.475c3.689 0 414.29-227.677 757.877-288.231 44.347-7.816 112.495 14.824 156.932 6.987 119.002-20.987 325.976-79.798 428.822-97.957 201.86-35.642 387.544-15.55 413.856 15.3 13.533 15.868 151.28 38.247 151.466 37.692.545-1.635 666.67-98.061 666.67-98.061l100.314 26.425 197.96-55.547 566.853-307.845 420.957-185.97" transform="translate(-756)"/>
                        <path d="M28.653 1136.34c3.58 0 417.41-250.462 750.89-309.235 43.044-7.586 113.225 19.646 156.355 12.039 115.502-20.37 331.88-84.023 431.702-101.648 195.923-34.594 382.779-7.15 412.85 28.109 15.466 18.133 150.938 41.893 151.15 41.258.623-1.87 660.864-120.435 660.864-120.435l99.914 28.98 197.85-46.447L3463.6 361.814l426.603-179.843" transform="translate(-756)"/>
                        <path d="M28.73 1141.208c3.473 0 420.53-273.25 743.905-330.242 41.74-7.356 113.953 24.468 155.777 17.092 112.002-19.752 337.784-88.248 434.582-105.34 189.986-33.545 378.014 1.253 411.844 40.918 17.399 20.4 150.594 45.539 150.832 44.825.701-2.103 655.06-142.808 655.06-142.808l99.514 31.536 197.74-37.35 579.892-306.45 432.25-173.715" transform="translate(-756)"/>
                        <path d="M28.808 1146.074c3.363 0 423.65-296.036 736.92-351.247 40.434-7.126 114.681 29.29 155.197 22.145 108.502-19.135 343.69-92.474 437.462-109.032 184.05-32.497 373.25 9.654 410.838 53.726 19.332 22.667 150.253 49.185 150.517 48.392.78-2.336 649.253-165.181 649.253-165.181l99.114 34.09 197.63-28.25 586.412-305.751 437.897-167.59" transform="translate(-756)"/>
                        <path d="M28.886 1150.94c3.255 0 426.77-318.822 729.934-372.252 39.13-6.896 115.41 34.113 154.62 27.197 105.001-18.518 349.594-96.7 440.342-112.722 178.111-31.45 368.483 18.053 409.831 66.534 21.265 24.933 149.91 52.83 150.201 51.958.856-2.57 643.447-187.554 643.447-187.554l98.714 36.646 197.52-19.15 592.932-305.055L3889.97 175.08" transform="translate(-756)"/>
                        <path d="M28.964 1155.807c3.146 0 429.89-341.608 722.948-393.257 37.826-6.667 116.14 38.934 154.041 32.249 101.502-17.9 355.5-100.925 443.223-116.414 172.174-30.401 363.718 26.455 408.825 79.342 23.198 27.2 149.567 56.478 149.885 55.526.934-2.803 637.641-209.928 637.641-209.928l98.314 39.202 197.41-10.052 599.452-304.357 449.19-155.335" transform="translate(-756)"/>
                        <path d="M29.042 1160.673c3.038 0 433.009-364.395 715.962-414.263 36.52-6.436 116.868 43.756 153.463 37.302 98.002-17.283 361.405-105.15 446.103-120.105 166.237-29.353 358.953 34.856 407.819 92.15 25.13 29.466 149.224 60.124 149.568 59.092 1.012-3.036 631.836-232.3 631.836-232.3l97.914 41.757 197.3-.953 605.97-303.659 454.837-149.208" transform="translate(-756)"/>
                        <path d="M29.12 1165.54c2.929 0 436.128-387.181 708.976-435.268 35.217-6.207 117.597 48.578 152.885 42.355 94.502-16.666 367.31-109.377 448.983-123.797 160.3-28.304 354.188 43.256 406.813 104.958 27.064 31.733 148.882 63.77 149.252 62.659 1.09-3.27 626.03-254.674 626.03-254.674l97.514 44.314 197.19 8.145 612.49-302.962 460.483-143.081" transform="translate(-756)"/>
                        <path d="M29.198 1170.406c2.82 0 439.248-409.968 701.99-456.274 33.913-5.977 118.326 53.401 152.307 47.408 91.002-16.049 373.215-113.602 451.863-127.489 154.363-27.256 349.423 51.658 405.807 117.766 28.997 34 148.539 67.417 148.936 66.227 1.168-3.504 620.225-277.048 620.225-277.048l97.113 46.87 197.08 17.244 619.01-302.264 466.13-136.954" transform="translate(-756)"/>
                        <path d="M29.276 1175.273c2.712 0 442.368-432.754 695.005-477.28 32.608-5.747 119.054 58.223 151.728 52.46 87.501-15.43 379.12-117.827 454.743-131.18 148.426-26.207 344.659 60.06 404.8 130.575 30.93 36.267 148.197 71.064 148.62 69.793 1.245-3.736 614.42-299.42 614.42-299.42l96.713 49.424 196.97 26.344 625.53-301.567 471.776-130.827" transform="translate(-756)"/>
                        <path d="M29.353 1180.14c2.604 0 445.488-455.54 688.02-498.285 31.303-5.517 119.782 63.044 151.15 57.512 84.001-14.814 385.024-122.053 457.622-134.87 142.49-25.16 339.894 68.458 403.794 143.381 32.864 38.533 147.854 74.71 148.304 73.361 1.324-3.97 608.614-321.794 608.614-321.794l96.313 51.98 196.86 35.441 632.05-300.868 477.422-124.7" transform="translate(-756)"/>
                        <path d="M29.431 1185.005c2.495 0 448.607-478.326 681.033-519.289 30-5.287 120.512 67.866 150.572 62.565 80.502-14.197 390.93-126.279 460.503-138.563 136.552-24.11 335.13 76.86 402.788 156.19 34.797 40.8 147.512 78.356 147.988 76.928 1.401-4.205 602.808-344.167 602.808-344.167l95.913 54.535 196.75 44.541 638.57-300.17L3889.426 159" transform="translate(-756)"/>
                        <path d="M29.51 1189.872c2.386 0 451.726-501.113 674.046-540.295 28.696-5.057 121.241 72.69 149.994 67.618 77.001-13.58 396.835-130.505 463.383-142.255 130.615-23.062 330.364 85.262 401.782 169 36.731 43.065 147.17 82.001 147.671 80.494 1.48-4.438 597.004-366.54 597.004-366.54l95.512 57.09 196.64 53.64 645.09-299.474 488.715-112.446" transform="translate(-756)"/>
                        <path d="M29.587 1194.738c2.278 0 454.847-523.899 667.062-561.3 27.391-4.827 121.969 77.511 149.415 72.67 73.501-12.962 402.74-134.73 466.263-145.946 124.678-22.014 325.599 93.662 400.776 181.807 38.664 45.333 146.826 85.65 147.355 84.062 1.557-4.672 591.198-388.914 591.198-388.914l95.112 59.646 196.531 62.738 651.608-298.775 494.362-106.319" transform="translate(-756)"/>
                        <path d="M29.665 1199.605c2.17 0 457.966-546.686 660.076-582.305 26.086-4.598 122.698 82.332 148.837 77.722 70-12.345 408.645-138.955 469.143-149.637 118.74-20.966 320.834 102.063 399.77 194.615 40.597 47.599 146.483 89.295 147.039 87.629 1.635-4.906 585.392-411.288 585.392-411.288l94.712 62.202 196.42 71.837 658.129-298.077 500.009-100.193" transform="translate(-756)"/>
                        <path d="M29.743 1204.471c2.06 0 461.086-569.47 653.09-603.31 24.782-4.368 123.427 87.154 148.259 82.775 66.5-11.728 414.55-143.182 472.024-153.33 112.803-19.917 316.068 110.465 398.763 207.424 42.53 49.866 146.14 92.941 146.722 91.196 1.713-5.139 579.587-433.66 579.587-433.66l94.312 64.757 196.31 80.935 664.649-297.38 505.655-94.065" transform="translate(-756)"/>
                        <path d="M29.82 1209.338c1.954 0 464.207-592.258 646.105-624.316 23.478-4.138 124.156 91.977 147.68 87.828 63.002-11.111 420.456-147.407 474.905-157.021 106.866-18.87 311.303 118.865 397.757 220.232 44.463 52.132 145.798 96.587 146.406 94.762 1.79-5.372 573.78-456.034 573.78-456.034l93.913 67.313 196.2 90.035 671.169-296.682 511.3-87.94" transform="translate(-756)"/>
                        <path d="M29.898 1214.204c1.845 0 467.325-615.044 639.118-645.32 22.175-3.909 124.886 96.798 147.104 92.88 59.5-10.494 426.36-151.633 477.783-160.713 100.93-17.82 306.538 127.266 396.752 233.04 46.396 54.4 145.455 100.234 146.09 98.33 1.868-5.607 567.975-478.408 567.975-478.408l93.512 69.87 196.09 99.132 677.688-295.984 516.947-81.812" transform="translate(-756)"/>
                        <path d="M29.976 1219.07c1.736 0 470.445-637.83 632.133-666.326 20.87-3.678 125.612 101.62 146.524 97.933 56.001-9.876 432.265-155.858 480.664-164.403 94.992-16.773 301.773 135.667 395.745 245.848 48.33 56.665 145.112 103.88 145.773 101.896 1.947-5.84 562.171-500.781 562.171-500.781l93.111 72.425 195.981 108.232 684.207-295.287 522.595-75.684" transform="translate(-756)"/>
                        <path d="M30.054 1223.937c1.627 0 473.565-660.617 625.147-687.332 19.565-3.448 126.341 106.443 145.946 102.986 52.501-9.259 438.17-160.084 483.544-168.095 89.056-15.725 297.008 144.067 394.738 258.656 50.263 58.932 144.771 107.526 145.458 105.463 2.025-6.073 556.365-523.154 556.365-523.154l92.711 74.98 195.871 117.331 690.727-294.589 528.241-69.558" transform="translate(-756)"/>
                        <path d="M30.132 1228.804c1.519 0 476.684-683.403 618.161-708.337 18.261-3.22 127.07 111.265 145.368 108.038 49.001-8.642 444.075-164.31 486.424-171.787 83.119-14.676 292.243 152.469 393.732 271.464 52.196 61.199 144.428 111.173 145.142 109.03 2.102-6.306 550.559-545.526 550.559-545.526l92.311 77.535L2657.59 495.65l697.246-293.891 533.888-63.43" transform="translate(-756)"/>
                        <path d="M30.21 1233.67c1.41 0 479.804-706.189 611.175-729.343 16.957-2.988 127.799 116.088 144.79 113.091 45.5-8.024 449.98-168.535 489.304-175.478 77.182-13.628 287.478 160.87 392.726 284.272 54.129 63.466 144.085 114.82 144.825 112.598 2.18-6.54 544.754-567.9 544.754-567.9l91.91 80.09 195.652 135.529 703.766-293.194 539.534-57.303" transform="translate(-756)"/>
                        <path d="M30.288 1238.537c1.302 0 482.924-728.976 604.19-750.348 15.652-2.76 128.527 120.909 144.21 118.143 42.002-7.407 455.886-172.76 492.185-179.17 71.245-12.58 282.713 169.27 391.72 297.08 56.062 65.733 143.742 118.467 144.509 116.166 2.258-6.774 538.948-590.274 538.948-590.274l91.51 82.646 195.542 144.627 710.286-292.495 545.18-51.177" transform="translate(-756)"/>
                        <path d="M30.366 1243.403c1.193 0 486.044-751.762 597.204-771.353 14.347-2.53 129.256 125.73 143.633 123.196 38.5-6.79 461.79-176.986 495.064-182.861 65.308-11.532 277.948 177.67 390.714 309.888 57.995 67.999 143.4 122.112 144.193 119.732 2.336-7.008 533.142-612.647 533.142-612.647l91.11 85.2 195.432 153.727 716.805-291.798 550.828-45.05" transform="translate(-756)"/>
                        <path d="M30.444 1248.27c1.085 0 489.163-774.55 590.218-792.36 13.043-2.297 129.984 130.555 143.054 128.25 35.001-6.173 467.695-181.212 497.944-186.553 59.371-10.483 273.183 186.073 389.708 322.697 59.93 70.266 143.058 125.758 143.878 123.299 2.412-7.241 527.335-635.021 527.335-635.021l90.711 87.757 195.322 162.825 723.325-291.1 556.474-38.923" transform="translate(-756)"/>
                        <path d="M30.521 1253.136c.976 0 492.283-797.335 583.232-813.364 11.74-2.07 130.714 135.376 142.477 133.3 31.501-5.554 473.6-185.436 500.824-190.243 53.434-9.434 268.418 194.474 388.702 335.505 61.862 72.532 142.714 129.405 143.56 126.866 2.492-7.475 521.532-657.394 521.532-657.394l90.31 90.313 195.211 171.923 729.845-290.402 562.12-32.796" transform="translate(-756)"/>
                        <path d="M30.6 1258.003c.867 0 495.402-820.121 576.245-834.37 10.435-1.838 131.443 140.198 141.9 138.353 28-4.938 479.504-189.662 503.703-193.935 47.497-8.387 263.653 202.875 387.696 348.314 63.795 74.798 142.371 133.05 143.244 130.433 2.57-7.71 515.726-679.769 515.726-679.769l89.91 92.87 195.101 181.022 736.365-289.706 567.767-26.669" transform="translate(-756)"/>
                        <path d="M30.677 1262.869c.76 0 498.522-842.907 569.261-855.375 9.13-1.61 132.171 145.02 141.32 143.407 24.501-4.321 485.41-193.89 506.585-197.627 41.56-7.338 258.887 211.275 386.69 361.12 65.727 77.067 142.027 136.698 142.927 134 2.647-7.941 509.92-702.14 509.92-702.14l89.51 95.424 194.992 190.12 742.883-289.006 573.414-20.542" transform="translate(-756)"/>
                        <path d="M30.755 1267.735c.651 0 501.642-865.694 562.275-876.38 7.826-1.379 132.9 149.842 140.742 148.46 21-3.705 491.315-198.115 509.465-201.32 35.622-6.29 254.122 219.676 385.683 373.93 67.661 79.332 141.686 140.343 142.611 137.566 2.725-8.175 504.115-724.514 504.115-724.514l89.11 97.98 194.882 199.22 749.403-288.31 579.06-14.415" transform="translate(-756)"/>
                        <path d="M30.833 1272.602c.542 0 504.762-888.48 555.289-897.385 6.522-1.15 133.629 154.664 140.164 153.51 17.5-3.085 497.22-202.338 512.345-205.01 29.685-5.24 249.357 228.078 384.676 386.739 69.595 81.599 141.344 143.989 142.296 141.134 2.803-8.41 498.309-746.888 498.309-746.888l88.71 100.535 194.772 208.319 755.923-287.612 584.706-8.288" transform="translate(-756)"/>
                        <path d="M30.91 1277.468c.435 0 507.882-911.267 548.304-918.39 5.218-.92 134.358 159.485 139.586 158.563 14-2.469 503.125-206.565 515.225-208.7 23.748-4.195 244.592 236.477 383.67 399.545 71.528 83.865 141 147.636 141.98 144.7 2.88-8.643 492.504-769.26 492.504-769.26l88.309 103.09 194.662 217.418 762.442-286.914 590.354-2.16" transform="translate(-756)"/>
                        <path d="M30.989 1282.334c.325 0 511-934.053 541.318-939.396 3.913-.688 135.086 164.309 139.007 163.618 10.5-1.852 509.03-210.791 518.105-212.393 17.81-3.146 239.827 244.879 382.664 412.353 73.46 86.133 140.659 151.283 141.663 148.268 2.959-8.876 486.699-791.635 486.699-791.635l87.909 105.647 194.552 226.517 768.962-286.217 596 3.965" transform="translate(-756)"/>
                        <path d="M31.066 1287.201c.217 0 514.121-956.839 534.332-960.4 2.608-.46 135.815 169.13 138.43 168.668 7-1.235 514.934-215.017 520.984-216.085 11.874-2.097 235.062 253.28 381.658 425.162 75.394 88.4 140.316 154.93 141.347 151.835 3.037-9.11 480.893-814.007 480.893-814.007l87.51 108.202L2510.66 386.19l775.482-285.518 601.646 10.093" transform="translate(-756)"/>
                        <path d="M31.144 1292.067c.108 0 517.241-979.625 527.346-981.406 1.304-.23 136.544 173.952 137.851 173.721 3.5-.617 520.84-219.242 523.865-219.776 5.937-1.048 230.297 261.681 380.652 437.971 77.327 90.665 139.973 158.574 141.031 155.401 3.114-9.343 475.087-836.38 475.087-836.38l87.11 110.757 194.331 244.713 782.001-284.82 607.294 16.22" transform="translate(-756)"/>
                        <path d="M31.222 1296.934l520.36-1002.412 137.273 178.774L1215.6 249.83s517.168 619.324 520.36 609.747C1739.153 850 2205.242.822 2205.242.822l280.931 367.125 788.521-284.123 612.94 22.347" transform="translate(-756)"/>
                    </g>
                </g>
            </g>
        </g>
    </g>
</svg>
