<?xml version="1.0" encoding="utf-8"?>
<!-- Generator: Adobe Illustrator 24.0.2, SVG Export Plug-In . SVG Version: 6.00 Build 0)  -->
<svg version="1.1" id="Layer_1" xmlns="http://www.w3.org/2000/svg" xmlns:xlink="http://www.w3.org/1999/xlink" x="0px" y="0px"
	 viewBox="0 0 32.9 32.9" style="enable-background:new 0 0 32.9 32.9;" xml:space="preserve">
<style type="text/css">
	.st0{fill-rule:evenodd;clip-rule:evenodd;fill:#1F2123;}
</style>
<g>
	<path class="st0" d="M8.6,7.1l16.9,8.4c0.6,0.2,0.8,1,0.5,1.6c-0.1,0.2-0.4,0.5-0.5,0.5L8.6,25.9c-0.6,0.2-1.3,0-1.6-0.5
		c-0.1-0.2-0.1-0.6-0.1-1l1.6-4.8c0.2-0.8,1-1.4,1.8-1.6l9.3-1.7l-9.2-1.6c-1-0.2-1.7-0.8-1.9-1.7L6.9,8.4C6.7,7.8,7,7.2,7.6,7
		C8,6.9,8.3,6.9,8.6,7.1L8.6,7.1z"/>
</g>
</svg>
