<?xml version="1.0" encoding="utf-8"?>
<!-- Generator: Adobe Illustrator 24.0.2, SVG Export Plug-In . SVG Version: 6.00 Build 0)  -->
<svg version="1.1" id="Layer_1" xmlns="http://www.w3.org/2000/svg" xmlns:xlink="http://www.w3.org/1999/xlink" x="0px" y="0px"
	 viewBox="0 0 17 17" style="enable-background:new 0 0 17 17;" xml:space="preserve">
<style type="text/css">
	.st0{fill-rule:evenodd;clip-rule:evenodd;fill:#E64539;}
</style>
<g>
	<path class="st0" d="M1.9,0.6l14.1,7c0.5,0.2,0.7,0.8,0.4,1.3c-0.1,0.2-0.3,0.4-0.4,0.4l-14.1,7c-0.5,0.2-1.1,0-1.3-0.4
		c-0.1-0.2-0.1-0.5-0.1-0.8l1.3-4c0.2-0.7,0.8-1.2,1.5-1.3l7.8-1.4L3.4,7.1C2.6,6.9,2,6.4,1.8,5.7l-1.3-4C0.3,1.2,0.6,0.7,1.1,0.5
		C1.4,0.4,1.7,0.4,1.9,0.6L1.9,0.6z"/>
</g>
</svg>
