<svg xmlns="http://www.w3.org/2000/svg" width="30" height="30" viewBox="0 0 30 30">
    <g fill="none" fill-rule="evenodd">
        <g>
            <g transform="translate(-265 -97) translate(265 97)">
                <circle cx="15" cy="15" r="15" fill="#3D64B6"/>
                <path fill="#F4F4F4" d="M16.455 17.283h-5.692l1.174-1.25c-.34-.362-.547-.867-.534-1.421.024-1.06.864-1.895 1.86-1.895h3.192c1.183 0 2.143 1.022 2.143 2.283 0 1.26-.96 2.283-2.143 2.283zM21.6 10.2h-8.374c-2.313 0-4.187 1.997-4.187 4.46 0 1.232.469 2.346 1.227 3.153L8.4 19.8h8.374c2.313 0 4.187-1.997 4.187-4.46 0-1.232-.47-2.345-1.228-3.152L21.6 10.2z"/>
            </g>
        </g>
    </g>
</svg>
