<svg xmlns="http://www.w3.org/2000/svg" width="30" height="30" viewBox="0 0 30 30">
    <g fill="none" fill-rule="evenodd">
        <g>
            <g transform="translate(-265 -215) translate(265 215)">
                <circle cx="15" cy="15" r="15" fill="#3D64B6"/>
                <path fill="#F4F4F4" d="M11.88 10.14l8.826 4.413c.247.123.347.424.223.67-.048.097-.127.176-.223.224L11.88 19.86c-.247.124-.548.024-.671-.223-.06-.119-.07-.256-.027-.382l.997-2.992c.058-.174.205-.301.385-.334l2.409-.438c.27-.05.45-.31.401-.58-.037-.205-.197-.365-.401-.402l-2.409-.438c-.18-.033-.327-.16-.385-.334l-.997-2.992c-.088-.262.054-.545.316-.632.126-.042.263-.032.382.027z"/>
            </g>
        </g>
    </g>
</svg>
