<svg xmlns="http://www.w3.org/2000/svg" xmlns:xlink="http://www.w3.org/1999/xlink" width="307" height="130" viewBox="0 0 307 130">
    <defs>
        <path id="lws44bh3da" d="M2 0h303c1.105 0 2 .895 2 2v128H0V2C0 .895.895 0 2 0z"/>
    </defs>
    <g fill="none" fill-rule="evenodd">
        <g>
            <g transform="translate(-1133 -186) translate(1133 186)">
                <mask id="m9jxpdxvyb" fill="#fff">
                    <use xlink:href="#lws44bh3da"/>
                </mask>
                <use fill="#A5241B" xlink:href="#lws44bh3da"/>
                <g opacity=".296" style="mix-blend-mode:overlay" stroke="#EDEDED" stroke-width=".5" mask="url(#m9jxpdxvyb)">
                    <g>
                        <path d="M7.399 110.578L207.058 65.04 442.574 238.818 717.208 15.314 747.36 61.376 970.653 1.705" transform="translate(-403 -78)"/>
                        <path d="M7.617 110.412L207.475 66.368 443.29 235.205 715.419 17.842 750.342 60.955 971.249 4.884" transform="translate(-403 -78)"/>
                        <path d="M7.836 110.246L207.893 67.695 444.006 231.592 713.63 20.37 753.323 60.533 971.845 8.063" transform="translate(-403 -78)"/>
                        <path d="M8.055 110.08L208.31 69.023 444.721 227.98 711.841 22.898 756.305 60.112 972.442 11.242" transform="translate(-403 -78)"/>
                        <path d="M8.273 109.914L208.728 70.351 445.437 224.367 710.052 25.425 759.286 59.691 973.038 14.421" transform="translate(-403 -78)"/>
                        <path d="M8.492 109.748L209.145 71.679 446.152 220.754 708.263 27.953 762.268 59.27 973.634 17.599" transform="translate(-403 -78)"/>
                        <path d="M8.711 109.583L209.562 73.006 446.868 217.141 706.474 30.481 765.249 58.848 974.23 20.778" transform="translate(-403 -78)"/>
                        <path d="M8.929 109.417L209.98 74.334 447.583 213.528 704.685 33.009 768.231 58.427 974.827 23.957" transform="translate(-403 -78)"/>
                        <path d="M9.148 109.251L210.397 75.662 448.299 209.915 702.896 35.536 771.212 58.006 975.423 27.136" transform="translate(-403 -78)"/>
                        <path d="M9.367 109.085L210.815 76.99 449.014 206.302 701.108 38.064 774.194 57.584 976.019 30.315" transform="translate(-403 -78)"/>
                        <path d="M9.585 108.919L211.232 78.317 449.73 202.689 699.319 40.592 777.175 57.163 976.616 33.494" transform="translate(-403 -78)"/>
                        <path d="M9.804 108.753L211.649 79.645 450.445 199.076 697.53 43.12 780.157 56.742 977.212 36.673" transform="translate(-403 -78)"/>
                        <path d="M10.022 108.587L212.067 80.973 451.161 195.463 695.741 45.648 783.138 56.32 977.808 39.852" transform="translate(-403 -78)"/>
                        <path d="M10.241 108.421L212.484 82.3 451.877 191.85 693.952 48.175 786.119 55.899 978.404 43.03" transform="translate(-403 -78)"/>
                        <path d="M10.46 108.255L212.902 83.628 452.592 188.237 692.163 50.703 789.101 55.478 979.001 46.209" transform="translate(-403 -78)"/>
                        <path d="M10.678 108.089L213.319 84.956 453.308 184.624 690.374 53.231 792.082 55.057 979.597 49.388" transform="translate(-403 -78)"/>
                        <path d="M10.897 107.923L213.737 86.284 454.023 181.011 688.585 55.759 795.064 54.635 980.193 52.567" transform="translate(-403 -78)"/>
                        <path d="M11.116 107.757L214.154 87.611 454.739 177.398 686.797 58.286 798.045 54.214 980.79 55.746" transform="translate(-403 -78)"/>
                        <path d="M11.334 107.591L214.571 88.939 455.454 173.786 685.008 60.814 801.027 53.793 981.386 58.925" transform="translate(-403 -78)"/>
                        <path d="M11.553 107.425L214.989 90.267 456.17 170.173 683.219 63.342 804.008 53.371 981.982 62.104" transform="translate(-403 -78)"/>
                        <path d="M11.772 107.259L215.406 91.594 456.885 166.56 681.43 65.87 806.99 52.95 982.579 65.283" transform="translate(-403 -78)"/>
                        <path d="M11.99 107.093L215.824 92.922 457.601 162.947 679.641 68.398 809.971 52.529 983.175 68.461" transform="translate(-403 -78)"/>
                        <path d="M12.209 106.927L216.241 94.25 458.316 159.334 677.852 70.925 812.952 52.107 983.771 71.64" transform="translate(-403 -78)"/>
                        <path d="M12.428 106.761L216.658 95.578 459.032 155.721 676.063 73.453 815.934 51.686 984.367 74.819" transform="translate(-403 -78)"/>
                        <path d="M12.646 106.595L217.076 96.905 459.748 152.108 674.274 75.981 818.916 51.265 984.964 77.998" transform="translate(-403 -78)"/>
                        <path d="M12.865 106.429L217.493 98.233 460.463 148.495 672.485 78.509 821.897 50.844 985.56 81.177" transform="translate(-403 -78)"/>
                        <path d="M13.083 106.263L217.911 99.561 461.179 144.882 670.697 81.036 824.879 50.422 986.156 84.356" transform="translate(-403 -78)"/>
                        <path d="M13.302 106.097L218.328 100.889 461.894 141.269 668.908 83.564 827.86 50.001 986.752 87.535" transform="translate(-403 -78)"/>
                        <path d="M13.521 105.931L218.745 102.216 462.61 137.656 667.119 86.092 830.841 49.58 987.349 90.714" transform="translate(-403 -78)"/>
                        <path d="M13.739 105.765L219.163 103.544 463.325 134.043 665.33 88.62 833.823 49.158 987.945 93.892" transform="translate(-403 -78)"/>
                        <path d="M13.958 105.599L219.58 104.872 464.041 130.43 663.541 91.148 836.805 48.737 988.541 97.071" transform="translate(-403 -78)"/>
                        <path d="M14.177 105.433L219.998 106.199 464.756 126.817 661.752 93.675 839.786 48.316 989.138 100.25" transform="translate(-403 -78)"/>
                        <path d="M14.395 105.267L220.415 107.527 465.472 123.204 659.963 96.203 842.767 47.895 989.734 103.429" transform="translate(-403 -78)"/>
                        <path d="M14.614 105.101L220.832 108.855 466.188 119.592 658.175 98.731 845.749 47.473 990.33 106.608" transform="translate(-403 -78)"/>
                        <path d="M14.833 104.935L221.25 110.183 466.903 115.979 656.386 101.259 848.73 47.052 990.926 109.787" transform="translate(-403 -78)"/>
                        <path d="M15.051 104.77L221.667 111.51 467.619 112.366 654.597 103.787 851.712 46.631 991.523 112.966" transform="translate(-403 -78)"/>
                        <path d="M15.27 104.604L222.085 112.838 468.334 108.753 652.808 106.314 854.693 46.209 992.119 116.144" transform="translate(-403 -78)"/>
                        <path d="M15.489 104.438L222.502 114.166 469.05 105.14 651.019 108.842 857.675 45.788 992.715 119.323" transform="translate(-403 -78)"/>
                        <path d="M15.707 104.272L222.92 115.493 469.765 101.527 649.23 111.37 860.656 45.367 993.312 122.502" transform="translate(-403 -78)"/>
                        <path d="M15.926 104.106L223.337 116.821 470.481 97.914 647.441 113.898 863.638 44.945 993.908 125.681" transform="translate(-403 -78)"/>
                        <path d="M16.144 103.94L223.754 118.149 471.197 94.301 645.652 116.425 866.619 44.524 994.504 128.86" transform="translate(-403 -78)"/>
                        <path d="M16.363 103.774L224.172 119.477 471.912 90.688 643.863 118.953 869.601 44.103 995.101 132.039" transform="translate(-403 -78)"/>
                        <path d="M15.966 105.663c.06-.076 193.544 10.765 193.544 10.765l12.135 1.131 117.482-11.227 129.948-15.48 69.157 10.555 103.834 17.532 40.426-12.563 131.167-44.963L867.016 45.1 995.22 129.88" transform="translate(-403 -78)"/>
                        <path d="M15.568 107.553c.12-.154 191.538 6.753 191.538 6.753l12.014 1.336 116.318-8.667 130.8-15.96 69.643 9.823 104.387 18.086 40.749-11.828L811.859 60.77l52.574-14.677 130.906 81.63" transform="translate(-403 -78)"/>
                        <path d="M15.17 109.442c.18-.23 189.532 2.742 189.532 2.742l11.891 1.54 115.156-6.106 131.652-16.44 70.13 9.091 104.94 18.641 41.07-11.094L810.06 60.129l51.79-13.039 133.61 78.476" transform="translate(-403 -78)"/>
                        <path d="M14.773 111.332c.238-.307 187.525-1.27 187.525-1.27l11.77 1.746 113.993-3.548 132.503-16.92 70.616 8.36 105.493 19.196 41.394-10.36 130.191-49.05 51.007-11.4 136.313 75.323" transform="translate(-403 -78)"/>
                        <path d="M14.375 113.221c.299-.383 185.518-5.282 185.518-5.282l11.648 1.951 112.83-.987 133.356-17.4 71.102 7.628 106.047 19.75 41.716-9.625 129.866-50.411 50.223-9.763 139.016 72.17" transform="translate(-403 -78)"/>
                        <path d="M13.978 115.11c.358-.46 183.511-9.293 183.511-9.293l11.526 2.156 111.668 1.573 134.206-17.88 71.59 6.896 106.6 20.305 42.038-8.89 129.541-51.775 49.439-8.124 141.72 69.016" transform="translate(-403 -78)"/>
                        <path d="M13.58 117c.418-.536 181.505-13.305 181.505-13.305l11.404 2.36 110.505 4.133L452.052 91.83l72.076 6.163 107.153 20.86 42.36-8.157L802.859 57.56l48.655-6.487 144.422 65.863" transform="translate(-403 -78)"/>
                        <path d="M13.183 118.89c.477-.613 179.498-17.317 179.498-17.317l11.282 2.565 109.342 6.693 135.91-18.838 72.562 5.431 107.706 21.414 42.684-7.422 128.891-54.498 47.871-4.849 147.126 62.71" transform="translate(-403 -78)"/>
                        <path d="M12.785 120.779c.537-.69 177.491-21.328 177.491-21.328l11.16 2.77 108.18 9.253 136.762-19.318 73.049 4.7 108.258 21.968 43.007-6.688 128.566-55.86 47.087-3.211 149.829 59.556" transform="translate(-403 -78)"/>
                        <path d="M12.388 122.668c.596-.766 175.484-25.34 175.484-25.34l11.039 2.976 107.017 11.812L443.54 92.32l73.535 3.968 108.812 22.523 43.328-5.954 128.242-57.222 46.303-1.573 152.532 56.402" transform="translate(-403 -78)"/>
                        <path d="M11.99 124.558c.656-.843 173.478-29.352 173.478-29.352l10.916 3.18L302.24 112.76l138.465-20.277 74.021 3.236 109.366 23.077 43.65-5.218 127.917-58.585 45.52.065 155.234 53.249" transform="translate(-403 -78)"/>
                        <path d="M11.593 126.447c.715-.919 171.47-33.363 171.47-33.363l10.795 3.385 104.692 16.933 139.317-20.756 74.507 2.503 109.919 23.632 43.973-4.484L793.858 54.35l44.735 1.702 157.939 50.096" transform="translate(-403 -78)"/>
                        <path d="M11.195 128.337c.775-.996 169.464-37.375 169.464-37.375l10.673 3.59 103.53 19.492L435.03 92.81l74.994 1.77 110.471 24.188 44.296-3.75 127.267-61.31 43.951 3.341 160.642 46.943" transform="translate(-403 -78)"/>
                        <path d="M10.798 130.226c.834-1.072 167.457-41.386 167.457-41.386l10.551 3.795 102.366 22.052 141.02-21.715 75.481 1.039 111.025 24.742 44.618-3.016 126.942-62.671 43.167 4.978 163.345 43.79" transform="translate(-403 -78)"/>
                        <path d="M10.4 132.116c.895-1.15 165.45-45.398 165.45-45.398l10.43 4 101.204 24.612 141.872-22.195 75.967.307L616.9 118.738l44.941-2.281 126.616-64.034 42.384 6.617L996.89 99.676" transform="translate(-403 -78)"/>
                        <path d="M10.003 134.005c.954-1.226 163.444-49.41 163.444-49.41l10.307 4.205 100.04 27.172L426.52 93.298l76.453-.425 112.13 25.85 45.264-1.546 126.291-65.396 41.6 8.254L997.01 97.518" transform="translate(-403 -78)"/>
                        <path d="M9.605 135.894c1.014-1.302 161.437-53.42 161.437-53.42l10.186 4.409 98.878 29.732 143.576-23.154 76.939-1.157 112.684 26.405 45.586-.812L784.857 51.14l40.817 9.892 171.454 34.33" transform="translate(-403 -78)"/>
                        <path d="M9.208 137.784c1.073-1.379 159.43-57.433 159.43-57.433l10.064 4.615 97.715 32.292 144.427-23.634 77.426-1.889 113.238 26.96 45.908-.078 125.641-68.12 40.033 11.53 174.157 31.176" transform="translate(-403 -78)"/>
                        <path d="M8.81 139.673c1.133-1.455 157.424-61.444 157.424-61.444l9.942 4.82 96.552 34.851 145.28-24.113 77.911-2.621 113.791 27.515 46.231.656 125.316-69.482 39.249 13.168 176.86 28.022" transform="translate(-403 -78)"/>
                        <path d="M8.412 141.563C9.605 140.03 163.83 76.107 163.83 76.107l9.82 5.024 95.39 37.412L415.17 93.95l78.399-3.354 114.344 28.07 46.553 1.39 124.991-70.844 38.465 14.806 179.564 24.869" transform="translate(-403 -78)"/>
                        <path d="M8.015 143.452c1.252-1.608 153.41-69.468 153.41-69.468l9.699 5.23 94.227 39.972 146.982-25.072 78.885-4.086 114.897 28.624 46.876 2.126L777.657 48.57l37.68 16.443L997.606 86.73" transform="translate(-403 -78)"/>
                        <path d="M7.617 145.342c1.312-1.686 151.404-73.48 151.404-73.48l9.576 5.434 93.065 42.532 147.834-25.551 79.372-4.818 115.45 29.179 47.198 2.86 124.341-73.57 36.897 18.082 184.97 18.563" transform="translate(-403 -78)"/>
                        <path d="M7.22 147.231C8.59 145.47 156.617 69.74 156.617 69.74l9.454 5.64 91.902 45.091L406.66 94.44l79.858-5.55 116.003 29.733 47.52 3.595 124.017-74.932 36.113 19.72 187.673 15.41" transform="translate(-403 -78)"/>
                        <path d="M6.822 149.12c1.431-1.838 147.39-81.502 147.39-81.502l9.333 5.844 90.74 47.652 149.537-26.51 80.344-6.283 116.556 30.288 47.844 4.329 123.69-76.294 35.33 21.358 190.377 12.256" transform="translate(-403 -78)"/>
                        <path d="M6.425 151.01c1.49-1.915 145.383-85.514 145.383-85.514l9.211 6.049 89.576 50.211 150.39-26.99 80.83-7.014 117.11 30.843 48.166 5.063 123.366-77.656 34.545 22.996 193.08 9.102" transform="translate(-403 -78)"/>
                        <path d="M6.027 152.9c1.55-1.992 143.377-89.527 143.377-89.527l9.09 6.254 88.413 52.772 151.24-27.47 81.318-7.746 117.662 31.397 48.489 5.798 123.04-79.018 33.762 24.633 195.783 5.95" transform="translate(-403 -78)"/>
                        <path d="M5.63 154.789C7.24 152.72 147 61.25 147 61.25l8.967 6.46 87.25 55.33 152.094-27.949 81.803-8.478 118.216 31.952 48.81 6.532 122.717-80.38 32.977 26.271 198.487 2.796" transform="translate(-403 -78)"/>
                        <path d="M5.232 156.678c1.67-2.144 139.364-97.549 139.364-97.549l8.845 6.664 86.088 57.891 152.945-28.428 82.29-9.21 118.768 32.506 49.133 7.266 122.392-81.742 32.193 27.909 201.19-.357" transform="translate(-403 -78)"/>
                        <path d="M4.835 158.568C6.564 156.346 142.19 57.007 142.19 57.007l8.724 6.869 84.925 60.45L389.636 95.42l82.777-9.943 119.322 33.061 49.456 8.001 122.066-83.104 31.41 29.547 203.892-3.511" transform="translate(-403 -78)"/>
                        <path d="M4.437 160.457c1.79-2.298 135.35-105.572 135.35-105.572l8.602 7.073 83.762 63.012L386.8 95.582l83.262-10.674 119.875 33.615 49.779 8.735 121.74-84.467 30.626 31.186 206.596-6.665" transform="translate(-403 -78)"/>
                        <path d="M4.04 162.347c1.848-2.375 133.343-109.585 133.343-109.585l8.48 7.279 82.6 65.571 155.5-29.867 83.748-11.406 120.429 34.17 50.1 9.47 121.416-85.83 29.842 32.823 209.3-9.817" transform="translate(-403 -78)"/>
                        <path d="M3.642 164.236C5.55 161.785 134.98 50.64 134.98 50.64l8.358 7.484 81.437 68.13 156.351-30.346L465.36 83.77l120.982 34.724 50.423 10.205 121.091-87.192 29.058 34.461 212.003-12.97" transform="translate(-403 -78)"/>
                        <path d="M3.245 166.126c1.967-2.528 129.33-117.608 129.33-117.608l8.235 7.688 80.275 70.692L378.288 96.07l84.722-12.87 121.535 35.28 50.745 10.938 120.766-88.554 28.275 36.099L999.036 60.84" transform="translate(-403 -78)"/>
                        <path d="M2.847 168.015c2.027-2.604 127.323-121.62 127.323-121.62l8.114 7.894 79.112 73.251 158.055-31.306 85.208-13.602 122.088 35.834 51.068 11.673 120.441-89.916 27.49 37.737 217.41-19.278" transform="translate(-403 -78)"/>
                        <path d="M2.45 169.905c2.087-2.681 125.316-125.631 125.316-125.631l7.992 8.098 77.95 75.81 158.906-31.785 85.694-14.334L580.95 118.45l51.391 12.408L752.456 39.58l26.707 39.375 220.112-22.431" transform="translate(-403 -78)"/>
                        <path d="M2.052 171.794c2.147-2.758 123.31-129.643 123.31-129.643l7.87 8.304 76.786 78.37 159.759-32.264 86.18-15.067 123.195 36.943 51.713 13.142 119.791-92.64L776.58 79.95l222.815-25.584" transform="translate(-403 -78)"/>
                        <path d="M1.654 173.683C3.861 170.85 122.957 40.03 122.957 40.03l7.749 8.508 75.623 80.931 160.61-32.744 86.668-15.799 123.748 37.498 52.035 13.876 119.466-94.002 25.139 42.65L999.513 52.21" transform="translate(-403 -78)"/>
                        <path d="M1.257 175.573c2.266-2.91 119.296-137.666 119.296-137.666l7.627 8.713 74.46 83.491 161.463-33.224 87.153-16.531 124.3 38.052 52.36 14.611 119.14-95.365 24.355 44.289 228.221-31.891" transform="translate(-403 -78)"/>
                        <path d="M.86 177.462c2.325-2.987 117.289-141.677 117.289-141.677l7.505 8.918 73.298 86.05L361.266 97.05l87.64-17.263 124.853 38.607 52.681 15.345 118.816-96.727 23.57 45.927 230.926-35.044" transform="translate(-403 -78)"/>
                        <path d="M.462 179.352c2.385-3.064 115.283-145.69 115.283-145.69l7.383 9.123 72.135 88.611 163.165-34.183 88.127-17.995 125.407 39.162 53.003 16.08 118.49-98.09 22.788 47.565L999.87 45.737" transform="translate(-403 -78)"/>
                        <path d="M.064 181.241c2.445-3.14 113.276-149.7 113.276-149.7l78.234 100.498 252.63-53.39 179.286 56.53 118.166-99.451 22.003 49.202L999.99 43.58" transform="translate(-403 -78)"/>
                        <path d="M.233 181.21c2.412-3.065 112.678-146.291 115.079-146.563 1.028-.116 78.429 97.81 79.407 97.698 1.968-.223 190-39.807 190-39.807l61.166-12.621 178.473 55.34 44.076-35.942 74.375-61.739 22.689 47.532 234.323-41.79" transform="translate(-403 -78)"/>
                        <path d="M.402 181.177c2.378-2.987 112.08-142.88 116.882-143.424 2.055-.232 78.623 95.12 80.58 94.898 3.937-.446 188.882-39.223 188.882-39.223l60.82-12.243 177.66 54.151 44.295-34.974 74.44-60.937 23.375 45.86 232.316-42.23" transform="translate(-403 -78)"/>
                        <path d="M.571 181.145c2.344-2.91 111.482-139.47 118.684-140.286 3.083-.348 78.819 92.431 81.754 92.099 5.905-.67 187.764-38.641 187.764-38.641l60.475-11.864 176.846 52.961 44.514-34.005 74.507-60.135 24.06 44.189 230.308-42.669" transform="translate(-403 -78)"/>
                        <path d="M.74 181.114c2.31-2.835 110.884-136.06 120.487-137.148 4.11-.465 79.013 89.742 82.927 89.298 7.873-.893 186.646-38.058 186.646-38.058L450.93 83.72l176.033 51.773 44.733-33.037 74.573-59.334 24.746 42.518 228.3-43.107" transform="translate(-403 -78)"/>
                        <path d="M.91 181.082c2.276-2.758 110.285-132.65 122.288-134.009 5.138-.581 79.209 87.052 84.1 86.497 9.843-1.115 185.53-37.474 185.53-37.474l59.782-11.108 175.22 50.583 44.952-32.068 74.639-58.532 25.431 40.846 226.293-43.546" transform="translate(-403 -78)"/>
                        <path d="M1.078 181.05C3.321 178.369 110.766 51.81 125.17 50.18c6.165-.698 79.403 84.362 85.274 83.696 11.81-1.339 184.41-36.89 184.41-36.89l59.437-10.73 174.407 49.393 45.171-31.099 74.705-57.73 26.117 39.175 224.285-43.986" transform="translate(-403 -78)"/>
                        <path d="M1.247 181.018c2.21-2.605 109.09-125.83 125.895-127.732 7.193-.814 79.598 81.673 86.447 80.897 13.778-1.562 183.292-36.309 183.292-36.309l59.091-10.35 173.594 48.204 45.39-30.13 74.77-56.93 26.804 37.504 222.278-44.425" transform="translate(-403 -78)"/>
                        <path d="M1.416 180.986c2.176-2.528 108.492-122.42 127.698-124.594 8.22-.93 79.793 78.984 87.62 78.097 15.747-1.785 182.174-35.725 182.174-35.725l58.745-9.972 172.78 47.014 45.61-29.161 74.837-56.129 27.488 35.834 220.27-44.864" transform="translate(-403 -78)"/>
                        <path d="M1.585 180.954c2.142-2.451 107.894-119.01 129.5-121.455 9.248-1.047 79.988 76.294 88.793 75.296 17.716-2.008 181.057-35.142 181.057-35.142l58.4-9.593 171.967 45.824 45.828-28.192 74.903-55.327 28.174 34.162L998.47 41.224" transform="translate(-403 -78)"/>
                        <path d="M1.754 180.922c2.109-2.375 107.296-115.6 131.303-118.317 10.275-1.162 80.183 73.606 89.966 72.496 19.684-2.231 179.94-34.558 179.94-34.558l58.052-9.216 171.155 44.635 46.047-27.223 74.969-54.526 28.86 32.492L998.3 40.962" transform="translate(-403 -78)"/>
                        <path d="M1.923 180.89C3.998 178.592 108.62 68.7 135.028 65.712c11.303-1.28 80.378 70.916 91.14 69.696 21.652-2.455 178.821-33.976 178.821-33.976l57.708-8.837 170.34 43.446 46.267-26.255 75.035-53.724 29.545 30.82L998.132 40.7" transform="translate(-403 -78)"/>
                        <path d="M2.092 180.858c2.042-2.221 106.1-108.78 134.908-112.04 12.33-1.395 80.573 68.227 92.313 66.896 23.62-2.678 177.703-33.393 177.703-33.393l57.362-8.458 169.528 42.256 46.485-25.286 75.1-52.923 30.232 29.15 212.24-46.621" transform="translate(-403 -78)"/>
                        <path d="M2.26 180.826c2.009-2.144 105.503-105.37 136.711-108.901 13.358-1.512 80.768 65.537 93.487 64.095 25.589-2.9 176.585-32.81 176.585-32.81l57.016-8.08 168.715 41.067 46.703-24.317 75.168-52.121 30.916 27.478 210.233-47.06" transform="translate(-403 -78)"/>
                        <path d="M2.43 180.794c1.974-2.068 104.904-101.96 138.513-105.763 14.386-1.628 80.963 62.848 94.66 61.295C263.16 133.202 411.07 104.1 411.07 104.1l56.67-7.701 167.901 39.877 46.923-23.349 75.234-51.32L789.4 87.414l208.225-47.499" transform="translate(-403 -78)"/>
                        <path d="M2.599 180.762c1.94-1.991 104.306-98.55 140.316-102.624 15.413-1.744 81.157 60.158 95.833 58.495 29.526-3.347 174.35-31.644 174.35-31.644l56.323-7.323 167.089 38.688 47.141-22.38 75.3-50.518 32.288 24.136 206.217-47.938" transform="translate(-403 -78)"/>
                        <path d="M2.768 180.73c1.907-1.914 103.707-95.14 142.118-99.486 16.441-1.86 81.353 57.47 97.007 55.695 31.494-3.57 173.232-31.06 173.232-31.06l55.977-6.945 166.275 37.498 47.361-21.41 75.366-49.718 32.974 22.465 204.209-48.377" transform="translate(-403 -78)"/>
                        <path d="M2.936 180.699c1.874-1.839 103.11-91.73 143.922-96.348 17.468-1.977 81.547 54.78 98.18 52.894 33.462-3.793 172.113-30.477 172.113-30.477l55.633-6.566 165.461 36.309 47.58-20.443 75.432-48.915 33.659 20.793L997.118 39.13" transform="translate(-403 -78)"/>
                        <path d="M3.105 180.667c1.84-1.762 102.512-88.32 145.725-93.21 18.495-2.093 81.742 52.09 99.353 50.094 35.43-4.016 170.996-29.893 170.996-29.893l55.286-6.188 164.649 35.119 47.798-19.474 75.498-48.113 34.345 19.122 200.194-49.255" transform="translate(-403 -78)"/>
                        <path d="M3.274 180.635c1.807-1.685 101.915-84.91 147.527-90.071 19.524-2.21 81.938 49.401 100.527 47.294 37.399-4.24 169.878-29.311 169.878-29.311l54.94-5.81 163.835 33.93L688 118.163l75.564-47.313 35.03 17.451L996.78 38.607" transform="translate(-403 -78)"/>
                        <path d="M3.443 180.603c1.773-1.609 101.316-81.5 149.33-86.933 20.55-2.326 82.132 46.712 101.7 44.494 39.367-4.463 168.76-28.728 168.76-28.728l54.594-5.43 163.022 32.74 48.237-17.536 75.63-46.512 35.716 15.78 196.18-50.133" transform="translate(-403 -78)"/>
                        <path d="M3.612 180.571c1.74-1.532 100.718-78.09 151.133-83.795 21.578-2.441 82.326 44.023 102.872 41.694 41.336-4.686 167.643-28.144 167.643-28.144l54.248-5.053 162.21 31.55 48.455-16.566 75.696-45.71 36.402 14.11 194.171-50.574" transform="translate(-403 -78)"/>
                        <path d="M3.781 180.54c1.706-1.456 100.12-74.68 152.935-80.657 22.606-2.558 82.522 41.334 104.046 38.894 43.305-4.91 166.525-27.562 166.525-27.562l53.902-4.674 161.396 30.361 48.674-15.598 75.763-44.908 37.087 12.438 192.164-51.012" transform="translate(-403 -78)"/>
                        <path d="M3.95 180.507c1.673-1.379 99.522-71.27 154.738-77.518 23.633-2.674 82.717 38.645 105.219 36.094 45.273-5.133 165.407-26.979 165.407-26.979l53.556-4.295 160.583 29.171 48.893-14.629 75.829-44.107 37.773 10.767L996.104 37.56" transform="translate(-403 -78)"/>
                        <path d="M4.12 180.475c1.638-1.302 98.923-67.86 156.54-74.379 24.66-2.79 82.911 35.955 106.392 33.293 47.241-5.356 164.289-26.395 164.289-26.395l53.21-3.917 159.77 27.982 49.112-13.66 75.895-43.306 38.459 9.095 188.148-51.89" transform="translate(-403 -78)"/>
                        <path d="M4.288 180.443c1.605-1.225 98.326-64.45 158.343-71.24 25.689-2.907 83.107 33.265 107.566 30.492 49.21-5.578 163.17-25.812 163.17-25.812l52.866-3.538 158.956 26.792 49.331-12.692 75.961-42.504 39.144 7.425 186.142-52.33" transform="translate(-403 -78)"/>
                        <path d="M4.457 180.411c1.572-1.149 97.728-61.04 160.146-68.102 26.716-3.023 83.301 30.576 108.739 27.692 51.178-5.801 162.053-25.228 162.053-25.228l52.519-3.16 158.143 25.602 49.55-11.723 76.027-41.702 39.83 5.753 184.134-52.768" transform="translate(-403 -78)"/>
                        <path d="M4.626 180.38c1.538-1.073 97.13-57.63 161.948-64.965 27.744-3.139 83.497 27.887 109.913 24.893 53.146-6.025 160.935-24.646 160.935-24.646l52.173-2.782 157.33 24.414 49.769-10.755 76.093-40.9 40.516 4.082 182.126-53.208" transform="translate(-403 -78)"/>
                        <path d="M4.795 180.348c1.505-.996 96.532-54.22 163.75-61.826 28.772-3.256 83.692 25.197 111.087 22.092 55.114-6.248 159.817-24.063 159.817-24.063l51.827-2.403 156.517 23.224 49.988-9.786 76.159-40.1 41.201 2.412L995.26 36.251" transform="translate(-403 -78)"/>
                        <path d="M4.964 180.316c1.47-.92 95.934-50.81 165.554-58.688 29.798-3.372 83.886 22.509 112.259 19.292 57.083-6.471 158.699-23.48 158.699-23.48l51.481-2.024 155.704 22.034 50.207-8.816 76.225-39.299 41.887.74L995.09 35.99" transform="translate(-403 -78)"/>
                        <path d="M5.133 180.284c1.437-.843 95.336-47.4 167.356-55.55 30.826-3.488 84.081 19.82 113.432 16.492 59.052-6.694 157.582-22.896 157.582-22.896l51.135-1.646 154.89 20.844 50.427-7.847 76.291-38.497 42.573-.931 176.103-54.525" transform="translate(-403 -78)"/>
                        <path d="M5.302 180.252c1.404-.766 94.738-43.99 169.159-52.41 31.854-3.605 84.276 17.129 114.605 13.69 61.02-6.917 156.464-22.313 156.464-22.313l50.79-1.268 154.077 19.656 50.644-6.88L777.4 93.033l43.258-2.602 174.096-54.964" transform="translate(-403 -78)"/>
                        <path d="M5.47 180.22c1.371-.69 94.14-40.58 170.962-49.272 32.882-3.721 84.471 14.44 115.78 10.891 62.988-7.14 155.345-21.73 155.345-21.73l50.443-.89 153.265 18.466 50.863-5.91 76.424-36.894 43.944-4.273 172.088-55.404" transform="translate(-403 -78)"/>
                        <path d="M5.64 180.188c1.336-.613 93.542-37.17 172.764-46.134 33.909-3.837 84.666 11.751 116.952 8.091 64.957-7.364 154.228-21.147 154.228-21.147l50.098-.51 152.45 17.275 51.083-4.94 76.49-36.094 44.63-5.944 170.08-55.842" transform="translate(-403 -78)"/>
                        <path d="M5.809 180.156c1.303-.536 92.944-33.76 174.567-42.995 34.936-3.954 84.86 9.061 118.125 5.29 66.925-7.586 153.11-20.563 153.11-20.563l49.752-.133L653 137.842l51.301-3.973 76.556-35.291 45.315-7.615L994.246 34.68" transform="translate(-403 -78)"/>
                        <path d="M5.978 180.124c1.27-.46 92.346-30.349 176.37-39.857 35.963-4.07 85.055 6.373 119.298 2.49 68.893-7.81 151.992-19.98 151.992-19.98l49.406.246 150.825 14.897 51.52-3.004 76.622-34.49 46.001-9.286 166.065-56.72" transform="translate(-403 -78)"/>
                        <path d="M6.147 180.092c1.235-.383 91.748-26.939 178.172-36.718 36.991-4.186 85.25 3.683 120.472-.31 70.862-8.033 150.874-19.398 150.874-19.398l49.06.625 150.012 13.707 51.739-2.035 76.688-33.688 46.687-10.957 164.057-57.16" transform="translate(-403 -78)"/>
                        <path d="M6.315 180.06c1.203-.306 91.15-23.529 179.976-33.58 38.018-4.302 85.445.994 121.645-3.11 72.83-8.256 149.756-18.814 149.756-18.814l48.714 1.002 149.199 12.519 51.958-1.067 76.754-32.886 47.372-12.63 162.05-57.598" transform="translate(-403 -78)"/>
                        <path d="M6.484 180.028c1.17-.23 90.552-20.118 181.778-30.441 39.047-4.419 85.64-1.696 122.819-5.91 74.798-8.48 148.638-18.232 148.638-18.232l48.368 1.381 148.386 11.329 52.177-.097 76.82-32.086 48.058-14.3L993.57 33.634" transform="translate(-403 -78)"/>
                        <path d="M6.653 179.997c1.136-.154 89.954-16.71 183.58-27.304 40.075-4.535 85.836-4.385 123.993-8.71 76.767-8.703 147.52-17.649 147.52-17.649l48.022 1.76 147.573 10.14 52.396.87 76.886-31.283 48.744-15.971L993.4 33.373" transform="translate(-403 -78)"/>
                        <path d="M6.822 179.965c1.102-.077 89.356-13.3 185.383-24.166 41.102-4.65 86.03-7.073 125.166-11.51 78.735-8.926 146.402-17.065 146.402-17.065l47.676 2.138 146.76 8.95 52.615 1.84 76.952-30.483 49.43-17.642 156.026-58.916" transform="translate(-403 -78)"/>
                        <path d="M6.991 179.933c2.445 0 458.809-51.82 458.809-51.82L711.91 141.2l281.153-108.35" transform="translate(-403 -78)"/>
                        <path d="M7.011 180.73c1.108 0 100.98-14.913 204.166-26.594 13.319-1.507 27.601-2.313 40.947-3.825 35.739-4.048 74.168-8.926 105.056-12.43 60.622-6.874 106.228-10.813 107.187-10.09.494.37 39.143 2.683 39.15 2.67.02-.038 179.076 5.932 179.076 5.932l26.22 1.818 50.702-18.058 134.718-51.161 98.81-36.52" transform="translate(-403 -78)"/>
                        <path d="M7.031 181.528c1.08 0 101.776-18.65 202.383-30.038 12.985-1.47 27.787-1.523 40.799-2.996 34.845-3.948 75.676-9.62 105.79-13.035 59.108-6.704 105.013-9.437 106.932-7.992.987.744 39.055 3.282 39.069 3.256.04-.077 177.593 2.263 177.593 2.263l26.119 2.238 50.674-16.567L892.77 67.611l100.252-35.515" transform="translate(-403 -78)"/>
                        <path d="M7.05 182.326c1.053 0 102.573-22.386 200.6-33.482 12.653-1.432 27.973-.732 40.652-2.168 33.952-3.846 77.183-10.313 106.526-13.64 57.592-6.532 103.795-8.06 106.674-5.892 1.48 1.115 38.968 3.88 38.988 3.84.06-.114 176.112-1.404 176.112-1.404l26.016 2.657 50.646-15.075L891.31 66.229l101.694-34.51" transform="translate(-403 -78)"/>
                        <path d="M7.07 183.124c1.025 0 103.37-26.122 198.817-36.926 12.32-1.395 28.159.058 40.504-1.34 33.058-3.745 78.69-11.005 107.261-14.245 56.076-6.36 102.58-6.682 106.417-3.792 1.974 1.487 38.88 4.478 38.908 4.426.08-.154 174.63-5.074 174.63-5.074l25.913 3.076 50.619-13.583 139.71-50.818 103.135-33.505" transform="translate(-403 -78)"/>
                        <path d="M7.09 183.922c.998 0 104.166-29.858 197.033-40.37 11.987-1.357 28.346.849 40.357-.512 32.165-3.643 80.198-11.698 107.996-14.85 54.561-6.188 101.363-5.305 106.16-1.692 2.468 1.859 38.794 5.076 38.828 5.01.099-.19 173.147-8.741 173.147-8.741l25.812 3.495 50.59-12.092 141.375-50.703 104.576-32.501" transform="translate(-403 -78)"/>
                        <path d="M7.11 184.72c.97 0 104.962-33.594 195.25-43.815 11.654-1.319 28.531 1.64 40.209.318 31.271-3.543 81.705-12.391 108.731-15.456 53.046-6.016 100.147-3.927 105.904.408 2.96 2.23 38.706 5.673 38.746 5.595.12-.23 171.665-12.41 171.665-12.41l25.71 3.914 50.563-10.599 143.038-50.59L992.944 30.59" transform="translate(-403 -78)"/>
                        <path d="M7.13 185.518c.942 0 105.758-37.33 193.467-47.259 11.32-1.281 28.717 2.43 40.06 1.146 30.379-3.441 83.214-13.084 109.468-16.061 51.53-5.844 98.93-2.55 105.646 2.509 3.455 2.601 38.618 6.27 38.666 6.18.139-.269 170.183-16.079 170.183-16.079l25.608 4.333 50.534-9.108 144.703-50.474 107.46-30.492" transform="translate(-403 -78)"/>
                        <path d="M7.15 186.316c.914 0 106.554-41.066 191.683-50.703 10.988-1.244 28.903 3.221 39.913 1.974 29.485-3.34 84.72-13.776 110.203-16.666 50.014-5.672 97.713-1.172 105.39 4.609 3.948 2.973 38.53 6.868 38.584 6.764.16-.306 168.702-19.746 168.702-19.746l25.505 4.751 50.506-7.615 146.368-50.36 108.9-29.488" transform="translate(-403 -78)"/>
                        <path d="M7.17 187.114c.887 0 107.35-44.803 189.9-54.147 10.655-1.206 29.09 4.012 39.765 2.802 28.592-3.238 86.228-14.469 110.938-17.271 48.498-5.5 96.497.205 105.133 6.709 4.442 3.345 38.443 7.466 38.504 7.35.179-.346 167.22-23.416 167.22-23.416l25.403 5.171 50.478-6.124 148.031-50.246L992.884 29.46" transform="translate(-403 -78)"/>
                        <path d="M7.19 187.912c.859 0 108.147-48.539 188.116-57.591 10.322-1.169 29.276 4.802 39.618 3.63 27.698-3.137 87.736-15.161 111.673-17.876 46.983-5.329 95.281 1.583 104.876 8.809 4.935 3.716 38.356 8.064 38.424 7.934.198-.383 165.737-27.083 165.737-27.083l25.301 5.59 50.45-4.632L881.081 56.56l111.784-27.478" transform="translate(-403 -78)"/>
                        <path d="M7.21 188.71c.83 0 108.943-52.275 186.333-61.035 9.99-1.131 29.461 5.593 39.47 4.459 26.805-3.036 89.243-15.855 112.409-18.482 45.467-5.157 94.064 2.96 104.619 10.909 5.428 4.088 38.268 8.662 38.342 8.52.219-.422 164.256-30.753 164.256-30.753l25.199 6.009 50.421-3.14L879.62 55.18l113.226-26.474" transform="translate(-403 -78)"/>
                        <path d="M7.23 189.508c.803 0 109.74-56.01 184.55-64.48 9.656-1.092 29.647 6.384 39.322 5.288 25.911-2.935 90.75-16.548 113.144-19.087 43.951-4.985 92.848 4.337 104.362 13.009 5.922 4.46 38.18 9.26 38.262 9.104.238-.46 162.773-34.42 162.773-34.42l25.097 6.428 50.394-1.649L878.158 53.8l114.667-25.47" transform="translate(-403 -78)"/>
                        <path d="M7.25 190.306c.775 0 110.536-59.747 182.766-67.924 9.323-1.055 29.834 7.175 39.175 6.117 25.018-2.834 92.258-17.241 113.879-19.693 42.436-4.813 91.631 5.715 104.106 15.109 6.415 4.831 38.093 9.858 38.18 9.689.259-.498 161.292-38.089 161.292-38.089l24.995 6.847 50.365-.156 154.689-49.788 116.108-24.465" transform="translate(-403 -78)"/>
                        <path d="M7.27 191.103c.747 0 111.332-63.482 180.983-71.367 8.99-1.017 30.02 7.965 39.027 6.945 24.124-2.733 93.765-17.934 114.614-20.298 40.92-4.64 90.415 7.092 103.849 17.209 6.909 5.203 38.006 10.456 38.1 10.274.278-.537 159.81-41.757 159.81-41.757l24.892 7.266 50.338 1.335 156.353-49.674 117.549-23.46" transform="translate(-403 -78)"/>
                        <path d="M7.29 191.901c.72 0 112.128-67.219 179.2-74.81 8.656-.98 30.205 8.755 38.88 7.772 23.23-2.631 95.271-18.626 115.348-20.903 39.405-4.47 89.199 8.47 103.592 19.309 7.402 5.575 37.918 11.054 38.02 10.859.298-.575 158.327-45.426 158.327-45.426l24.79 7.685 50.31 2.828 158.018-49.56L992.765 27.2" transform="translate(-403 -78)"/>
                        <path d="M7.31 192.7c.692 0 112.924-70.956 177.416-78.256 8.324-.942 30.392 9.546 38.732 8.601 22.337-2.53 96.78-19.319 116.084-21.508 37.89-4.297 87.983 9.847 103.335 21.41 7.896 5.945 37.831 11.65 37.94 11.442.317-.612 156.845-49.093 156.845-49.093L662.35 93.4l50.281 4.32 159.682-49.446 120.432-21.45" transform="translate(-403 -78)"/>
                        <path d="M7.33 193.497c.664 0 113.72-74.69 175.633-81.7 7.99-.904 30.577 10.338 38.584 9.43 21.444-2.428 98.287-20.011 116.82-22.113 36.373-4.125 86.766 11.225 103.078 23.51 8.39 6.317 37.743 12.249 37.858 12.027.338-.65 155.363-52.761 155.363-52.761l24.587 8.522 50.253 5.811 161.346-49.33 121.873-20.446" transform="translate(-403 -78)"/>
                        <path d="M7.35 194.295c.636 0 114.517-78.427 173.85-85.143 7.657-.867 30.763 11.127 38.436 10.258 20.55-2.328 99.795-20.705 117.555-22.719 34.858-3.953 85.55 12.602 102.821 25.61 8.883 6.689 37.656 12.846 37.778 12.612.357-.69 153.88-56.43 153.88-56.43l24.485 8.942 50.225 7.303L869.39 45.51l123.316-19.44" transform="translate(-403 -78)"/>
                        <path d="M7.369 195.093c.61 0 115.314-82.163 172.067-88.587 7.325-.83 30.95 11.918 38.29 11.086 19.656-2.226 101.301-21.398 118.289-23.324 33.343-3.781 84.333 13.98 102.565 27.71 9.376 7.06 37.568 13.444 37.696 13.197.378-.727 152.4-60.098 152.4-60.098l24.381 9.36 50.198 8.795L867.929 44.13l124.757-18.437" transform="translate(-403 -78)"/>
                        <path d="M7.389 195.89c.581 0 116.11-85.898 170.283-92.03 6.993-.792 31.136 12.708 38.142 11.914 18.763-2.125 102.81-22.09 119.025-23.93 31.827-3.609 83.117 15.358 102.308 29.81 9.87 7.433 37.48 14.043 37.616 13.783.397-.766 150.917-63.767 150.917-63.767l24.28 9.78 50.17 10.287 166.338-48.988 126.198-17.432" transform="translate(-403 -78)"/>
                        <path d="M7.409 196.689c.554 0 116.907-89.636 168.5-95.476 6.66-.754 31.322 13.5 37.994 12.744 17.87-2.024 104.317-22.784 119.76-24.535 30.312-3.438 81.9 16.734 102.051 31.91 10.364 7.804 37.394 14.64 37.536 14.367.417-.804 149.435-67.435 149.435-67.435l24.177 10.199 50.142 11.778 168.003-48.873L992.646 24.94" transform="translate(-403 -78)"/>
                        <path d="M7.429 197.487c.526 0 117.703-93.372 166.717-98.92 6.326-.716 31.507 14.29 37.846 13.572 16.976-1.923 105.824-23.476 120.496-25.14 28.795-3.266 80.684 18.112 101.794 34.01 10.856 8.175 37.306 15.238 37.454 14.952.437-.843 147.953-71.104 147.953-71.104l24.076 10.618 50.113 13.27 169.667-48.758 129.081-15.423" transform="translate(-403 -78)"/>
                        <path d="M7.448 198.285c.499 0 118.5-97.108 164.934-102.364 5.993-.679 31.694 15.08 37.7 14.4 16.082-1.821 107.33-24.169 121.23-25.745 27.28-3.094 79.468 19.49 101.537 36.11 11.35 8.547 37.218 15.836 37.374 15.537.457-.881 146.471-74.772 146.471-74.772l23.973 11.037 50.085 14.762 171.332-48.645 130.522-14.418" transform="translate(-403 -78)"/>
                        <path d="M7.468 199.082c.471 0 119.296-100.843 163.15-105.807 5.661-.64 31.88 15.871 37.552 15.229 15.19-1.72 108.839-24.862 121.966-26.351 25.765-2.922 78.251 20.867 101.28 38.21 11.844 8.919 37.131 16.434 37.293 16.122.477-.92 144.99-78.44 144.99-78.44l23.87 11.455 50.058 16.254 172.996-48.53L992.586 23.81" transform="translate(-403 -78)"/>
                        <path d="M7.488 199.88c.443 0 120.093-104.58 161.367-109.251 5.328-.603 32.066 16.662 37.404 16.057 14.296-1.62 110.346-25.555 122.701-26.956 24.25-2.75 77.035 22.244 101.024 40.31 12.337 9.29 37.043 17.032 37.212 16.707.497-.958 143.507-82.11 143.507-82.11l23.77 11.876L684.5 84.259l174.66-48.416 133.405-12.41" transform="translate(-403 -78)"/>
                        <path d="M7.508 200.678c.415 0 120.889-108.315 159.584-112.696 4.994-.565 32.252 17.453 37.256 16.886 13.402-1.518 111.854-26.247 123.436-27.56 22.734-2.58 75.819 23.62 100.767 42.409 12.83 9.662 36.956 17.63 37.131 17.292.517-.996 142.026-85.777 142.026-85.777l23.667 12.293 50 19.238L857.7 34.462l134.847-11.405" transform="translate(-403 -78)"/>
                        <path d="M7.528 201.476c.388 0 121.685-112.051 157.8-116.14 4.662-.527 32.438 18.244 37.11 17.714 12.508-1.417 113.36-26.94 124.17-28.166 21.219-2.406 74.603 24.999 100.51 44.51 13.324 10.034 36.869 18.228 37.051 17.876.537-1.034 140.544-89.445 140.544-89.445l23.564 12.713 49.973 20.73L856.239 33.08l136.288-10.4" transform="translate(-403 -78)"/>
                        <path d="M7.548 202.274c.36 0 122.481-115.788 156.017-119.584 4.329-.49 32.624 19.034 36.961 18.543 11.615-1.316 114.868-27.634 124.907-28.772 19.702-2.234 73.385 26.377 100.253 46.61 13.817 10.406 36.78 18.826 36.97 18.461.556-1.072 139.061-93.113 139.061-93.113L625.18 57.55l49.944 22.222 179.654-48.073 137.729-9.395" transform="translate(-403 -78)"/>
                        <path d="M7.568 203.072c.332 0 123.278-119.524 154.234-123.028 3.995-.452 32.81 19.824 36.813 19.37C209.337 98.2 314.991 71.09 324.257 70.039c18.187-2.062 72.17 27.754 99.996 48.71 14.311 10.777 36.694 19.424 36.89 19.046.576-1.11 137.579-96.782 137.579-96.782l23.36 13.551L672 78.276l181.317-47.958 139.171-8.39" transform="translate(-403 -78)"/>
                        <path d="M7.588 203.87c.304 0 124.074-123.26 152.45-126.472 3.663-.415 32.996 20.615 36.666 20.2 9.828-1.114 117.883-29.02 126.377-29.983 16.672-1.89 70.953 29.131 99.74 50.81 14.804 11.149 36.606 20.021 36.808 19.631.596-1.149 136.097-100.45 136.097-100.45l23.259 13.97 49.888 25.205 182.982-47.844 140.612-7.386" transform="translate(-403 -78)"/>
                        <path d="M7.607 204.668c.277 0 124.871-126.996 150.668-129.916 3.33-.377 33.182 21.406 36.518 21.028 8.935-1.013 119.39-29.712 127.112-30.588 15.156-1.719 69.737 30.509 99.483 52.91 15.298 11.52 36.518 20.62 36.728 20.216C458.732 137.131 592.73 34.2 592.73 34.2l23.156 14.39 49.86 26.696 184.647-47.73 142.053-6.38" transform="translate(-403 -78)"/>
                        <path d="M7.627 205.466c.25 0 125.667-130.732 148.884-133.36 2.997-.34 33.368 22.196 36.371 21.856 8.041-.911 120.898-30.405 127.847-31.193 13.64-1.547 68.52 31.886 99.226 55.01 15.792 11.892 36.431 21.217 36.647 20.801.636-1.226 133.134-107.787 133.134-107.787L612.79 45.6l49.832 28.188 186.31-47.614 143.495-5.378" transform="translate(-403 -78)"/>
                        <path d="M7.647 206.264c.222 0 126.464-134.468 147.1-136.804 2.665-.302 33.555 22.986 36.224 22.684 7.148-.81 122.405-31.097 128.583-31.798 12.124-1.375 67.303 33.264 98.968 57.11 16.286 12.264 36.344 21.815 36.567 21.386.656-1.264 131.651-111.456 131.651-111.456l22.952 15.227 49.804 29.68 187.975-47.5 144.936-4.372" transform="translate(-403 -78)"/>
                        <path d="M7.667 207.062c.194 0 127.26-138.205 145.318-140.249 2.33-.264 33.74 23.778 36.075 23.513 6.255-.708 123.913-31.79 129.318-32.403 10.609-1.203 66.087 34.641 98.712 59.21 16.778 12.636 36.256 22.413 36.486 21.97.675-1.301 130.169-115.123 130.169-115.123l22.85 15.646 49.776 31.172L846.01 23.412l146.377-3.368" transform="translate(-403 -78)"/>
                        <path d="M7.687 207.86c.166 0 128.056-141.94 143.534-143.693 1.998-.226 33.926 24.568 35.928 24.342 5.36-.608 125.42-32.483 130.053-33.009 9.094-1.031 64.871 36.019 98.455 61.31 17.272 13.008 36.169 23.011 36.405 22.556.696-1.34 128.688-118.793 128.688-118.793l22.747 16.065 49.748 32.665L844.55 22.03l147.819-2.363" transform="translate(-403 -78)"/>
                        <path d="M7.707 208.657c.138 0 128.853-145.676 141.75-147.136 1.666-.188 34.113 25.359 35.781 25.17 4.467-.506 126.927-33.176 130.788-33.614 7.578-.86 63.655 37.396 98.198 63.41 17.766 13.38 36.082 23.609 36.325 23.14.715-1.378 127.205-122.46 127.205-122.46L600.4 33.651l49.72 34.156L843.088 20.65l149.26-1.359" transform="translate(-403 -78)"/>
                        <path d="M7.727 209.455c.11 0 129.649-149.412 139.967-150.58 1.332-.15 34.298 26.15 35.633 25.998 3.574-.405 128.435-33.869 131.524-34.219 6.062-.687 62.438 38.773 97.94 65.51 18.26 13.751 35.995 24.207 36.244 23.726.736-1.418 125.724-126.13 125.724-126.13l22.543 16.903 49.692 35.649 194.632-47.043 150.702-.355" transform="translate(-403 -78)"/>
                        <path d="M7.747 210.253c.083 0 130.445-153.148 138.184-154.024.999-.113 34.484 26.94 35.485 26.827 2.68-.304 129.942-34.562 132.259-34.825 4.546-.515 61.221 40.15 97.684 67.61 18.753 14.123 35.907 24.805 36.163 24.31.755-1.455 124.242-129.797 124.242-129.797l22.44 17.322 49.665 37.14 196.296-46.929 152.143.65" transform="translate(-403 -78)"/>
                        <path d="M7.766 211.051c.056 0 131.242-156.884 136.402-157.468.665-.076 34.67 27.73 35.337 27.655 1.787-.203 131.45-35.255 132.994-35.43 3.031-.344 60.005 41.528 97.427 69.71 19.246 14.494 35.82 25.403 36.083 24.895.775-1.493 122.76-133.465 122.76-133.465l22.338 17.74 49.636 38.632 197.96-46.814 153.585 1.655" transform="translate(-403 -78)"/>
                        <path d="M7.786 211.85c.028 0 132.039-160.622 134.618-160.914.333-.037 34.856 28.522 35.19 28.484.893-.101 132.957-35.947 133.73-36.035 1.515-.172 58.788 42.906 97.17 71.81 19.74 14.866 35.731 26 36.001 25.48.795-1.532 121.278-137.134 121.278-137.134l22.236 18.16 49.608 40.124 199.625-46.7 155.026 2.66" transform="translate(-403 -78)"/>
                        <path d="M7.806 212.647L140.641 48.29l35.042 29.312 134.464-36.64s132.02 101.545 132.835 99.975C443.797 139.367 562.777.135 562.777.135l71.715 60.194L835.78 13.744l156.467 3.664" transform="translate(-403 -78)"/>
                    </g>
                </g>
                <path fill="#EDEDED" d="M223 42l.96.008C255.55 42.513 281 67.92 281 99.189v1.622C281 132.395 255.033 158 223 158s-58-25.605-58-57.19v-1.62C165 67.604 190.967 42 223 42zm34 35h-42.505c-11.738 0-21.254 9.36-21.254 20.906 0 5.773 2.382 10.997 6.23 14.779L190 122h42.505c11.738 0 21.254-9.36 21.254-20.906 0-5.774-2.388-10.992-6.236-14.774L257 77zm-26.116 11.8c5.911 0 10.72 4.637 10.874 10.415l.004.285c0 5.91-4.87 10.7-10.878 10.7h-28.888l5.956-5.858c-1.726-1.698-2.775-4.062-2.711-6.661.122-4.972 4.387-8.88 9.443-8.88h16.2z" mask="url(#m9jxpdxvyb)" opacity=".372" style="mix-blend-mode:overlay"/>
            </g>
        </g>
    </g>
</svg>
