<svg xmlns="http://www.w3.org/2000/svg" width="88" height="88" viewBox="0 0 88 88">
    <g fill="none" fill-rule="evenodd">
        <g fill="#5B8FFF">
            <path d="M959.753 237c24.164 0 43.753 19.339 43.753 43.194v1.225c0 23.855-19.59 43.194-43.753 43.194-24.164 0-43.753-19.339-43.753-43.194v-1.225C916 256.34 935.589 237 959.753 237zm23.573 28h-29.39c-8.115 0-14.695 6.588-14.695 14.714 0 4.063 1.647 7.74 4.307 10.4L937 296.672h29.39c8.116 0 14.695-6.587 14.695-14.713 0-4.064-1.65-7.737-4.311-10.398l6.552-6.56zm-17.574 8c4.108 0 7.438 3.381 7.438 7.553 0 4.171-3.33 7.553-7.438 7.553H946l4.072-4.136c-1.18-1.198-1.897-2.866-1.854-4.701.084-3.51 3-6.269 6.457-6.269z" transform="translate(-916 -237)"/>
        </g>
    </g>
</svg>
