<svg xmlns="http://www.w3.org/2000/svg" width="30" height="30" viewBox="0 0 30 30">
    <g fill="none" fill-rule="evenodd">
        <g>
            <g transform="translate(-265 -335) translate(265 335)">
                <circle cx="15" cy="15" r="15" fill="#3D64B6"/>
                <path fill="#F4F4F4" d="M16.063 8.001c.972.004 1.245.015 1.822.041.745.034 1.254.152 1.7.325.461.179.85.418 1.24.807.39.39.629.78.808 1.24.172.446.29.954.325 1.7.028.61.039.881.042 2.001v1.77c-.003 1.12-.014 1.39-.042 2.001-.035.745-.153 1.254-.325 1.7-.18.46-.419.85-.808 1.24-.389.389-.779.628-1.24.807-.445.173-.954.291-1.7.325-.169.008-.312.015-.455.02l-.172.006c-.322.01-.689.014-1.373.016h-1.77c-1.12-.003-1.39-.014-2.001-.042-.745-.034-1.254-.152-1.7-.325-.46-.179-.85-.418-1.24-.808-.389-.389-.628-.78-.807-1.24-.173-.445-.29-.954-.325-1.699l-.016-.37-.01-.258c-.008-.292-.013-.622-.015-1.194v-2.128c.003-.629.008-.965.019-1.28l.006-.173.016-.37c.033-.744.152-1.253.325-1.699.18-.46.419-.85.808-1.24.39-.389.78-.628 1.24-.807.445-.173.954-.29 1.7-.325.576-.026.85-.037 1.822-.04h2.126zm-1.69 1.258c-1.305.002-1.555.01-2.201.04-.683.031-1.053.145-1.3.241-.327.127-.56.28-.805.524-.245.245-.397.478-.524.805-.096.247-.21.617-.24 1.3l-.017.364-.006.168c-.01.332-.016.684-.017 1.394v1.58c0 .797.004 1.19.015 1.534l.005.168c.005.14.011.281.02.449.03.682.144 1.053.24 1.3.127.326.279.559.524.804s.478.397.805.524c.247.095.617.21 1.3.241l.364.016.168.006c.363.012.751.017 1.603.018h1.164c1.01 0 1.433-.005 1.826-.018l.168-.006.365-.016c.682-.031 1.053-.145 1.3-.241.326-.127.559-.279.804-.524s.397-.477.524-.804c.096-.246.21-.617.24-1.3.028-.603.038-.861.04-1.959l.002-.624v-.49l-.001-.623c-.003-1.097-.013-1.356-.04-1.96-.031-.682-.145-1.052-.241-1.299-.127-.326-.28-.56-.524-.805-.245-.245-.478-.397-.805-.523-.246-.096-.617-.21-1.3-.242-.57-.025-.832-.035-1.784-.038l-.366-.001h-1.306v-.003zM15 11.405l.19.005c1.897.1 3.404 1.669 3.404 3.59 0 1.986-1.609 3.595-3.594 3.595-1.986 0-3.595-1.61-3.595-3.595s1.61-3.595 3.595-3.595zm0 1.262c-1.289 0-2.334 1.044-2.334 2.333 0 1.289 1.045 2.334 2.334 2.334 1.288 0 2.333-1.045 2.333-2.334 0-1.289-1.045-2.333-2.333-2.333zm3.737-2.244c.463 0 .84.377.84.84 0 .464-.377.84-.84.84-.464 0-.84-.376-.84-.84 0-.464.376-.84.84-.84z"/>
            </g>
        </g>
    </g>
</svg>
