<svg xmlns="http://www.w3.org/2000/svg" width="30" height="30" viewBox="0 0 30 30">
    <g fill="none" fill-rule="evenodd">
        <g fill="#EDEDED">
            <g>
                <path d="M15 0l.318.003C23.455.17 30 6.727 30 14.79v.42C30 23.378 23.284 30 15 30 6.716 30 0 23.378 0 15.21v-.42C0 6.622 6.716 0 15 0zm8.69 9.123H12.665c-3.045 0-5.513 2.434-5.513 5.436 0 1.501.618 2.86 1.616 3.843L6.31 20.824h11.025c3.045 0 5.513-2.434 5.513-5.436 0-1.501-.619-2.858-1.617-3.842l2.458-2.423zm-6.774 3.068c1.5 0 2.728 1.155 2.816 2.613l.006.17c0 1.536-1.264 2.782-2.822 2.782H9.423l1.545-1.524c-.448-.441-.72-1.056-.704-1.732.032-1.292 1.138-2.309 2.45-2.309h4.202z" transform="translate(-480 -15) translate(480 15)"/>
            </g>
        </g>
    </g>
</svg>
