<svg xmlns="http://www.w3.org/2000/svg" width="369" height="61" viewBox="0 0 369 61">
    <g fill="none" fill-rule="evenodd">
        <g>
            <g>
                <path fill="#5B8FFF" d="M254.186 21l.076.106 11.517 16.055c.142.198.439.198.58 0l11.46-16.012c.067-.094.175-.149.29-.149h2.325c.197 0 .356.158.356.353v19.284c0 .195-.16.354-.356.354h-2.442c-.197 0-.356-.159-.356-.354v-13.01c0-.344-.445-.485-.646-.205l-9.624 13.42c-.067.093-.175.149-.29.149h-2.235c-.115 0-.223-.055-.29-.149l-9.625-13.395c-.2-.28-.645-.14-.645.205v12.985c0 .195-.16.354-.356.354h-2.442c-.197 0-.356-.159-.356-.354V21.353c0-.195.16-.353.356-.353h2.703zm49.719 0c.197 0 .356.158.356.353v2.038c0 .195-.16.354-.356.354h-16.097c-.196 0-.356.158-.356.353v4.632c0 .195.16.353.356.353h15.289c.196 0 .356.159.356.354v2.01c0 .195-.16.353-.356.353h-15.289c-.196 0-.356.158-.356.354v5.766c0 .196.16.354.356.354h16.097c.197 0 .356.158.356.353v2.01c0 .195-.16.354-.356.354h-19.473c-.197 0-.356-.159-.356-.354V21.353c0-.195.159-.353.356-.353zm20.982 0c5.208 0 7.333 1.741 7.333 6.01v8.166c0 2.03-.509 3.41-1.6 4.342-1.16.991-3.036 1.473-5.733 1.473h-17.43c-.197 0-.357-.159-.357-.354V21.354c0-.196.16-.354.356-.354zm13.667 0c.197 0 .356.158.356.353v19.284c0 .195-.159.354-.356.354h-2.665c-.196 0-.355-.159-.355-.354V21.353c0-.195.159-.353.355-.353zm17.247 0c.12 0 .231.06.297.159l12.798 19.284c.156.235-.014.548-.297.548h-3.18l-.075-.115-10.223-15.77c-.14-.215-.457-.216-.598-.002L344.196 40.83c-.066.1-.178.16-.298.16h-2.93c-.284 0-.454-.313-.297-.548l12.881-19.284c.066-.099.177-.158.297-.158zm-30.914 2.745h-14.054c-.196 0-.356.158-.356.353V37.92c0 .195.16.354.356.354h14.054c3.016 0 3.984-.753 3.984-3.098v-8.167c0-2.501-.931-3.264-3.984-3.264z" transform="translate(-776 -5948) translate(776 5948)"/>
                <path fill="#EDEDED" d="M87.366 21c.197 0 .356.158.356.353v2.038c0 .195-.16.354-.356.354H71.218c-1.296 0-2.841.374-2.841 2.157v.996c0 .985.493 2.158 2.841 2.158h11.345c2.837 0 6.218.855 6.218 4.93v2.103c0 4.051-3.381 4.902-6.218 4.902H65.997c-.196 0-.356-.159-.356-.354v-2.01c0-.195.16-.353.356-.353h16.566c1.77 0 2.87-.837 2.87-2.185v-2.132c0-1.39-1.02-2.157-2.87-2.157H71.218c-2.837 0-6.218-.855-6.218-4.93v-.94c0-4.075 3.381-4.93 6.218-4.93zm7.08 0c.197 0 .357.158.357.353v14.708c0 1.489.947 2.213 2.897 2.213h12.042c1.888 0 2.73-.682 2.73-2.213V21.353c0-.195.159-.353.355-.353h2.638c.196 0 .356.158.356.353v14.68c0 1.682-.326 2.784-1.057 3.572-.864.933-2.315 1.386-4.437 1.386H97.7c-2.862 0-6.274-.86-6.274-4.957v-14.68c0-.196.16-.354.356-.354zm40.55 0c2.863 0 6.275.86 6.275 4.957v2.74c0 4.098-3.412 4.958-6.274 4.958h-12.214c-.196 0-.356.158-.356.353v6.63c0 .194-.16.353-.356.353h-2.665c-.196 0-.356-.159-.356-.354V21.354c0-.196.16-.354.356-.354zm25.06 0c2.85 0 6.247.86 6.247 4.957v1.357c0 2.693-1.553 4.376-4.4 4.808-.247.037-.383.303-.263.52l4.325 7.825c.13.236-.042.524-.312.524h-2.804c-.13 0-.25-.07-.312-.184l-4.62-8.353c-.062-.113-.181-.183-.311-.183h-10.348c-.197 0-.356.158-.356.353v8.013c0 .195-.16.354-.356.354h-2.665c-.197 0-.356-.159-.356-.354V21.354c0-.196.159-.354.356-.354zm28.748 0c.197 0 .356.158.356.353v2.038c0 .195-.159.354-.356.354h-16.096c-.197 0-.356.158-.356.353v4.632c0 .195.16.353.356.353h15.288c.197 0 .356.159.356.354v2.01c0 .195-.16.353-.356.353h-15.288c-.197 0-.356.158-.356.354v5.766c0 .196.16.354.356.354h16.096c.197 0 .356.158.356.353v2.01c0 .195-.159.354-.356.354h-19.473c-.197 0-.356-.159-.356-.354V21.353c0-.195.16-.353.356-.353zm6.255 0l.076.106 11.517 16.055c.142.198.439.198.58 0l11.46-16.012c.067-.094.175-.149.29-.149h2.325c.196 0 .356.158.356.353v19.284c0 .195-.16.354-.356.354h-2.442c-.197 0-.356-.159-.356-.354v-13.01c0-.344-.445-.485-.646-.205l-9.624 13.42c-.067.093-.175.149-.29.149h-2.235c-.116 0-.223-.055-.29-.149l-9.625-13.395c-.2-.28-.645-.14-.645.205v12.985c0 .195-.16.354-.356.354h-2.442c-.197 0-.356-.159-.356-.354V21.353c0-.195.16-.353.356-.353h2.703zm49.719 0c.197 0 .356.158.356.353v2.038c0 .195-.16.354-.356.354H228.68c-.196 0-.356.158-.356.353v4.632c0 .195.16.353.356.353h15.289c.196 0 .356.159.356.354v2.01c0 .195-.16.353-.356.353H228.68c-.196 0-.356.158-.356.354v5.766c0 .196.16.354.356.354h16.097c.197 0 .356.158.356.353v2.01c0 .195-.16.354-.356.354h-19.474c-.196 0-.355-.159-.355-.354V21.353c0-.195.159-.353.355-.353zm-111.454 2.745h-10.54c-.197 0-.357.158-.357.353v6.486c0 .196.16.354.356.354h11.768c3.167 0 3.333-1.495 3.342-2.117v-2.864c0-1.675-1.11-2.212-4.569-2.212zm26.733 0h-12.8c-.196 0-.355.158-.355.353v5.075c0 .195.159.353.356.353h12.799c1.84 0 2.897-.796 2.897-2.185v-1.384c0-1.489-.948-2.212-2.897-2.212zM30.5 0l.504.004C47.616.27 61 13.631 61 30.074v.852C61 47.536 47.345 61 30.5 61S0 47.535 0 30.926v-.852C0 13.464 13.655 0 30.5 0zm0 2.44c-3.788 0-7.463.731-10.922 2.173-3.341 1.393-6.342 3.387-8.92 5.927-2.577 2.54-4.6 5.499-6.013 8.792-1.463 3.409-2.205 7.03-2.205 10.765v.806c0 3.734.742 7.356 2.205 10.765 1.413 3.293 3.436 6.251 6.014 8.791 2.577 2.54 5.578 4.535 8.919 5.928 3.459 1.442 7.134 2.173 10.922 2.173 3.788 0 7.463-.731 10.922-2.173 3.341-1.393 6.342-3.387 8.92-5.928 2.577-2.54 4.6-5.498 6.013-8.79 1.463-3.41 2.205-7.032 2.205-10.766v-.806c0-3.734-.742-7.356-2.205-10.765-1.413-3.293-3.436-6.251-6.014-8.792-2.577-2.54-5.578-4.534-8.919-5.927C37.963 3.171 34.288 2.44 30.5 2.44zM48 19l-4.809 4.764c1.952 1.933 3.164 4.6 3.164 7.55C46.355 37.217 41.526 42 35.57 42H14l4.806-4.761c-1.952-1.933-3.161-4.603-3.161-7.554C15.645 23.784 20.474 19 26.43 19H48zm-13.253 6.031h-8.221c-2.565 0-4.73 1.998-4.792 4.54-.032 1.328.5 2.536 1.376 3.404l-3.022 2.994h14.66c3.048 0 5.52-2.449 5.52-5.469l-.005-.22c-.117-2.918-2.541-5.249-5.516-5.249z" transform="translate(-776 -5948) translate(776 5948)"/>
            </g>
        </g>
    </g>
</svg>
