<svg xmlns="http://www.w3.org/2000/svg" width="30" height="30" viewBox="0 0 30 30">
    <g fill="none" fill-rule="evenodd">
        <g>
            <g>
                <path fill="#3D64B6" d="M0 15C0 6.716 6.716 0 15 0c8.284 0 15 6.716 15 15 0 8.284-6.716 15-15 15-8.284 0-15-6.716-15-15z" transform="translate(-265 -455) translate(265 455)"/>
                <path fill="#F4F4F4" d="M14.535 18.745l-1.856.975c-.489.257-1.093.07-1.35-.42-.103-.194-.138-.417-.101-.634l.354-2.066c.056-.325-.051-.656-.287-.885L9.794 14.25c-.396-.385-.404-1.018-.019-1.414.154-.157.355-.26.573-.291l2.074-.302c.326-.047.608-.252.753-.547l.928-1.88c.245-.495.844-.699 1.34-.454.197.097.356.257.454.454l.928 1.88c.145.295.427.5.753.547l2.074.302c.547.079.925.586.846 1.133-.032.218-.134.419-.292.572l-1.5 1.464c-.237.23-.344.56-.288.885l.354 2.066c.093.544-.272 1.061-.817 1.155-.216.037-.44.002-.634-.1l-1.856-.976c-.291-.154-.639-.154-.93 0z" transform="translate(-265 -455) translate(265 455)"/>
            </g>
        </g>
    </g>
</svg>
