<svg xmlns="http://www.w3.org/2000/svg" width="230" height="129" viewBox="0 0 230 129">
    <g fill="none" fill-rule="evenodd">
        <g>
            <g>
                <path fill="#F4F4F4" d="M144.262 113.507l.057.078 8.6 11.99c.093.13.274.145.39.048l.044-.048 8.557-11.957c.038-.053.093-.089.154-.104l.063-.007h1.736c.126 0 .231.086.259.203l.007.06v14.4c0 .126-.088.23-.205.258l-.061.007h-1.824c-.125 0-.23-.087-.258-.204l-.007-.06v-9.716c0-.233-.275-.342-.438-.202l-.045.05-7.186 10.02c-.038.053-.093.09-.154.104l-.063.008h-1.67c-.064 0-.125-.024-.173-.064l-.043-.047-7.187-10.004c-.136-.19-.423-.12-.474.088l-.008.066v9.697c0 .125-.087.23-.205.257l-.06.007h-1.824c-.126 0-.232-.087-.26-.204l-.006-.06v-14.4c0-.126.087-.23.205-.257l.06-.007h2.02zm37.128 0c.126 0 .231.086.259.203l.007.06v1.522c0 .125-.087.23-.205.257l-.06.007H169.37c-.126 0-.231.087-.259.204l-.007.06v3.459c0 .125.087.23.205.257l.06.007h11.418c.125 0 .23.087.258.203l.007.06v1.502c0 .125-.087.23-.205.257l-.06.007H169.37c-.126 0-.231.086-.259.203l-.007.06v4.307c0 .125.087.23.205.257l.06.007h12.021c.126 0 .231.087.259.203l.007.06v1.502c0 .125-.087.23-.205.257l-.06.007h-14.543c-.126 0-.231-.087-.259-.204l-.007-.06v-14.4c0-.126.088-.23.205-.257l.061-.007h14.542zm15.668 0c3.8 0 5.401 1.24 5.474 4.268l.002.219v6.098c0 1.516-.38 2.547-1.195 3.243-.815.696-2.104 1.056-3.932 1.096l-.349.004h-13.016c-.126 0-.231-.087-.259-.204l-.007-.06v-14.4c0-.125.088-.23.205-.257l.061-.007h13.016zm10.207 0c.125 0 .23.086.258.203l.007.06v14.4c0 .126-.087.23-.204.258l-.061.007h-1.99c-.126 0-.232-.087-.26-.204l-.006-.06v-14.4c0-.126.087-.23.205-.257l.06-.007h1.99zm12.878 0c.067 0 .131.025.18.068l.042.05 9.557 14.4c.104.156.015.358-.154.401l-.068.009h-2.374l-.056-.086-7.634-11.776c-.092-.141-.284-.16-.401-.054l-.045.052-7.713 11.744c-.036.056-.093.095-.156.111l-.066.009h-2.188c-.188 0-.31-.186-.252-.35l.03-.06 9.62-14.4c.036-.056.092-.094.156-.11l.065-.008h1.457zm-203.441 0c.126 0 .231.086.259.203l.007.06v1.522c0 .125-.088.23-.205.257l-.061.007H4.643c-.927 0-2.025.257-2.115 1.45l-.006.16v.745c0 .706.339 1.541 1.918 1.607l.203.004h8.472c2.063 0 4.511.606 4.639 3.446l.005.235v1.571c0 2.946-2.394 3.626-4.476 3.66H.745c-.126 0-.232-.086-.26-.203l-.006-.06v-1.501c0-.125.087-.23.205-.257l.06-.007h12.371c1.259 0 2.064-.567 2.137-1.49l.006-.142v-1.592c0-.989-.69-1.555-1.95-1.607l-.193-.003H4.643c-2.062 0-4.51-.606-4.638-3.446L0 117.89v-.703c0-2.963 2.394-3.646 4.475-3.68l.168-.001h12.059zm5.287 0c.126 0 .232.086.26.203l.006.06v10.984c0 1.06.645 1.601 1.97 1.648l.194.004h8.992c1.346 0 1.98-.464 2.035-1.5l.003-.152V113.77c0-.125.088-.23.205-.257l.061-.007h1.97c.125 0 .23.087.258.204l.007.06v10.963c0 1.256-.243 2.078-.788 2.667-.606.653-1.596.99-3.023 1.03l-.29.005h-9.43c-2.083 0-4.555-.61-4.68-3.472l-.005-.23V113.77c0-.125.087-.23.204-.257l.061-.007h1.99zm30.281 0c2.083 0 4.555.61 4.68 3.47l.005.231v2.047c0 2.98-2.418 3.667-4.52 3.7l-.165.002h-9.12c-.126 0-.231.086-.259.203l-.007.06v4.95c0 .126-.087.23-.205.258l-.06.007h-1.991c-.126 0-.231-.087-.259-.204l-.007-.06v-14.4c0-.125.088-.23.205-.257l.061-.007H52.27zm18.714 0c2.073 0 4.534.61 4.66 3.47l.004.231v1.013c0 2.012-1.16 3.268-3.286 3.59-.16.025-.259.18-.22.327l.024.062 3.23 5.844c.086.156-.006.343-.169.383l-.064.008h-2.094c-.077 0-.15-.034-.2-.09l-.033-.047-3.45-6.238c-.037-.068-.101-.115-.175-.13l-.057-.007h-7.728c-.126 0-.231.087-.259.203l-.007.06v5.985c0 .125-.087.23-.205.257l-.06.007h-1.99c-.126 0-.232-.087-.26-.204l-.006-.06v-14.4c0-.125.087-.23.204-.257l.061-.007h12.08zm21.467 0c.126 0 .232.086.26.203l.006.06v1.522c0 .125-.087.23-.205.257l-.06.007h-12.02c-.127 0-.232.087-.26.204l-.007.06v3.459c0 .125.088.23.205.257l.061.007h11.417c.126 0 .231.087.259.203l.007.06v1.502c0 .125-.088.23-.205.257l-.061.007H80.43c-.126 0-.231.086-.259.203l-.007.06v4.307c0 .125.088.23.205.257l.061.007h12.02c.126 0 .232.087.26.203l.006.06v1.502c0 .125-.087.23-.205.257l-.06.007H77.908c-.125 0-.23-.087-.258-.204l-.007-.06v-14.4c0-.126.087-.23.204-.257l.061-.007h14.542zm4.671 0l.056.078 8.601 11.99c.093.13.274.145.389.048l.044-.048 8.558-11.957c.038-.053.092-.089.154-.104l.063-.007h1.736c.125 0 .23.086.258.203l.007.06v14.4c0 .126-.087.23-.204.258l-.061.007h-1.824c-.126 0-.231-.087-.259-.204l-.007-.06v-9.716c0-.233-.274-.342-.437-.202l-.045.05-7.187 10.02c-.037.053-.092.09-.153.104l-.063.008h-1.67c-.064 0-.126-.024-.173-.064l-.043-.047-7.187-10.004c-.137-.19-.424-.12-.475.088l-.007.066v9.697c0 .125-.088.23-.205.257l-.061.007h-1.824c-.126 0-.23-.087-.258-.204l-.008-.06v-14.4c0-.126.088-.23.205-.257l.061-.007h2.019zm37.128 0c.126 0 .231.086.259.203l.007.06v1.522c0 .125-.088.23-.205.257l-.061.007h-12.02c-.126 0-.232.087-.26.204l-.006.06v3.459c0 .125.087.23.205.257l.06.007h11.417c.126 0 .231.087.259.203l.007.06v1.502c0 .125-.087.23-.205.257l-.06.007H122.23c-.126 0-.232.086-.26.203l-.006.06v4.307c0 .125.087.23.205.257l.06.007h12.02c.127 0 .232.087.26.203l.007.06v1.502c0 .125-.088.23-.205.257l-.061.007h-14.542c-.126 0-.231-.087-.259-.204l-.007-.06v-14.4c0-.126.088-.23.205-.257l.06-.007h14.543zm62.808 2.05h-10.494c-.126 0-.231.086-.259.202l-.007.061v10.322c0 .125.087.23.205.257l.06.007h10.495c2.177 0 2.925-.526 2.973-2.143l.002-.17v-6.1c0-1.867-.695-2.437-2.975-2.437zm-146.037 0H43.15c-.126 0-.231.086-.259.202l-.007.061v4.844c0 .125.087.23.205.257l.06.007h8.788c2.416 0 2.494-1.165 2.496-1.61v-2.11c0-1.25-.829-1.652-3.412-1.652zm19.963 0h-9.558c-.126 0-.231.086-.259.202l-.007.061v3.79c0 .124.088.23.205.257l.061.007h9.558c1.31 0 2.087-.54 2.158-1.487l.005-.145v-1.034c0-1.111-.708-1.652-2.163-1.652z" transform="translate(-45 -496) translate(45 496)"/>
                <path fill="#EDEDED" d="M115 0l.864.007c28.471.455 51.409 23.354 51.409 51.535v1.461c0 28.466-23.403 51.542-52.273 51.542-28.87 0-52.273-23.076-52.273-51.542v-1.46C62.727 23.075 86.131 0 115 0zm0 2.987c-6.654 0-13.108 1.284-19.184 3.817-5.869 2.447-11.14 5.95-15.666 10.411-4.527 4.462-8.08 9.657-10.563 15.441-2.57 5.988-3.873 12.35-3.873 18.909v1.416c0 6.558 1.303 12.92 3.873 18.908 2.482 5.784 6.036 10.98 10.563 15.441 4.527 4.462 9.797 7.965 15.666 10.411 6.076 2.533 12.53 3.817 19.184 3.817 6.654 0 13.108-1.284 19.184-3.817 5.869-2.446 11.14-5.949 15.666-10.41 4.527-4.462 8.081-9.658 10.563-15.442 2.57-5.988 3.873-12.35 3.873-18.908v-1.416c0-6.559-1.303-12.92-3.873-18.909-2.482-5.784-6.036-10.98-10.563-15.441-4.526-4.462-9.797-7.964-15.666-10.411-6.075-2.533-12.53-3.817-19.184-3.817zm29.993 29.576l-8.242 8.165c3.346 3.312 5.423 7.884 5.423 12.941 0 10.114-8.276 18.313-18.485 18.313H86.72l8.237-8.16c-3.346-3.313-5.418-7.888-5.418-12.946 0-10.114 8.276-18.313 18.485-18.313h36.968zM122.279 42.9h-14.09c-4.397 0-8.107 3.424-8.213 7.78-.055 2.276.858 4.347 2.359 5.834l-5.18 5.131h25.124c5.225 0 9.46-4.196 9.46-9.372l-.003-.267c-.143-5.053-4.322-9.106-9.457-9.106z" transform="translate(-45 -496) translate(45 496)"/>
            </g>
        </g>
    </g>
</svg>
