<?xml version="1.0"?>
<svg xmlns="http://www.w3.org/2000/svg" xmlns:xlink="http://www.w3.org/1999/xlink" xmlns:svgjs="http://svgjs.com/svgjs" version="1.1" width="512" height="512" x="0" y="0" viewBox="0 0 64 64" style="enable-background:new 0 0 512 512" xml:space="preserve" class=""><g><g xmlns="http://www.w3.org/2000/svg" id="money-economy-business-finance-coin-growth"><path d="M27,35a9,9,0,1,0,9,9A9.01,9.01,0,0,0,27,35Zm0,16a7,7,0,1,1,7-7A7.008,7.008,0,0,1,27,51Z" fill="#e5e5e5" data-original="#000000" style="" class=""/><path d="M44,55a3,3,0,0,1,3-3,1,1,0,0,0,1-1V37a1,1,0,0,0-1-1,3,3,0,0,1-3-3,1,1,0,0,0-1-1H11a1,1,0,0,0-1,1,3,3,0,0,1-3,3,1,1,0,0,0-1,1V51a1,1,0,0,0,1,1,3,3,0,0,1,3,3,1,1,0,0,0,1,1H43A1,1,0,0,0,44,55ZM11.9,54A5.013,5.013,0,0,0,8,50.1V37.9A5.013,5.013,0,0,0,11.9,34H42.1A5.013,5.013,0,0,0,46,37.9V50.1A5.013,5.013,0,0,0,42.1,54Z" fill="#e5e5e5" data-original="#000000" style="" class=""/><path d="M61,32H57.73L52.36,15H58a1,1,0,0,0,.65-1.76l-13-11a1,1,0,0,0-1.3,0l-13,11A1,1,0,0,0,32,15h5.64l-2.85,9H29V20a1,1,0,0,0-1-1H25.64a9,9,0,1,0-11.28,0H12a1,1,0,0,0-1,1v4H5a1,1,0,0,0-1,1v4H3a1,1,0,0,0-1,1V58a1,1,0,0,0,1,1h9v2a1,1,0,0,0,1,1H61a1,1,0,0,0,1-1V33A1,1,0,0,0,61,32ZM39.95,14.3a.979.979,0,0,0-.14-.89A1,1,0,0,0,39,13H34.73L45,4.31,55.27,13H51a1,1,0,0,0-.81.41.979.979,0,0,0-.14.89L55.64,32H52V30a1,1,0,0,0-1-1H38V25a1,1,0,0,0-1-1h-.11ZM52,37h.1A5.01,5.01,0,0,0,56,40.9V53.1A5.01,5.01,0,0,0,52.1,57H52ZM35.8,26l.2.06V29H22V26ZM13,12a7,7,0,1,1,7,7A7.008,7.008,0,0,1,13,12Zm0,9H27v3H13ZM6,26H20v3H6ZM4,57V31H50V57Zm56,3H14V59H53a1,1,0,0,0,1-1,3.009,3.009,0,0,1,3-3,1,1,0,0,0,1-1V40a1,1,0,0,0-1-1,3.009,3.009,0,0,1-3-3,1,1,0,0,0-1-1H52V34h8Z" fill="#e5e5e5" data-original="#000000" style="" class=""/><path d="M22,7H21V6H19V7H18a1,1,0,0,0-1,1v4a1,1,0,0,0,1,1h3v2H19V14H17v2a1,1,0,0,0,1,1h1v1h2V17h1a1,1,0,0,0,1-1V12a1,1,0,0,0-1-1H19V9h2v1h2V8A1,1,0,0,0,22,7Z" fill="#e5e5e5" data-original="#000000" style="" class=""/></g></g></svg>
