<?xml version="1.0" encoding="utf-8"?>
<!-- Generator: Adobe Illustrator 24.0.2, SVG Export Plug-In . SVG Version: 6.00 Build 0)  -->
<svg version="1.1" id="Layer_1" xmlns="http://www.w3.org/2000/svg" xmlns:xlink="http://www.w3.org/1999/xlink" x="0px" y="0px"
	 viewBox="0 0 32.9 32.9" style="enable-background:new 0 0 32.9 32.9;" xml:space="preserve">
<style type="text/css">
	.st0{fill-rule:evenodd;clip-rule:evenodd;fill:#1F2123;}
</style>
<g>
	<path class="st0" d="M12.9,7.5c-4.7,0-8.5,3.7-8.5,8.3c0,2.3,0.9,4.4,2.5,5.9l-3.8,3.7h16.9c4.7,0,8.5-3.7,8.5-8.3
		c0-2.3-0.9-4.4-2.5-5.9l3.8-3.7H12.9z M19.4,20.7H7.9l2.4-2.3c-0.7-0.7-1.1-1.6-1.1-2.7c0-2,1.7-3.5,3.8-3.5h6.4
		c2.3,0,4.2,1.8,4.3,4l0,0.3C23.7,18.8,21.8,20.7,19.4,20.7z"/>
</g>
</svg>
