<svg xmlns="http://www.w3.org/2000/svg" width="304" height="21" viewBox="0 0 304 21">
    <g fill="none" fill-rule="evenodd">
        <g>
            <g>
                <path fill="#5B8FFF" d="M189.186 0l.076.106 11.517 16.055c.142.198.439.198.58 0L212.82.149c.067-.094.175-.149.29-.149h2.325c.197 0 .356.158.356.353v19.284c0 .195-.16.354-.356.354h-2.442c-.197 0-.356-.159-.356-.354V6.627c0-.344-.445-.485-.646-.205l-9.624 13.42c-.067.093-.175.149-.29.149h-2.235c-.115 0-.223-.055-.29-.149l-9.625-13.395c-.2-.28-.645-.14-.645.205v12.985c0 .195-.16.354-.356.354h-2.442c-.197 0-.356-.159-.356-.354V.353c0-.195.16-.353.356-.353h2.703zm49.719 0c.197 0 .356.158.356.353v2.038c0 .195-.16.354-.356.354h-16.097c-.196 0-.356.158-.356.353V7.73c0 .195.16.353.356.353h15.289c.196 0 .356.159.356.354v2.01c0 .195-.16.353-.356.353h-15.289c-.196 0-.356.158-.356.354v5.766c0 .196.16.354.356.354h16.097c.197 0 .356.158.356.353v2.01c0 .195-.16.354-.356.354h-19.473c-.197 0-.356-.159-.356-.354V.353c0-.195.159-.353.356-.353zm20.982 0c5.208 0 7.333 1.741 7.333 6.01v8.166c0 2.03-.509 3.41-1.6 4.342-1.16.991-3.036 1.473-5.733 1.473h-17.43c-.197 0-.357-.159-.357-.354V.354c0-.196.16-.354.356-.354zm13.667 0c.197 0 .356.158.356.353v19.284c0 .195-.159.354-.356.354h-2.665c-.196 0-.355-.159-.355-.354V.353c0-.195.159-.353.355-.353zm17.247 0c.12 0 .231.06.297.159l12.798 19.284c.156.235-.014.548-.297.548h-3.18l-.075-.115-10.223-15.77c-.14-.215-.457-.216-.598-.002L279.196 19.83c-.066.1-.178.16-.298.16h-2.93c-.284 0-.454-.313-.297-.548L288.552.158c.066-.099.177-.158.297-.158zm-30.914 2.745h-14.054c-.196 0-.356.158-.356.353V16.92c0 .195.16.354.356.354h14.054c3.016 0 3.984-.753 3.984-3.098V6.009c0-2.501-.931-3.264-3.984-3.264z" transform="translate(-806 -160) translate(806 160.126)"/>
                <path fill="#EDEDED" d="M22.366 0c.197 0 .356.158.356.353v2.038c0 .195-.16.354-.356.354H6.218c-1.296 0-2.841.374-2.841 2.157v.996c0 .985.493 2.158 2.841 2.158h11.345c2.837 0 6.218.855 6.218 4.93v2.103c0 4.051-3.381 4.902-6.218 4.902H.997c-.196 0-.356-.159-.356-.354v-2.01c0-.195.16-.353.356-.353h16.566c1.77 0 2.87-.837 2.87-2.185v-2.132c0-1.39-1.02-2.157-2.87-2.157H6.218C3.381 10.8 0 9.945 0 5.87v-.94C0 .854 3.381 0 6.218 0zm7.08 0c.197 0 .357.158.357.353v14.708c0 1.489.947 2.213 2.897 2.213h12.042c1.888 0 2.73-.682 2.73-2.213V.353c0-.195.159-.353.355-.353h2.638c.196 0 .356.158.356.353v14.68c0 1.682-.326 2.784-1.057 3.572-.864.933-2.315 1.386-4.437 1.386H32.7c-2.862 0-6.274-.86-6.274-4.957V.354c0-.196.16-.354.356-.354zm40.55 0c2.863 0 6.275.86 6.275 4.957v2.74c0 4.098-3.412 4.958-6.274 4.958H57.783c-.196 0-.356.158-.356.353v6.63c0 .194-.16.353-.356.353h-2.665c-.196 0-.356-.159-.356-.354V.354c0-.196.16-.354.356-.354zm25.06 0c2.85 0 6.247.86 6.247 4.957v1.357c0 2.693-1.553 4.376-4.4 4.808-.247.037-.383.303-.263.52l4.325 7.825c.13.236-.042.524-.312.524h-2.804c-.13 0-.25-.07-.312-.184l-4.62-8.353c-.062-.113-.181-.183-.311-.183H82.258c-.197 0-.356.158-.356.353v8.013c0 .195-.16.354-.356.354H78.88c-.197 0-.356-.159-.356-.354V.354c0-.196.159-.354.356-.354zm28.748 0c.197 0 .356.158.356.353v2.038c0 .195-.159.354-.356.354h-16.096c-.197 0-.356.158-.356.353V7.73c0 .195.16.353.356.353h15.288c.197 0 .356.159.356.354v2.01c0 .195-.16.353-.356.353h-15.288c-.197 0-.356.158-.356.354v5.766c0 .196.16.354.356.354h16.096c.197 0 .356.158.356.353v2.01c0 .195-.159.354-.356.354h-19.473c-.197 0-.356-.159-.356-.354V.353c0-.195.16-.353.356-.353zm6.255 0l.076.106 11.517 16.055c.142.198.439.198.58 0L153.692.149c.067-.094.175-.149.29-.149h2.325c.196 0 .356.158.356.353v19.284c0 .195-.16.354-.356.354h-2.442c-.197 0-.356-.159-.356-.354V6.627c0-.344-.445-.485-.646-.205l-9.624 13.42c-.067.093-.175.149-.29.149h-2.235c-.116 0-.223-.055-.29-.149l-9.625-13.395c-.2-.28-.645-.14-.645.205v12.985c0 .195-.16.354-.356.354h-2.442c-.197 0-.356-.159-.356-.354V.353c0-.195.16-.353.356-.353h2.703zm49.719 0c.197 0 .356.158.356.353v2.038c0 .195-.16.354-.356.354H163.68c-.196 0-.356.158-.356.353V7.73c0 .195.16.353.356.353h15.289c.196 0 .356.159.356.354v2.01c0 .195-.16.353-.356.353H163.68c-.196 0-.356.158-.356.354v5.766c0 .196.16.354.356.354h16.097c.197 0 .356.158.356.353v2.01c0 .195-.16.354-.356.354h-19.474c-.196 0-.355-.159-.355-.354V.353c0-.195.159-.353.355-.353zM68.324 2.745h-10.54c-.197 0-.357.158-.357.353v6.486c0 .196.16.354.356.354h11.768c3.167 0 3.333-1.495 3.342-2.117V4.957c0-1.675-1.11-2.212-4.569-2.212zm26.733 0h-12.8c-.196 0-.355.158-.355.353v5.075c0 .195.159.353.356.353h12.799c1.84 0 2.897-.796 2.897-2.185V4.957c0-1.489-.948-2.212-2.897-2.212z" transform="translate(-806 -160) translate(806 160.126)"/>
            </g>
        </g>
    </g>
</svg>
