<?xml version="1.0"?>
<svg xmlns="http://www.w3.org/2000/svg" xmlns:xlink="http://www.w3.org/1999/xlink" xmlns:svgjs="http://svgjs.com/svgjs" version="1.1" width="512" height="512" x="0" y="0" viewBox="0 0 512.002 512.002" style="enable-background:new 0 0 512 512" xml:space="preserve" class=""><g><linearGradient xmlns="http://www.w3.org/2000/svg" id="SVGID_1_" gradientUnits="userSpaceOnUse" x1="256.001" x2="256.001" y1="512.002" y2="0"><stop stop-opacity="1" stop-color="#a93aff" offset="0"/><stop stop-opacity="1" stop-color="#ededed" offset="0"/></linearGradient><g xmlns="http://www.w3.org/2000/svg"><g><g><path d="m286.374 90.427c69.209 11.658 123.542 65.991 135.2 135.201 1.217 7.221 7.469 12.508 14.792 12.508h60.634c9.018 0 16.005-7.915 14.884-16.864-14.34-114.492-105.397-206.655-221.155-221.154-8.972-1.121-16.864 5.883-16.864 14.884v60.634c0 7.323 5.287 13.575 12.509 14.791zm17.491-57.781c88.425 17.916 157.575 87.066 175.491 175.491h-30.726c-16.702-70.713-72.643-127.73-144.766-144.765v-30.726zm-183.318 316.03c-19.984-28.036-30.547-61.073-30.547-95.54 0-80.86 57.823-149.29 137.491-162.709 7.222-1.216 12.509-7.468 12.509-14.791v-60.634c0-9.036-7.932-16.004-16.864-14.884-127.208 15.934-223.136 124.708-223.136 253.018 0 57.144 18.55 111.193 53.643 156.305 5.536 7.117 16.071 7.773 22.446 1.396l42.85-42.849c5.18-5.18 5.861-13.346 1.608-19.312zm-53.208 28.486c-24.483-36.805-37.339-79.343-37.339-124.026 0-107.474 76.258-199.411 180-220.486v30.731c-86.963 20.662-150 98.775-150 189.755 0 36.468 10.003 71.583 29.045 102.32zm429.661-105.16h-60.634c-7.323 0-13.575 5.288-14.792 12.508-13.419 79.668-81.849 137.492-162.709 137.492-34.466 0-67.503-10.563-95.539-30.547-5.966-4.252-14.132-3.573-19.313 1.608l-42.85 42.849c-6.377 6.377-5.72 16.909 1.396 22.446 45.112 35.094 99.161 53.644 156.305 53.644 128.311 0 237.085-95.928 253.019-223.136 1.122-8.949-5.865-16.864-14.883-16.864zm-238.135 210c-44.683 0-87.22-12.857-124.024-37.339l21.705-21.705c30.737 19.041 65.852 29.044 102.319 29.044 91.177 0 169.139-63.226 189.756-150h30.73c-21.074 103.742-113.011 180-220.486 180zm-2.865-211h60c8.284 0 15-6.716 15-15s-6.716-15-15-15h-45v-45c0-8.284-6.716-15-15-15s-15 6.716-15 15v60c0 8.284 6.716 15 15 15zm-135-15c0 74.439 60.561 135 135 135s135-60.561 135-135-60.561-135-135-135-135 60.561-135 135zm135-105c57.897 0 105 47.103 105 105s-47.103 105-105 105-105-47.103-105-105 47.103-105 105-105z" fill="url(#SVGID_1_)" data-original="url(#SVGID_1_)" style=""/></g></g></g></g></svg>
