<?xml version="1.0" encoding="utf-8"?>
<!-- Generator: Adobe Illustrator 24.0.2, SVG Export Plug-In . SVG Version: 6.00 Build 0)  -->
<svg version="1.1" id="Layer_1" xmlns="http://www.w3.org/2000/svg" xmlns:xlink="http://www.w3.org/1999/xlink" x="0px" y="0px"
	 viewBox="0 0 32.9 32.9" style="enable-background:new 0 0 32.9 32.9;" xml:space="preserve">
<style type="text/css">
	.st0{fill-rule:evenodd;clip-rule:evenodd;fill:#1F2123;}
</style>
<g>
	<path class="st0" d="M17.6,23c0,0,0.4,0,0.6-0.3c0.2-0.2,0.2-0.6,0.2-0.6s0-1.9,0.9-2.1c0.9-0.3,2,1.8,3.2,2.6
		c0.9,0.6,1.6,0.5,1.6,0.5l3.2,0c0,0,1.7-0.1,0.9-1.4c-0.1-0.1-0.5-0.9-2.4-2.7c-2-1.8-1.7-1.5,0.7-4.6c1.5-1.9,2-3.1,1.9-3.6
		c-0.2-0.5-1.2-0.3-1.2-0.3l-3.6,0c0,0-0.3,0-0.5,0.1c-0.2,0.1-0.3,0.4-0.3,0.4s-0.6,1.5-1.3,2.7c-1.6,2.6-2.2,2.8-2.5,2.6
		c-0.6-0.4-0.5-1.5-0.5-2.4c0-2.6,0.4-3.6-0.8-3.9C17.3,9.9,17,9.9,16,9.8c-1.3,0-2.3,0-3,0.3c-0.4,0.2-0.7,0.6-0.5,0.7
		c0.2,0,0.8,0.1,1.1,0.5c0.4,0.5,0.4,1.6,0.4,1.6s0.2,3-0.5,3.4c-0.5,0.3-1.1-0.3-2.5-2.7C10.2,12.4,9.6,11,9.6,11s-0.1-0.3-0.3-0.4
		c-0.2-0.2-0.5-0.2-0.5-0.2l-3.4,0c0,0-0.5,0-0.7,0.2c-0.2,0.2,0,0.6,0,0.6s2.6,6.1,5.6,9.1c2.7,2.8,5.9,2.6,5.9,2.6H17.6z"/>
</g>
</svg>
