<?xml version="1.0" encoding="utf-8"?>
<!-- Generator: Adobe Illustrator 24.0.2, SVG Export Plug-In . SVG Version: 6.00 Build 0)  -->
<svg version="1.1" id="Layer_1" xmlns="http://www.w3.org/2000/svg" xmlns:xlink="http://www.w3.org/1999/xlink" x="0px" y="0px"
	 viewBox="0 0 32.9 32.9" style="enable-background:new 0 0 32.9 32.9;" xml:space="preserve">
<style type="text/css">
	.st0{fill-rule:evenodd;clip-rule:evenodd;fill:#FFFFFF;}
</style>
<g>
	<path class="st0" d="M17.6,22.9c0,0,0.4,0,0.6-0.3c0.2-0.2,0.2-0.6,0.2-0.6s0-1.8,0.8-2.1c0.8-0.3,1.9,1.8,3.1,2.5
		c0.9,0.6,1.5,0.5,1.5,0.5l3.1,0c0,0,1.6-0.1,0.8-1.3c-0.1-0.1-0.4-0.9-2.3-2.6c-1.9-1.8-1.7-1.5,0.7-4.5c1.4-1.9,2-3,1.8-3.5
		c-0.2-0.5-1.2-0.3-1.2-0.3l-3.5,0c0,0-0.3,0-0.4,0.1c-0.2,0.1-0.3,0.4-0.3,0.4s-0.5,1.4-1.3,2.7c-1.5,2.6-2.2,2.7-2.4,2.6
		c-0.6-0.4-0.4-1.5-0.4-2.3c0-2.5,0.4-3.5-0.8-3.8C17.3,10.1,17,10,16,10c-1.2,0-2.3,0-2.9,0.3c-0.4,0.2-0.7,0.6-0.5,0.6
		c0.2,0,0.8,0.1,1,0.5C14,11.9,14,13,14,13s0.2,2.9-0.5,3.3C13,16.5,12.4,16,11,13.7c-0.7-1.2-1.2-2.5-1.2-2.5s-0.1-0.2-0.3-0.4
		C9.3,10.6,9,10.6,9,10.6l-3.3,0c0,0-0.5,0-0.7,0.2c-0.2,0.2,0,0.6,0,0.6s2.6,5.9,5.5,8.9c2.7,2.7,5.7,2.6,5.7,2.6
		S17.6,22.9,17.6,22.9z"/>
</g>
</svg>
