<?xml version="1.0" encoding="utf-8"?>
<!-- Generator: Adobe Illustrator 24.0.2, SVG Export Plug-In . SVG Version: 6.00 Build 0)  -->
<svg version="1.1" id="Layer_1" xmlns="http://www.w3.org/2000/svg" xmlns:xlink="http://www.w3.org/1999/xlink" x="0px" y="0px"
	 viewBox="0 0 58 58" style="enable-background:new 0 0 58 58;" xml:space="preserve">
<style type="text/css">
	.st0{fill-rule:evenodd;clip-rule:evenodd;fill:#F4F4F4;}
</style>
<g>
	<path class="st0" d="M34.8,38.1H12.1l4.7-5c-1.4-1.4-2.2-3.4-2.1-5.7c0.1-4.2,3.4-7.5,7.4-7.5h12.7c4.7,0,8.5,4.1,8.5,9.1
		S39.5,38.1,34.8,38.1z M55.3,9.9H21.9c-9.2,0-16.7,7.9-16.7,17.8c0,4.9,1.9,9.3,4.9,12.6l-7.4,7.9h33.3c9.2,0,16.7-7.9,16.7-17.8
		c0-4.9-1.9-9.3-4.9-12.5L55.3,9.9z"/>
</g>
</svg>
