<?xml version="1.0" encoding="utf-8"?>
<!-- Generator: Adobe Illustrator 24.0.2, SVG Export Plug-In . SVG Version: 6.00 Build 0)  -->
<svg version="1.1" id="Layer_1" xmlns="http://www.w3.org/2000/svg" xmlns:xlink="http://www.w3.org/1999/xlink" x="0px" y="0px"
	 viewBox="0 0 32.9 32.9" style="enable-background:new 0 0 32.9 32.9;" xml:space="preserve">
<style type="text/css">
	.st0{fill-rule:evenodd;clip-rule:evenodd;fill:#FFFFFF;}
</style>
<g>
	<path class="st0" d="M22.2,9.5c-0.7,0-1.3,0.6-1.3,1.3c0,0.7,0.6,1.3,1.3,1.3c0.7,0,1.3-0.6,1.3-1.3C23.4,10.1,22.9,9.5,22.2,9.5z"
		/>
	<path class="st0" d="M16.5,11L16.5,11c-3,0-5.5,2.5-5.5,5.5c0,3,2.5,5.5,5.5,5.5c3,0,5.5-2.5,5.5-5.5S19.5,11,16.5,11z M16.5,20
		c-2,0-3.6-1.6-3.6-3.6s1.6-3.6,3.6-3.6s3.6,1.6,3.6,3.6S18.4,20,16.5,20z"/>
	<path class="st0" d="M26.6,9.5c-0.3-0.7-0.6-1.3-1.2-1.9c-0.6-0.6-1.2-1-1.9-1.2c-0.7-0.3-1.5-0.4-2.6-0.5c-0.2,0-0.4,0-0.6,0
		l-0.2,0c-0.6,0-1.3,0-2.8,0h-1.7c-2.1,0-2.5,0-3.5,0.1c-1.1,0.1-1.9,0.2-2.6,0.5C8.8,6.6,8.2,7,7.6,7.6s-1,1.2-1.2,1.9
		c-0.3,0.7-0.4,1.5-0.5,2.6c0,1-0.1,1.4-0.1,3.5v1.7c0,1.5,0,2.2,0,2.8l0,0.2l0,0.6c0.1,1.1,0.2,1.9,0.5,2.6
		c0.3,0.7,0.6,1.3,1.2,1.9c0.6,0.6,1.2,1,1.9,1.2c0.7,0.3,1.5,0.4,2.6,0.5c1,0,1.4,0.1,3.3,0.1h2.2c1.9,0,2.3,0,3.3-0.1
		c1.1-0.1,1.9-0.2,2.6-0.5c0.7-0.3,1.3-0.6,1.9-1.2s1-1.2,1.2-1.9c0.3-0.7,0.4-1.5,0.5-2.6c0-1,0.1-1.4,0.1-3.5v-1.7
		c0-2.1,0-2.5-0.1-3.5C27,10.9,26.8,10.2,26.6,9.5z M25.2,17.5c0,1.9,0,2.3-0.1,3.2c0,1-0.2,1.6-0.4,2c-0.2,0.5-0.4,0.9-0.8,1.2
		c-0.4,0.4-0.7,0.6-1.2,0.8c-0.4,0.1-0.9,0.3-2,0.4c-1,0-1.4,0.1-3.5,0.1h-1.7c-1.3,0-2,0-2.5,0l-0.2,0c-0.2,0-0.5,0-0.7,0
		c-1,0-1.6-0.2-2-0.4C9.7,24.6,9.3,24.4,9,24c-0.4-0.4-0.6-0.7-0.8-1.2c-0.1-0.4-0.3-0.9-0.4-2c0-0.9-0.1-1.3-0.1-2.9v-2.4
		c0-1.9,0-2.3,0.1-3.2c0-1,0.2-1.6,0.4-2C8.3,9.7,8.6,9.3,9,8.9c0.4-0.4,0.7-0.6,1.2-0.8c0.4-0.1,0.9-0.3,2-0.4
		c0.9,0,1.3-0.1,2.8-0.1h0.5v0h2.3c1.7,0,2.1,0,3,0.1c1,0,1.6,0.2,2,0.4c0.5,0.2,0.9,0.4,1.2,0.8c0.4,0.4,0.6,0.7,0.8,1.2
		c0.1,0.4,0.3,0.9,0.4,2c0,1,0.1,1.4,0.1,3.2V17.5z"/>
</g>
</svg>
